<?xml version="1.0" standalone="no"?>
<!DOCTYPE svg PUBLIC "-//W3C//DTD SVG 1.1//EN" "http://www.w3.org/Graphics/SVG/1.1/DTD/svg11.dtd" >
<svg xmlns="http://www.w3.org/2000/svg" xmlns:xlink="http://www.w3.org/1999/xlink" version="1.1">
<metadata>
Created by FontForge 20161013 at Tue Feb 21 17:43:54 2012
 By ,,,
Copyright (c) 2012 Linotype GmbH, www.linotype.com. All rights reserved. This font software may not be reproduced, modified, disclosed or transferred without the express written approval of Linotype GmbH. Avenir is a trademark of Linotype GmbH registered in the U.S. Patent and Trademark Office and may be registered in certain other jurisdictions. This typeface is original artwork of Adrian Frutiger, Akira Kobayashi. The design may be protected in certain jurisdictions.
</metadata>
<defs>
<font id="AvenirNextRoundedPro-Med" horiz-adv-x="250" >
  <font-face 
    font-family="Avenir Next Rounded Pro Medium"
    font-weight="500"
    font-stretch="normal"
    units-per-em="1000"
    panose-1="2 11 6 3 2 2 2 2 2 4"
    ascent="750"
    descent="-250"
    x-height="474"
    cap-height="716"
    bbox="-198 -258 1015 958"
    underline-thickness="50"
    underline-position="-200"
    unicode-range="U+000D-FB02"
  />
<missing-glyph horiz-adv-x="512" 
d="M222 146v8q0 18 9 25t19 7t19 -7t9 -25v-8q0 -18 -9 -25t-19 -7t-19 7t-9 25zM50 50h412v617h-412v-617zM0 32v654q0 32 31 32h450q31 0 31 -32v-654q0 -32 -31 -32h-450q-31 0 -31 32zM223 254q0 50 12.5 78t46.5 59q31 29 39.5 47.5t8.5 41.5q0 35 -21.5 57t-52.5 22
q-61 0 -79 -75q-6 -23 -26 -23q-11 0 -18 7.5t-7 17.5q0 5 2 14q24 109 131 109q54 0 89 -34t35 -91q0 -35 -13 -63t-52 -65q-31 -30 -39 -46t-8 -56q0 -27 -24 -27t-24 27z" />
    <glyph glyph-name="IJ" unicode="IJ" horiz-adv-x="752" 
d="M185 660v-612q0 -31 -16 -43.5t-33 -12.5q-18 0 -34 12.5t-16 43.5v612q0 31 16 43.5t34 12.5q17 0 33 -12.5t16 -43.5zM672 217q0 -32 -5 -62t-18.5 -62.5t-35 -56t-58 -39t-84.5 -15.5q-116 0 -173 88q-15 23 -15 42t13.5 32t33.5 13q28 0 45 -30q33 -57 91 -57
q107 0 107 151v439q0 31 16 43.5t33 12.5q18 0 34 -12.5t16 -43.5v-443z" />
    <glyph glyph-name="ij" unicode="ij" horiz-adv-x="517" 
d="M192 645q0 -25 -18.5 -42.5t-44.5 -17.5t-44 17.5t-18 42.5t18 43t44 18t44.5 -17.5t18.5 -43.5zM176 430v-386q0 -29 -15 -40.5t-32 -11.5t-32 11.5t-15 40.5v386q0 29 15 40.5t32 11.5t32 -11.5t15 -40.5zM450 645q0 -25 -18.5 -42.5t-44.5 -17.5t-44.5 17.5
t-18.5 42.5t18.5 43t44.5 18t44.5 -17.5t18.5 -43.5zM340 -61v491q0 29 15 40.5t32 11.5t32 -11.5t15 -40.5v-490q0 -180 -151 -180q-60 0 -60 43q0 17 10.5 27.5t29.5 10.5h12q37 0 51 25t14 73z" />
    <glyph glyph-name="napostrophe" unicode="&#x22;n" horiz-adv-x="602" 
d="M190 432v-36h3q18 39 61 65t93 26q87 0 132 -54t45 -139v-250q0 -29 -15 -40.5t-32 -11.5t-32 11.5t-15 40.5v219q0 145 -108 145q-56 0 -91.5 -43t-35.5 -113v-208q0 -29 -15 -40.5t-32 -11.5t-32 11.5t-15 40.5v388q0 20 8.5 32t17.5 15t19 3q9 0 18 -3t17.5 -15
t8.5 -32zM-11 595l41 109q14 36 41 36q17 0 28.5 -10t11.5 -27q0 -13 -7 -29l-43 -109q-13 -33 -40 -33q-16 0 -27 9.5t-11 25.5q0 12 6 28z" />
    <glyph glyph-name="fi" unicode="fi" horiz-adv-x="568" 
d="M194 397v-353q0 -29 -15 -40.5t-32 -11.5t-32 11.5t-15 40.5v353h-59q-24 0 -33.5 12.5t-9.5 26.5q0 8 2.5 15.5t13 15t27.5 7.5h59v99q0 89 42 142t130 53q67 0 67 -43q0 -15 -11 -26.5t-34 -11.5h-15q-48 0 -66.5 -29.5t-18.5 -84.5v-99h76q24 0 33.5 -12t9.5 -26
q0 -8 -2.5 -16t-13 -15.5t-27.5 -7.5h-76zM507 645q0 -25 -18.5 -42.5t-44.5 -17.5t-44 17.5t-18 42.5t18 43t44 18t44.5 -17.5t18.5 -43.5zM491 430v-386q0 -29 -15 -40.5t-32 -11.5t-32 11.5t-15 40.5v386q0 29 15 40.5t32 11.5t32 -11.5t15 -40.5z" />
    <glyph glyph-name="fl" unicode="fl" horiz-adv-x="569" 
d="M194 397v-353q0 -29 -15 -40.5t-32 -11.5t-32 11.5t-15 40.5v353h-59q-24 0 -33.5 12.5t-9.5 26.5q0 8 2.5 15.5t13 15t27.5 7.5h59v99q0 89 42 142t130 53q67 0 67 -43q0 -15 -11 -26.5t-34 -11.5h-15q-48 0 -66.5 -29.5t-18.5 -84.5v-99h76q24 0 33.5 -12t9.5 -26
q0 -8 -2.5 -16t-13 -15.5t-27.5 -7.5h-76zM397 44v668q0 29 15 40.5t32 11.5t32 -11.5t15 -40.5v-668q0 -29 -15 -40.5t-32 -11.5t-32 11.5t-15 40.5z" />
    <glyph glyph-name=".notdef" horiz-adv-x="512" 
d="M222 146v8q0 18 9 25t19 7t19 -7t9 -25v-8q0 -18 -9 -25t-19 -7t-19 7t-9 25zM50 50h412v617h-412v-617zM0 32v654q0 32 31 32h450q31 0 31 -32v-654q0 -32 -31 -32h-450q-31 0 -31 32zM223 254q0 50 12.5 78t46.5 59q31 29 39.5 47.5t8.5 41.5q0 35 -21.5 57t-52.5 22
q-61 0 -79 -75q-6 -23 -26 -23q-11 0 -18 7.5t-7 17.5q0 5 2 14q24 109 131 109q54 0 89 -34t35 -91q0 -35 -13 -63t-52 -65q-31 -30 -39 -46t-8 -56q0 -27 -24 -27t-24 27z" />
    <glyph glyph-name=".null" horiz-adv-x="490" 
 />
    <glyph glyph-name=".null" horiz-adv-x="490" 
 />
    <glyph glyph-name="nonmarkingreturn" horiz-adv-x="333" 
 />
    <glyph glyph-name="CR" unicode="&#xd;" horiz-adv-x="0" 
 />
    <glyph glyph-name="space" unicode=" " 
 />
    <glyph glyph-name="exclam" unicode="!" horiz-adv-x="334" 
d="M117 255v405q0 32 16 44t34 12q10 0 20 -3.5t19.5 -17t9.5 -35.5v-405q0 -22 -9.5 -35.5t-19.5 -17t-20 -3.5q-18 0 -34 12t-16 44zM234 60q0 -27 -19.5 -46.5t-47.5 -19.5t-47.5 19.5t-19.5 45.5q0 27 19.5 46.5t47.5 19.5t47.5 -19t19.5 -46z" />
    <glyph glyph-name="quotedbl" unicode="&#x22;" horiz-adv-x="423" 
d="M251 495v176q0 25 13 35t28 10q14 0 27.5 -10t13.5 -35v-176q0 -25 -13.5 -35t-27.5 -10q-15 0 -28 10t-13 35zM90 495v176q0 25 13 35t28 10q14 0 27.5 -10t13.5 -35v-176q0 -25 -13.5 -35t-27.5 -10q-15 0 -28 10t-13 35z" />
    <glyph glyph-name="numbersign" unicode="#" horiz-adv-x="574" 
d="M241 425l-20 -141h118l19 141h-117zM306 48l23 163h-118l-26 -182q-5 -37 -37 -37q-15 0 -25.5 9.5t-10.5 25.5q0 9 2 21l23 163h-65q-16 0 -25.5 7t-12 14.5t-2.5 15.5q0 7 2.5 14.5t12 14.5t25.5 7h75l19 141h-66q-16 0 -25.5 7t-12 14.5t-2.5 14.5q0 8 2.5 15.5
t12 14.5t25.5 7h77l25 181q5 37 37 37q16 0 26.5 -9.5t10.5 -25.5q0 -9 -2 -21l-23 -162h118l25 181q5 37 37 37q16 0 26.5 -9.5t10.5 -25.5q0 -9 -2 -21l-23 -162h58q16 0 25.5 -7t12 -14.5t2.5 -15.5q0 -7 -2.5 -14.5t-12 -14.5t-25.5 -7h-68l-20 -141h61q16 0 25.5 -7
t12 -14.5t2.5 -14.5q0 -8 -2.5 -15.5t-12 -14.5t-25.5 -7h-70l-26 -182q-5 -37 -37 -37q-16 0 -26.5 9.5t-10.5 25.5q0 9 2 21z" />
    <glyph glyph-name="dollar" unicode="$" horiz-adv-x="595" 
d="M270 418v223q-45 -3 -76 -32.5t-31 -77.5q0 -82 107 -113zM321 309v-240q47 2 79 33t32 87q0 84 -111 120zM84 58q-22 19 -22 41q0 18 13 30t31 12q20 0 39 -19q25 -24 60.5 -38t64.5 -15v254q-94 27 -148 72t-54 130q0 84 59 136.5t143 57.5v49q0 16 8 22.5t17 6.5
t17.5 -6.5t8.5 -22.5v-48q94 -3 156 -50q23 -18 23 -39q0 -18 -11.5 -29.5t-29.5 -11.5q-16 0 -38 15q-49 34 -100 36v-238q36 -12 61 -22.5t55 -29t48.5 -39.5t31 -52.5t12.5 -69.5q0 -91 -60 -145t-148 -56v-52q0 -16 -8.5 -22.5t-17.5 -6.5t-17 6.5t-8 22.5v52
q-111 3 -186 69z" />
    <glyph glyph-name="percent" unicode="%" horiz-adv-x="870" 
d="M475 165q0 73 51.5 125t125.5 52t125.5 -52t51.5 -125t-51.5 -125t-125.5 -52t-125.5 52t-51.5 125zM746 165q0 39 -27.5 66.5t-66.5 27.5t-66.5 -27.5t-27.5 -66.5t27.5 -66.5t66.5 -27.5t66.5 27.5t27.5 66.5zM41 543q0 73 51.5 125t125.5 52t125.5 -52t51.5 -125
t-51.5 -125t-125.5 -52t-125.5 52t-51.5 125zM312 543q0 39 -27.5 66.5t-66.5 27.5t-66.5 -27.5t-27.5 -66.5t27.5 -66.5t66.5 -27.5t66.5 27.5t27.5 66.5zM204 35l397 676q14 24 36 24q15 0 26 -10t11 -26q0 -11 -8 -26l-397 -676q-14 -24 -36 -24q-15 0 -26 10t-11 26
q0 11 8 26z" />
    <glyph glyph-name="ampersand" unicode="&#x26;" horiz-adv-x="723" 
d="M594 10l-95 92q-83 -115 -221 -115q-97 0 -163.5 53.5t-66.5 147.5q0 135 158 205q-80 86 -80 162q0 81 55 126t134 45q78 0 130.5 -44t52.5 -122q0 -113 -150 -186l142 -137l81 129q16 25 41 25q19 0 32 -12t13 -31q0 -15 -11 -33l-92 -139l105 -100q19 -19 19 -37
q0 -19 -13 -33t-33 -14t-38 18zM280 67q49 0 85.5 22.5t70.5 74.5l-170 168q-118 -46 -118 -142q0 -54 39.5 -88.5t92.5 -34.5zM221 554q0 -55 69 -124q117 52 117 128q0 38 -25.5 64t-65.5 26q-41 0 -68 -26t-27 -68z" />
    <glyph glyph-name="quotesingle" unicode="'" horiz-adv-x="262" 
d="M90 495v176q0 25 13 35t28 10q14 0 27.5 -10t13.5 -35v-176q0 -25 -13.5 -35t-27.5 -10q-15 0 -28 10t-13 35z" />
    <glyph glyph-name="parenleft" unicode="(" horiz-adv-x="315" 
d="M34 288q0 114 34.5 223.5t93.5 196.5q17 24 38 24q17 0 28 -11t11 -28q0 -15 -9 -28q-111 -180 -111 -377t111 -377q9 -13 9 -28q0 -17 -11 -28t-28 -11q-21 0 -38 24q-59 87 -93.5 196.5t-34.5 223.5z" />
    <glyph glyph-name="parenright" unicode=")" horiz-adv-x="315" 
d="M281 288q0 -114 -34.5 -223.5t-93.5 -196.5q-16 -24 -37 -24q-17 0 -28.5 11t-11.5 28q0 15 9 28q111 180 111 377t-111 377q-9 13 -9 28q0 17 11.5 28t28.5 11q21 0 37 -24q59 -87 93.5 -196.5t34.5 -223.5z" />
    <glyph glyph-name="asterisk" unicode="*" horiz-adv-x="454" 
d="M222 459l-62 -84q-15 -21 -35 -21q-17 0 -29 11.5t-12 27.5q0 15 11 30l60 80l-93 30q-32 11 -32 40q0 17 11 28t28 11q10 0 23 -4l90 -29v93q0 24 13 34t27 10q8 0 16.5 -3t16 -13.5t7.5 -27.5v-93l90 29q12 4 22 4q16 0 27.5 -11t11.5 -28q0 -30 -35 -41l-89 -29
l60 -80q11 -15 11 -30q0 -16 -12 -27.5t-29 -11.5q-20 0 -35 21z" />
    <glyph glyph-name="plus" unicode="+" horiz-adv-x="666" 
d="M559 262h-185v-185q0 -25 -13 -35t-28 -10t-28 10t-13 35v185h-185q-26 0 -35.5 13t-9.5 28t9.5 28t35.5 13h185v185q0 25 13 35t28 10t28 -10t13 -35v-185h185q26 0 35.5 -13t9.5 -28t-9.5 -28t-35.5 -13z" />
    <glyph glyph-name="comma" unicode="," horiz-adv-x="260" 
d="M181 58l-52 -161q-13 -38 -45 -38q-19 0 -32 11.5t-13 30.5q0 13 4 25l48 158q12 41 47 41q20 0 33.5 -12.5t13.5 -31.5q0 -10 -4 -23z" />
    <glyph glyph-name="hyphen" unicode="-" horiz-adv-x="320" 
d="M239 204h-158q-25 0 -35 13t-10 28q0 14 10 26.5t35 12.5h158q25 0 35 -12.5t10 -26.5q0 -15 -10 -28t-35 -13z" />
    <glyph glyph-name="period" unicode="." horiz-adv-x="260" 
d="M197 60q0 -27 -19.5 -46.5t-47.5 -19.5t-47.5 19.5t-19.5 45.5q0 27 19.5 46.5t47.5 19.5t47.5 -19t19.5 -46z" />
    <glyph glyph-name="slash" unicode="/" horiz-adv-x="380" 
d="M360 676l-279 -679q-12 -27 -37 -27q-15 0 -25.5 10t-10.5 26q0 10 6 24l278 680q12 28 38 28q15 0 25.5 -9.5t10.5 -26.5q0 -10 -6 -26z" />
    <glyph glyph-name="zero" unicode="0" horiz-adv-x="595" 
d="M539 354q0 -165 -60.5 -268.5t-180.5 -103.5q-121 0 -181.5 103.5t-60.5 268.5q0 107 24.5 188.5t80.5 132.5t137 51t136.5 -51t80 -132.5t24.5 -188.5zM440 354q0 50 -6.5 96.5t-21 92.5t-44 74t-70.5 28q-42 0 -71.5 -28t-44 -74t-21 -92.5t-6.5 -96.5q0 -51 6.5 -97
t21 -92t44 -73.5t71.5 -27.5q41 0 70.5 27.5t44 73.5t21 92.5t6.5 96.5z" />
    <glyph glyph-name="one" unicode="1" horiz-adv-x="595" 
d="M282 46v544l-105 -88q-14 -13 -33 -13q-18 0 -30 12.5t-12 30.5q0 23 21 39l149 121q31 24 52 24t38 -13t17 -48v-609q0 -30 -15.5 -42t-32.5 -12q-10 0 -20 3.5t-19.5 16.5t-9.5 34z" />
    <glyph glyph-name="two" unicode="2" horiz-adv-x="595" 
d="M83 595q26 59 82.5 95t129.5 36q94 0 159 -53t65 -148q0 -62 -29 -110.5t-85 -103.5l-227 -224h304q27 0 37.5 -14t10.5 -29q0 -16 -10.5 -30t-37.5 -14h-365q-37 0 -51 16.5t-14 35.5q0 27 32 59l258 262q78 80 78 150q0 54 -36 88t-90 34q-86 0 -123 -86
q-17 -39 -49 -39q-19 0 -32.5 12t-13.5 33q0 14 7 30z" />
    <glyph glyph-name="three" unicode="3" horiz-adv-x="595" 
d="M145 135q49 -71 134 -71q58 0 100 35.5t42 99.5q0 68 -51 99t-119 31q-26 0 -36 13t-10 28q0 14 10 27.5t36 13.5q64 0 107.5 27t43.5 90q0 52 -36.5 84.5t-88.5 32.5q-70 0 -112 -59q-16 -24 -39 -24q-19 0 -32 12t-13 31q0 17 16 37q66 84 184 84q93 0 155.5 -51
t62.5 -141q0 -59 -35 -103t-90 -58v-2q64 -13 104 -59.5t40 -113.5q0 -101 -70 -158.5t-167 -57.5q-145 0 -213 102q-13 21 -13 36q0 19 13.5 31.5t32.5 12.5q23 0 44 -29z" />
    <glyph glyph-name="four" unicode="4" horiz-adv-x="595" 
d="M357 242v333h-2l-226 -333h228zM451 242h63q27 0 37 -13.5t10 -27.5q0 -9 -3 -17t-14 -16.5t-30 -8.5h-63v-114q0 -30 -15 -41.5t-32 -11.5t-32 11.5t-15 41.5v114h-270q-36 0 -50 17.5t-14 37.5q0 22 19 51l283 409q29 42 66 42q21 0 40.5 -16t19.5 -56v-402z" />
    <glyph glyph-name="five" unicode="5" horiz-adv-x="595" 
d="M79 72q-15 19 -15 37q0 19 13 31.5t32 12.5q24 0 42 -25q45 -64 122 -64q63 0 105.5 42.5t42.5 109.5q0 76 -47.5 115.5t-118.5 39.5q-37 0 -86 -13q-24 -6 -30 -6q-5 0 -11 1.5t-13 6t-11 14t-4 23.5l6 255q1 56 57 56h288q26 0 36.5 -14t10.5 -29q0 -9 -3 -17.5
t-14.5 -17t-29.5 -8.5h-253l-6 -186q38 13 91 13q104 0 170.5 -61t66.5 -162q0 -109 -70 -176.5t-177 -67.5q-127 0 -194 90z" />
    <glyph glyph-name="six" unicode="6" horiz-adv-x="595" 
d="M374 635l-143 -212l2 -2q32 19 87 19q94 0 157.5 -63t63.5 -159q0 -105 -69.5 -170.5t-174.5 -65.5q-106 0 -175.5 66t-69.5 167q0 92 69 201l175 272q18 28 44 28q20 0 34 -12.5t14 -32.5q0 -14 -14 -36zM150 214q0 -63 41 -106.5t106 -43.5t105.5 42.5t40.5 108.5
q0 65 -40 106.5t-105 41.5q-66 0 -107 -41.5t-41 -107.5z" />
    <glyph glyph-name="seven" unicode="7" horiz-adv-x="595" 
d="M514 616l-272 -588q-17 -36 -48 -36q-21 0 -36 13t-15 35q0 14 8 31l264 551h-312q-26 0 -36.5 14t-10.5 29q0 9 3 17.5t14.5 17t29.5 8.5h359q35 0 48 -17.5t13 -35.5q0 -17 -9 -39z" />
    <glyph glyph-name="eight" unicode="8" horiz-adv-x="595" 
d="M510 535q0 -57 -30 -100.5t-79 -59.5v-2q58 -15 96 -64t38 -116q0 -96 -68.5 -153.5t-168.5 -57.5q-101 0 -169.5 57t-68.5 154q0 68 38 116t96 64v2q-49 17 -79 59t-30 99q0 86 61.5 139.5t151.5 53.5t151 -52.5t61 -138.5zM414 530q0 50 -34 83t-82 33q-50 0 -83 -32.5
t-33 -83.5q0 -49 33 -82t83 -33q48 0 82 33.5t34 81.5zM436 198q0 58 -39 96t-99 38q-61 0 -100 -37.5t-39 -96.5q0 -60 38.5 -97.5t100.5 -37.5q60 0 99 37.5t39 97.5z" />
    <glyph glyph-name="nine" unicode="9" horiz-adv-x="595" 
d="M475 292l-175 -272q-19 -28 -44 -28q-20 0 -34 12.5t-14 32.5q0 17 13 36l144 213l-1 1q-33 -19 -89 -19q-94 0 -157.5 63t-63.5 159q0 105 69.5 170.5t175.5 65.5q105 0 174.5 -66.5t69.5 -166.5q0 -91 -68 -201zM446 494q0 64 -41 107.5t-106 43.5t-106 -43t-41 -109
q0 -65 40.5 -106.5t105.5 -41.5q66 0 107 41.5t41 107.5z" />
    <glyph glyph-name="colon" unicode=":" horiz-adv-x="300" 
d="M217 415q0 -27 -19.5 -46.5t-47.5 -19.5t-47.5 19t-19.5 46t19.5 46.5t47.5 19.5t47.5 -19t19.5 -46zM217 60q0 -27 -19.5 -46.5t-47.5 -19.5t-47.5 19.5t-19.5 45.5q0 27 19.5 46.5t47.5 19.5t47.5 -19t19.5 -46z" />
    <glyph glyph-name="semicolon" unicode=";" horiz-adv-x="300" 
d="M217 415q0 -27 -19.5 -46.5t-47.5 -19.5t-47.5 19.5t-19.5 45.5q0 27 19.5 47t47.5 20t47.5 -19.5t19.5 -46.5zM197 58l-52 -161q-13 -38 -45 -38q-19 0 -32 11.5t-13 30.5q0 12 4 25l48 158q12 41 48 41q19 0 32.5 -12.5t13.5 -31.5q0 -10 -4 -23z" />
    <glyph glyph-name="less" unicode="&#x3c;" horiz-adv-x="666" 
d="M530 68l-427 192q-32 14 -32 43q0 28 32 43l427 192q15 7 27 7q16 0 27 -11t11 -27q0 -25 -27 -37l-368 -167l368 -167q27 -12 27 -37q0 -16 -11 -27t-27 -11q-12 0 -27 7z" />
    <glyph glyph-name="equal" unicode="=" horiz-adv-x="666" 
d="M550 345h-434q-25 0 -35 13.5t-10 27.5t10 27t35 13h434q25 0 35 -13t10 -27t-10 -27.5t-35 -13.5zM550 180h-434q-25 0 -35 13t-10 27t10 27.5t35 13.5h434q25 0 35 -13.5t10 -27.5t-10 -27t-35 -13z" />
    <glyph glyph-name="greater" unicode="&#x3e;" horiz-adv-x="666" 
d="M563 260l-427 -192q-15 -7 -27 -7q-16 0 -27 11t-11 27q0 25 27 37l368 167l-368 167q-27 12 -27 37q0 16 11 27t27 11q12 0 27 -7l427 -192q32 -14 32 -43q0 -28 -32 -43z" />
    <glyph glyph-name="question" unicode="?" horiz-adv-x="500" 
d="M326 60q0 -27 -19.5 -46.5t-47.5 -19.5t-47.5 19.5t-19.5 45.5q0 27 19.5 46.5t47.5 19.5t47.5 -19t19.5 -46zM301 246q0 -30 -15 -41.5t-32 -11.5q-10 0 -19.5 3t-18.5 16t-9 34q0 51 17 84t56 68l37 35q17 16 26 27t17 30t8 42q0 48 -30.5 76.5t-78.5 28.5
q-80 0 -109 -79q-14 -35 -45 -35q-20 0 -33 12.5t-13 33.5q0 18 8 34q26 57 78 88.5t120 31.5q87 0 145 -49t58 -136q0 -58 -22.5 -93t-73.5 -78q-26 -22 -37.5 -33.5t-22.5 -35t-11 -52.5z" />
    <glyph glyph-name="at" unicode="@" horiz-adv-x="800" 
d="M412 478q-50 0 -80 -49.5t-30 -108.5q0 -34 16.5 -61.5t55.5 -27.5q38 0 65 26.5t37 59t10 65.5q0 96 -74 96zM701 76q-115 -94 -286 -94t-276.5 103.5t-105.5 267.5q0 159 111.5 266t270.5 107q70 0 132.5 -20.5t112.5 -59t79.5 -101t29.5 -140.5q0 -115 -57 -180
t-139 -65q-40 0 -63.5 20t-23.5 50h-5q-14 -27 -47 -48.5t-76 -21.5q-67 0 -105.5 45t-38.5 118q0 89 56 157.5t142 68.5q37 0 64.5 -16t36.5 -41h2l4 17q8 33 36 33q16 0 27 -9.5t11 -26.5q0 -7 -2 -17l-30 -143q-10 -45 -10 -71q0 -45 40 -45q44 0 72 47t28 120
q0 122 -76.5 189.5t-200.5 67.5q-130 0 -212 -86t-82 -217q0 -135 84 -216t219 -81q130 0 232 78q15 11 28 11q15 0 25 -10t10 -25q0 -18 -17 -32z" />
    <glyph glyph-name="A" unicode="A" horiz-adv-x="711" 
d="M590 30l-61 144h-350l-61 -145q-16 -37 -48 -37q-21 0 -36 13t-15 35q0 13 8 30l266 596q22 50 64 50q41 0 64 -50l263 -594q7 -16 7 -30q0 -22 -15 -36t-36 -14q-34 0 -50 38zM355 590l-139 -329h277z" />
    <glyph glyph-name="B" unicode="B" horiz-adv-x="642" 
d="M185 625v-216h129q61 0 100 27.5t39 82.5q0 106 -155 106h-113zM185 325v-241h124q47 0 84 10t64.5 38.5t27.5 73.5q0 119 -167 119h-133zM319 0h-174q-59 0 -59 59v590q0 59 59 59h185q92 0 157 -43t65 -136q0 -57 -33.5 -98t-90.5 -56v-2q70 -8 113.5 -54t43.5 -118
q0 -98 -74.5 -149.5t-191.5 -51.5z" />
    <glyph glyph-name="C" unicode="C" horiz-adv-x="708" 
d="M423 -18q-163 0 -268 105t-105 268q0 164 107 267.5t270 103.5q63 0 120.5 -19.5t95.5 -54.5q20 -19 20 -40q0 -20 -13 -33.5t-34 -13.5q-20 0 -42 20q-60 54 -147 54q-120 0 -194.5 -82t-74.5 -202q0 -122 73 -203.5t193 -81.5q103 0 169 69q20 20 40 20q19 0 31.5 -12
t12.5 -32q0 -23 -19 -42q-88 -91 -235 -91z" />
    <glyph glyph-name="D" unicode="D" horiz-adv-x="761" 
d="M329 0h-184q-59 0 -59 59v590q0 59 59 59h184q71 0 136.5 -20.5t121.5 -61.5t90 -111.5t34 -160.5q0 -87 -34 -157t-89.5 -111.5t-122 -63.5t-136.5 -22zM185 622v-535h124q131 0 213.5 71.5t82.5 195.5q0 128 -82 198t-214 70h-124z" />
    <glyph glyph-name="E" unicode="E" horiz-adv-x="601" 
d="M479 324h-294v-236h330q28 0 38 -14t10 -30t-10 -30t-38 -14h-370q-59 0 -59 59v590q0 59 59 59h354q28 0 38.5 -14t10.5 -30q0 -9 -3 -17.5t-14.5 -17t-31.5 -8.5h-314v-212h294q27 0 37.5 -13.5t10.5 -28.5q0 -9 -3 -17.5t-14.5 -17t-30.5 -8.5z" />
    <glyph glyph-name="F" unicode="F" horiz-adv-x="568" 
d="M185 316v-268q0 -31 -16 -43.5t-33 -12.5q-18 0 -34 12.5t-16 43.5v601q0 59 59 59h342q28 0 38.5 -14t10.5 -30q0 -9 -3 -17.5t-14.5 -17t-31.5 -8.5h-302v-220h281q27 0 37.5 -13.5t10.5 -28.5q0 -9 -3 -17.5t-14.5 -17t-30.5 -8.5h-281z" />
    <glyph glyph-name="G" unicode="G" horiz-adv-x="776" 
d="M694 330v-244q0 -25 -11 -39t-38 -25q-105 -40 -217 -40q-166 0 -272 104.5t-106 268.5t107 267.5t270 103.5q137 0 221 -65q24 -19 24 -41q0 -20 -13 -33.5t-32 -13.5t-38 14q-71 52 -161 52q-121 0 -195.5 -82t-74.5 -202q0 -122 74.5 -203t198.5 -81q100 0 165 35v197
h-118q-26 0 -36.5 14t-10.5 29q0 8 3 16.5t14.5 16.5t29.5 8h158q58 0 58 -57z" />
    <glyph glyph-name="H" unicode="H" horiz-adv-x="729" 
d="M544 412v248q0 31 16 43.5t34 12.5q17 0 33 -12.5t16 -43.5v-612q0 -31 -16 -43.5t-33 -12.5q-18 0 -34 12.5t-16 43.5v276h-359v-276q0 -31 -16 -43.5t-33 -12.5q-18 0 -34 12.5t-16 43.5v612q0 31 16 43.5t34 12.5q17 0 33 -12.5t16 -43.5v-248h359z" />
    <glyph glyph-name="I" unicode="I" horiz-adv-x="271" 
d="M185 660v-612q0 -31 -16 -43.5t-33 -12.5q-18 0 -34 12.5t-16 43.5v612q0 31 16 43.5t34 12.5q17 0 33 -12.5t16 -43.5z" />
    <glyph glyph-name="J" unicode="J" horiz-adv-x="495" 
d="M415 217q0 -32 -5 -62t-18.5 -62.5t-35 -56t-58 -39t-84.5 -15.5q-116 0 -173 88q-15 22 -15 42q0 19 13.5 32t33.5 13q28 0 45 -30q33 -57 91 -57q107 0 107 151v439q0 31 16 43.5t33 12.5q18 0 34 -12.5t16 -43.5v-443z" />
    <glyph glyph-name="K" unicode="K" horiz-adv-x="659" 
d="M609 84q20 -20 20 -43q0 -20 -14 -34.5t-36 -14.5q-23 0 -43 21l-349 353h-2v-318q0 -31 -16 -43.5t-33 -12.5q-18 0 -34 12.5t-16 43.5v612q0 31 16 43.5t34 12.5q17 0 33 -12.5t16 -43.5v-264h2l332 301q22 19 41 19q20 0 33.5 -12.5t13.5 -31.5q0 -24 -21 -42
l-288 -246z" />
    <glyph glyph-name="L" unicode="L" horiz-adv-x="511" 
d="M86 59v601q0 31 16 43.5t34 12.5q17 0 33 -12.5t16 -43.5v-572h275q28 0 38.5 -14t10.5 -30t-10.5 -30t-38.5 -14h-315q-59 0 -59 59z" />
    <glyph glyph-name="M" unicode="M" horiz-adv-x="903" 
d="M817 47q0 -31 -15.5 -43t-33.5 -12t-34 12t-16 43v461h-2l-207 -471q-19 -45 -59 -45t-60 45l-205 469h-3v-460q0 -30 -15.5 -42t-32.5 -12q-10 0 -20 3.5t-19 16.5t-9 34v602q0 38 20 53t42 15q44 0 69 -57l235 -540h2l234 540q25 57 68 57q22 0 41.5 -15t19.5 -53v-601
z" />
    <glyph glyph-name="N" unicode="N" horiz-adv-x="772" 
d="M549 43l-362 506h-2v-501q0 -31 -16 -43.5t-33 -12.5q-18 0 -34 12.5t-16 43.5v594q0 41 20 57.5t43 16.5q38 0 74 -51l362 -502h2v497q0 31 16 43.5t34 12.5q17 0 33 -12.5t16 -43.5v-594q0 -41 -20 -57.5t-43 -16.5q-38 0 -74 51z" />
    <glyph glyph-name="O" unicode="O" horiz-adv-x="849" 
d="M800 355q0 -163 -106.5 -268t-269.5 -105q-162 0 -268 105t-106 268q0 164 105.5 267.5t268.5 103.5t269.5 -103.5t106.5 -267.5zM692 355q0 120 -73.5 202t-194.5 82q-119 0 -193 -82t-74 -202q0 -121 74 -202.5t193 -81.5q120 0 194 81.5t74 202.5z" />
    <glyph glyph-name="P" unicode="P" horiz-adv-x="595" 
d="M185 624v-229h105q165 0 165 116q0 113 -163 113h-107zM145 708h157q119 0 186 -48.5t67 -148.5q0 -102 -70.5 -151t-187.5 -49h-112v-263q0 -31 -16 -43.5t-33 -12.5q-18 0 -34 12.5t-16 43.5v601q0 59 59 59z" />
    <glyph glyph-name="Q" unicode="Q" horiz-adv-x="848" 
d="M679 363q0 116 -72 196t-188 80q-115 0 -188.5 -79.5t-73.5 -196.5q0 -119 72 -197.5t189 -78.5q116 0 188.5 79t72.5 197zM785 363q0 -92 -39.5 -164t-106.5 -114v-2h157q26 0 36 -13.5t10 -27.5q0 -15 -10 -28.5t-36 -13.5h-378q-163 0 -265.5 99.5t-102.5 263.5
q0 159 105 261t264 102t262.5 -102t103.5 -261z" />
    <glyph glyph-name="R" unicode="R" horiz-adv-x="614" 
d="M185 624v-226h114q166 0 166 114q0 112 -159 112h-121zM477 19l-186 296h-106v-267q0 -31 -16 -43.5t-33 -12.5q-18 0 -34 12.5t-16 43.5v601q0 59 59 59h168q112 0 182 -47t70 -149q0 -76 -46.5 -125t-124.5 -62l166 -250q11 -17 11 -34q0 -21 -14 -35t-36 -14
q-27 0 -44 27z" />
    <glyph glyph-name="S" unicode="S" horiz-adv-x="569" 
d="M139 124q58 -57 133 -57q56 0 99 31.5t43 89.5q0 25 -10 45t-22 32t-39 24.5t-43.5 18.5t-53.5 17q-40 13 -67.5 25.5t-57 35t-44.5 57.5t-15 81q0 98 72.5 150t169.5 52q102 0 166 -54q22 -19 22 -40q0 -18 -13 -31t-32 -13q-18 0 -37 15q-50 40 -110 40
q-54 0 -96 -29.5t-42 -85.5q0 -28 10 -47.5t34 -34t43 -22t58 -20.5q39 -12 59.5 -19.5t53.5 -25.5t50.5 -37.5t31 -51.5t13.5 -73q0 -104 -71.5 -159.5t-173.5 -55.5q-120 0 -194 68q-21 19 -21 43q0 19 13.5 33t33.5 14t37 -16z" />
    <glyph glyph-name="T" unicode="T" horiz-adv-x="569" 
d="M49 708h471q28 0 38.5 -14t10.5 -30q0 -9 -3 -17.5t-14.5 -17t-31.5 -8.5h-186v-573q0 -31 -16 -43.5t-34 -12.5q-17 0 -33 12.5t-16 43.5v573h-186q-28 0 -38.5 14t-10.5 29q0 9 3 18t14.5 17.5t31.5 8.5z" />
    <glyph glyph-name="U" unicode="U" horiz-adv-x="712" 
d="M532 268v392q0 31 16 43.5t33 12.5q18 0 34 -12.5t16 -43.5v-398q0 -117 -71 -198.5t-204 -81.5q-132 0 -203.5 81.5t-71.5 198.5v398q0 31 16 43.5t34 12.5q17 0 33 -12.5t16 -43.5v-392q0 -83 42.5 -140t133.5 -57t133.5 57t42.5 140z" />
    <glyph glyph-name="V" unicode="V" horiz-adv-x="642" 
d="M622 637l-233 -589q-22 -56 -69 -56q-48 0 -69 56l-231 589q-7 18 -7 30q0 21 14.5 35t36.5 14q34 0 50 -41l207 -547h3l205 548q16 40 50 40q21 0 35.5 -13.5t14.5 -34.5q0 -15 -7 -31z" />
    <glyph glyph-name="W" unicode="W" horiz-adv-x="988" 
d="M967 643l-177 -592q-17 -59 -69 -59q-49 0 -68 59l-158 514h-2l-158 -514q-19 -59 -68 -59q-51 0 -68 59l-177 590q-4 15 -4 26q0 21 15 35t36 14q38 0 51 -46l150 -526h2l156 509q19 63 68 63q48 0 67 -63l155 -509h2l150 527q13 45 52 45q20 0 34.5 -13.5t14.5 -35.5
q0 -11 -4 -24z" />
    <glyph glyph-name="X" unicode="X" horiz-adv-x="668" 
d="M613 79q16 -23 16 -39q0 -21 -15 -35t-36 -14q-24 0 -45 28l-203 281l-201 -281q-20 -27 -45 -27q-21 0 -35 13.5t-14 34.5q0 16 16 39l218 296l-193 256q-15 20 -15 38q0 19 14.5 33t34.5 14q26 0 45 -26l179 -247l175 247q18 26 44 26q20 0 33 -13t13 -32
q0 -18 -13 -36l-192 -262z" />
    <glyph glyph-name="Y" unicode="Y" horiz-adv-x="624" 
d="M597 635l-236 -329v-258q0 -31 -16 -43.5t-33 -12.5q-18 0 -34 12.5t-16 43.5v258l-234 324q-14 20 -14 38q0 21 14.5 34.5t36.5 13.5q27 0 48 -31l201 -296l203 299q19 28 46 28q19 0 33 -12.5t14 -32.5q0 -18 -13 -36z" />
    <glyph glyph-name="Z" unicode="Z" horiz-adv-x="592" 
d="M518 0h-433q-34 0 -47 17t-13 36q0 23 27 59l380 509h-350q-27 0 -38 14t-11 29t11 29.5t38 14.5h421q32 0 45 -17t13 -36q0 -23 -25 -56l-383 -511h365q27 0 38 -14.5t11 -29.5t-11 -29.5t-38 -14.5z" />
    <glyph glyph-name="bracketleft" unicode="[" horiz-adv-x="315" 
d="M207 -156h-99q-49 0 -49 49v790q0 49 49 49h99q37 0 37 -33t-37 -33h-64v-756h64q37 0 37 -33t-37 -33z" />
    <glyph glyph-name="backslash" unicode="\" horiz-adv-x="380" 
d="M87 711l279 -681q6 -14 6 -24q0 -16 -10.5 -26t-25.5 -10q-25 0 -37 27l-279 681q-6 14 -6 24q0 16 10.5 26t25.5 10q25 0 37 -27z" />
    <glyph glyph-name="bracketright" unicode="]" horiz-adv-x="315" 
d="M208 -156h-100q-37 0 -37 33t37 33h64v756h-64q-37 0 -37 33t37 33h100q48 0 48 -49v-790q0 -49 -48 -49z" />
    <glyph glyph-name="asciicircum" unicode="^" horiz-adv-x="666" 
d="M381 683l185 -318q8 -15 8 -26q0 -16 -11 -27t-27 -11q-22 0 -37 26l-167 283l-165 -283q-15 -26 -37 -26q-16 0 -27 11t-11 27q0 11 8 26l185 318q20 33 48 33t48 -33z" />
    <glyph glyph-name="underscore" unicode="_" horiz-adv-x="500" 
d="M465 -138h-430q-20 0 -27.5 10.5t-7.5 21.5t7.5 21t27.5 10h430q20 0 27.5 -10t7.5 -21t-7.5 -21.5t-27.5 -10.5z" />
    <glyph glyph-name="grave" unicode="`" 
d="M74 703l75 -76q18 -18 18 -35q0 -14 -10 -25t-25 -11q-19 0 -36 17l-77 73q-21 19 -21 38q0 16 11 27t27 11q19 0 38 -19z" />
    <glyph glyph-name="a" unicode="a" horiz-adv-x="542" 
d="M376 226h-23q-211 0 -211 -90q0 -39 28 -56.5t69 -17.5q64 0 100.5 38.5t36.5 100.5v25zM380 40v28h-3q-53 -80 -159 -80q-30 0 -59 8t-55 24t-42 45.5t-16 68.5q0 41 19.5 71.5t49.5 47t76.5 26t88 12.5t96.5 3v13q0 51 -31.5 77.5t-85.5 26.5q-57 0 -112 -37
q-14 -10 -28 -10q-15 0 -25.5 10.5t-10.5 26.5q0 23 21 37q67 49 164 49q98 0 148 -51.5t50 -134.5v-261q0 -27 -13.5 -37.5t-28.5 -10.5q-16 0 -30 10.5t-14 37.5z" />
    <glyph glyph-name="b" unicode="b" horiz-adv-x="636" 
d="M489 238q0 71 -42 121t-116 50q-70 0 -115 -51t-45 -121t45 -120.5t115 -50.5q74 0 116 50.5t42 121.5zM83 42v670q0 29 15 40.5t32 11.5t32 -11.5t15 -40.5v-309h3q26 37 70 60.5t99 23.5q104 0 170.5 -71.5t66.5 -177.5q0 -107 -66 -179t-173 -72q-51 0 -97.5 23
t-73.5 65h-2v-33q0 -20 -9 -32t-18 -15t-18 -3q-10 0 -19 3t-18 15t-9 32z" />
    <glyph glyph-name="c" unicode="c" horiz-adv-x="494" 
d="M395 98q18 14 33 14q17 0 28 -11t11 -27q0 -23 -22 -41q-55 -46 -142 -46q-111 0 -182 69t-71 181q0 111 71.5 180.5t181.5 69.5q85 0 139 -44q24 -19 24 -41q0 -18 -12 -29.5t-30 -11.5q-15 0 -37 18q-35 29 -83 29q-71 0 -113 -50t-42 -121t41.5 -120.5t112.5 -49.5
q53 0 92 31z" />
    <glyph glyph-name="d" unicode="d" horiz-adv-x="635" 
d="M147 238q0 -71 41.5 -121.5t115.5 -50.5q70 0 115 50.5t45 120.5t-45 121t-115 51q-74 0 -115.5 -50t-41.5 -121zM552 42q0 -20 -9 -32t-18 -15t-18 -3q-10 0 -19 3t-18 15t-9 32v33h-2q-26 -42 -72.5 -65t-98.5 -23q-107 0 -173 72t-66 179t66.5 178t171.5 71
q55 0 98.5 -23.5t70.5 -60.5h2v309q0 29 15 40.5t32 11.5t32 -11.5t15 -40.5v-670z" />
    <glyph glyph-name="e" unicode="e" horiz-adv-x="573" 
d="M472 209h-326q2 -61 47 -102.5t107 -41.5q67 0 122 51q16 15 33 15t28.5 -10.5t11.5 -28.5t-15 -34q-69 -71 -180 -71q-109 0 -179.5 69t-70.5 180q0 110 70 180.5t175 70.5q91 0 151.5 -51.5t73.5 -147.5q2 -14 2 -31q0 -48 -50 -48zM146 279h282q-2 59 -36 96.5
t-97 37.5q-60 0 -102 -39t-47 -95z" />
    <glyph glyph-name="f" unicode="f" horiz-adv-x="310" 
d="M194 397v-353q0 -29 -15 -40.5t-32 -11.5t-32 11.5t-15 40.5v353h-59q-24 0 -33.5 12.5t-9.5 26.5q0 8 2.5 15.5t13 15t27.5 7.5h59v99q0 89 42 142t130 53q67 0 67 -43q0 -15 -11 -26.5t-34 -11.5h-15q-48 0 -66.5 -29.5t-18.5 -84.5v-99h76q24 0 33.5 -12t9.5 -26
q0 -8 -2.5 -16t-13 -15.5t-27.5 -7.5h-76z" />
    <glyph glyph-name="g" unicode="g" horiz-adv-x="632" 
d="M91 -174q-24 19 -24 41q0 18 12 31t32 13q17 0 36 -14q70 -55 144 -55q167 0 167 175v61h-2q-26 -39 -71 -60.5t-96 -21.5q-107 0 -173 70t-66 174q0 105 66 176t172 71q53 0 99 -23t72 -66h2v34q0 20 9 32t18 15t19 3q9 0 18 -3t18 -15t9 -32v-408q0 -54 -13.5 -99.5
t-43 -83.5t-82 -59.5t-123.5 -21.5q-117 0 -199 66zM147 242q0 -69 43 -118t114 -49q72 0 116.5 47.5t44.5 119.5q0 69 -45.5 118t-115.5 49q-72 0 -114.5 -48t-42.5 -119z" />
    <glyph glyph-name="h" unicode="h" horiz-adv-x="584" 
d="M412 44v218q0 145 -107 145q-56 0 -92 -43t-36 -113v-207q0 -29 -15 -40.5t-32 -11.5t-32 11.5t-15 40.5v668q0 29 15 40.5t32 11.5t32 -11.5t15 -40.5v-310h2q17 36 58.5 60.5t91.5 24.5q87 0 132 -54t45 -139v-250q0 -29 -15 -40.5t-32 -11.5t-32 11.5t-15 40.5z" />
    <glyph glyph-name="i" unicode="i" horiz-adv-x="259" 
d="M192 645q0 -25 -18.5 -42.5t-44.5 -17.5t-44 17.5t-18 42.5t18 43t44 18t44.5 -17.5t18.5 -43.5zM176 430v-386q0 -29 -15 -40.5t-32 -11.5t-32 11.5t-15 40.5v386q0 29 15 40.5t32 11.5t32 -11.5t15 -40.5z" />
    <glyph glyph-name="j" unicode="j" horiz-adv-x="260" 
d="M193 645q0 -25 -18.5 -42.5t-44.5 -17.5t-44.5 17.5t-18.5 42.5t18.5 43t44.5 18t44.5 -17.5t18.5 -43.5zM83 -61v491q0 29 15 40.5t32 11.5t32 -11.5t15 -40.5v-490q0 -180 -151 -180q-60 0 -60 43q0 17 10.5 27.5t29.5 10.5h12q37 0 51 25t14 73z" />
    <glyph glyph-name="k" unicode="k" horiz-adv-x="527" 
d="M407 14l-227 232h-3v-202q0 -29 -15 -40.5t-32 -11.5t-32 11.5t-15 40.5v668q0 29 15 40.5t32 11.5t32 -11.5t15 -40.5v-444h3l212 197q18 17 37 17t32 -12.5t13 -31.5q0 -20 -20 -38l-163 -141l188 -182q18 -18 18 -39q0 -20 -13.5 -33t-33.5 -13q-21 0 -43 22z" />
    <glyph glyph-name="l" unicode="l" horiz-adv-x="260" 
d="M83 44v668q0 29 15 40.5t32 11.5t32 -11.5t15 -40.5v-668q0 -29 -15 -40.5t-32 -11.5t-32 11.5t-15 40.5z" />
    <glyph glyph-name="m" unicode="m" horiz-adv-x="887" 
d="M81 44v388q0 20 8.5 32t17.5 15t19 3q9 0 18 -3t17.5 -15t8.5 -32v-36h3q19 40 59 65.5t92 25.5q106 0 147 -95q24 45 66.5 70t94.5 25q87 0 132 -54t45 -139v-250q0 -29 -15 -40.5t-32 -11.5t-32 11.5t-15 40.5v219q0 145 -105 145q-60 0 -90 -45t-30 -107v-212
q0 -29 -15 -40.5t-32 -11.5t-32 11.5t-15 40.5v238q0 126 -100 126q-52 0 -86.5 -43t-34.5 -113v-208q0 -29 -15 -40.5t-32 -11.5t-32 11.5t-15 40.5z" />
    <glyph glyph-name="n" unicode="n" horiz-adv-x="582" 
d="M170 432v-36h3q18 39 61 65t93 26q87 0 132 -54t45 -139v-250q0 -29 -15 -40.5t-32 -11.5t-32 11.5t-15 40.5v219q0 145 -108 145q-56 0 -91.5 -43t-35.5 -113v-208q0 -29 -15 -40.5t-32 -11.5t-32 11.5t-15 40.5v388q0 20 8.5 32t17.5 15t19 3q9 0 18 -3t17.5 -15
t8.5 -32z" />
    <glyph glyph-name="o" unicode="o" horiz-adv-x="610" 
d="M561 238q0 -109 -73.5 -180t-182.5 -71t-182 71t-73 180t72.5 179t182.5 70t183 -70t73 -179zM463 238q0 71 -42.5 121t-115.5 50t-115.5 -50t-42.5 -121t42.5 -121.5t115.5 -50.5t115.5 50.5t42.5 121.5z" />
    <glyph glyph-name="p" unicode="p" horiz-adv-x="634" 
d="M487 238q0 71 -42 121t-116 50q-70 0 -115 -51t-45 -121t45 -120.5t115 -50.5q74 0 116 50.5t42 121.5zM584 238q0 -107 -66 -179t-173 -72q-51 0 -96 22.5t-71 61.5h-3v-267q0 -29 -15 -40.5t-32 -11.5t-32 11.5t-15 40.5v627q0 29 14.5 40t31.5 11t31.5 -11t14.5 -40
v-31h3q24 39 69 63t102 24q104 0 170.5 -71.5t66.5 -177.5z" />
    <glyph glyph-name="q" unicode="q" horiz-adv-x="633" 
d="M147 238q0 -71 41.5 -121.5t115.5 -50.5q70 0 115 50.5t45 120.5t-45 121t-115 51q-74 0 -115.5 -50t-41.5 -121zM458 -196v267h-2q-26 -39 -71.5 -61.5t-96.5 -22.5q-107 0 -173 72t-66 179t66.5 178t171.5 71q56 0 101 -24t70 -63h3v31q0 29 14.5 40t30.5 11
q17 0 31.5 -11t14.5 -40v-627q0 -29 -15 -40.5t-32 -11.5t-32 11.5t-15 40.5z" />
    <glyph glyph-name="r" unicode="r" horiz-adv-x="362" 
d="M170 432v-38h3q18 41 55.5 67t82.5 26q55 0 55 -42q0 -45 -56 -45h-7q-57 0 -92.5 -41t-35.5 -116v-199q0 -29 -15 -40.5t-32 -11.5t-32 11.5t-15 40.5v388q0 20 8.5 32t17.5 15t19 3q9 0 18 -3t17.5 -15t8.5 -32z" />
    <glyph glyph-name="s" unicode="s" horiz-adv-x="444" 
d="M318 377q-39 36 -91 36q-36 0 -62 -15.5t-26 -46.5q0 -28 25 -43t83 -28q75 -17 117 -49t42 -91q0 -78 -54.5 -115.5t-134.5 -37.5q-95 0 -156 53q-20 18 -20 38q0 18 11.5 30t29.5 12q17 0 35 -15q48 -42 102 -42q40 0 67 16.5t27 52.5q0 31 -28.5 47t-95.5 32
q-29 7 -49 14.5t-42.5 22t-34.5 38.5t-12 56q0 72 52.5 108.5t126.5 36.5q84 0 137 -45q22 -18 22 -38q0 -17 -11.5 -29t-29.5 -12q-15 0 -30 14z" />
    <glyph glyph-name="t" unicode="t" horiz-adv-x="329" 
d="M293 3q-24 -11 -61 -11q-68 0 -103 37.5t-35 110.5v257h-55q-24 0 -34 12.5t-10 25.5q0 8 3 16t13.5 15.5t27.5 7.5h55v92q0 29 15 40.5t32 11.5q16 0 31 -11.5t15 -40.5v-92h91q24 0 33.5 -12.5t9.5 -26.5q0 -8 -2.5 -15.5t-13 -15t-27.5 -7.5h-91v-247q0 -79 57 -79
q9 0 21 3q11 3 17 3q17 0 27 -10.5t10 -26.5q0 -24 -26 -37z" />
    <glyph glyph-name="u" unicode="u" horiz-adv-x="582" 
d="M411 42v36h-3q-18 -39 -61 -65t-93 -26q-87 0 -132 54t-45 139v250q0 29 15 40.5t32 11.5t32 -11.5t15 -40.5v-219q0 -145 108 -145q56 0 91.5 43t35.5 113v208q0 29 15 40.5t32 11.5t32 -11.5t15 -40.5v-388q0 -20 -8.5 -32t-17.5 -15t-18 -3q-10 0 -19 3t-17.5 15
t-8.5 32z" />
    <glyph glyph-name="v" unicode="v" horiz-adv-x="504" 
d="M321 44q-22 -52 -69 -52t-69 52l-155 366q-6 14 -6 27q0 19 13.5 32t33.5 13q33 0 48 -38l135 -342h2l136 342q14 38 47 38q20 0 33 -12.5t13 -31.5q0 -12 -6 -26z" />
    <glyph glyph-name="w" unicode="w" horiz-adv-x="773" 
d="M619 43q-18 -51 -63 -51q-46 0 -63 51l-106 314h-2l-104 -314q-17 -51 -62 -51q-46 0 -64 51l-127 372q-4 12 -4 22q0 21 13.5 33t34.5 12q34 0 46 -40l102 -330h2l107 321q16 49 59 49t59 -49l107 -321h2l102 331q12 39 45 39q20 0 33.5 -12.5t13.5 -31.5q0 -11 -4 -23z
" />
    <glyph glyph-name="x" unicode="x" horiz-adv-x="511" 
d="M466 75q16 -18 16 -36q0 -20 -13.5 -33.5t-33.5 -13.5q-23 0 -42 25l-137 169l-142 -172q-17 -22 -40 -22q-19 0 -31.5 12t-12.5 31q0 17 16 37l150 177l-131 153q-16 17 -16 35q0 20 13.5 32.5t32.5 12.5q24 0 42 -24l119 -150l122 153q16 21 39 21q18 0 30.5 -12
t12.5 -30q0 -19 -14 -35l-132 -155z" />
    <glyph glyph-name="y" unicode="y" horiz-adv-x="504" 
d="M477 413l-213 -525q-28 -68 -64 -98t-100 -30q-29 0 -48 11.5t-19 32.5q0 15 10.5 27t28.5 12q3 0 11 -0.5t13 -0.5q29 0 49 16.5t37 62.5l30 79l-184 410q-6 13 -6 27q0 19 14 32t34 13q31 0 47 -37l143 -342h2l127 340q15 39 47 39q20 0 33.5 -12t13.5 -31
q0 -10 -6 -26z" />
    <glyph glyph-name="z" unicode="z" horiz-adv-x="462" 
d="M394 0h-318q-29 0 -40 15t-11 32q0 23 22 49l257 301h-223q-24 0 -34 12.5t-10 26.5q0 8 3 15.5t13.5 15t27.5 7.5h294q30 0 41 -15t11 -32q0 -23 -22 -49l-258 -299h247q25 0 34.5 -12.5t9.5 -26.5q0 -9 -2.5 -16.5t-13.5 -15.5t-28 -8z" />
    <glyph glyph-name="braceleft" unicode="{" horiz-adv-x="315" 
d="M-3 288q0 30 33 42q26 10 37.5 33.5t11.5 67.5v166q0 135 131 135h22q23 0 32 -11t9 -24q0 -12 -8 -23t-30 -11h-16q-32 0 -44 -19.5t-12 -57.5v-166q0 -110 -93 -131v-2q93 -21 93 -131v-166q0 -38 12 -57.5t44 -19.5h16q22 0 30 -11t8 -23q0 -13 -9 -24t-32 -11h-22
q-131 0 -131 135v166q0 44 -11.5 67.5t-37.5 33.5q-33 12 -33 42z" />
    <glyph glyph-name="bar" unicode="|" horiz-adv-x="222" 
d="M70 -213v926q0 25 13 35t28 10q14 0 27.5 -10t13.5 -35v-926q0 -25 -13.5 -35t-27.5 -10q-15 0 -28 10t-13 35z" />
    <glyph glyph-name="braceright" unicode="}" horiz-adv-x="315" 
d="M318 288q0 -30 -33 -42q-26 -10 -37.5 -33.5t-11.5 -67.5v-166q0 -135 -131 -135h-22q-23 0 -32 11t-9 24q0 12 8 23t30 11h16q32 0 44 19.5t12 57.5v166q0 110 93 131v2q-93 21 -93 131v166q0 38 -12 57.5t-44 19.5h-16q-22 0 -30 11t-8 23q0 13 9 24t32 11h22
q131 0 131 -135v-166q0 -44 11.5 -67.5t37.5 -33.5q33 -12 33 -42z" />
    <glyph glyph-name="asciitilde" unicode="~" horiz-adv-x="666" 
d="M436 307q40 0 70 41q16 22 35 22q16 0 26.5 -10t10.5 -26q0 -15 -12 -34q-50 -76 -126 -76q-54 0 -114 37q-64 39 -96 39q-42 0 -69 -42q-17 -22 -35 -22q-16 0 -26.5 10.5t-10.5 25.5q0 17 12 34q51 77 126 77q54 0 112 -37q62 -39 97 -39z" />
    <glyph glyph-name="uni00A0" unicode="&#xa0;" 
 />
    <glyph glyph-name="exclamdown" unicode="&#xa1;" horiz-adv-x="334" 
d="M217 232v-405q0 -32 -16 -44t-34 -12q-10 0 -20 3.5t-19.5 17t-9.5 35.5v405q0 22 9.5 35.5t19.5 17t20 3.5q18 0 34 -12t16 -44zM100 427q0 27 19.5 46.5t47.5 19.5t47.5 -19.5t19.5 -45.5q0 -27 -19.5 -46.5t-47.5 -19.5t-47.5 19t-19.5 46z" />
    <glyph glyph-name="cent" unicode="&#xa2;" horiz-adv-x="595" 
d="M299 71v332q-58 -11 -90.5 -56.5t-32.5 -109.5q0 -63 33 -108.5t90 -57.5zM350 -58q0 -28 -25 -28q-26 0 -26 28v47q-99 10 -157.5 79t-58.5 170t58 168t158 79v44q0 16 8.5 22.5t17.5 6.5t17 -6.5t8 -22.5v-43q75 -3 127 -43q24 -19 24 -41q0 -17 -11.5 -29.5
t-29.5 -12.5q-15 0 -38 18q-33 25 -72 26v-334q43 1 79 31q17 13 32 13q18 0 29.5 -11.5t11.5 -28.5q0 -22 -23 -40q-51 -41 -129 -46v-46z" />
    <glyph glyph-name="sterling" unicode="&#xa3;" horiz-adv-x="595" 
d="M477 621q-34 24 -80 24q-38 0 -65 -16t-40 -43t-18.5 -53t-5.5 -54v-82h134q22 0 31 -11.5t9 -24.5q0 -8 -2.5 -15t-12 -14t-25.5 -7h-134v-241h225q18 0 29.5 -8.5t14 -16.5t2.5 -17t-2.5 -17t-14 -16.5t-29.5 -8.5h-384q-26 0 -36.5 13.5t-10.5 28.5q0 9 3 17
t14.5 16.5t29.5 8.5h61v241h-65q-22 0 -31 11.5t-9 24.5q0 7 2.5 14.5t12 14.5t25.5 7h65v88q0 34 7 66.5t24 64.5t42.5 56t65.5 39t90 15q73 0 122 -32q29 -19 29 -43q0 -16 -11.5 -28.5t-29.5 -12.5q-16 0 -32 11z" />
    <glyph glyph-name="currency" unicode="&#xa4;" horiz-adv-x="890" 
d="M446 478q-72 0 -117.5 -49t-45.5 -120q0 -72 45.5 -121.5t117.5 -49.5q73 0 118 49.5t45 121.5q0 71 -45.5 120t-117.5 49zM668 25l-68 68q-66 -47 -154 -47q-86 0 -154 49l-68 -68q-16 -15 -32 -15q-18 0 -29.5 11.5t-11.5 28.5t16 33l66 66q-49 65 -49 158q0 89 47 153
l-65 65q-16 15 -16 33q0 17 11.5 28.5t28.5 11.5t32 -15l66 -66q67 50 158 50q93 0 157 -49l65 66q15 15 32 15t28.5 -11.5t11.5 -28.5q0 -18 -16 -34l-62 -62q48 -67 48 -156q0 -92 -51 -161l65 -65q16 -16 16 -33t-11.5 -28.5t-29.5 -11.5q-16 0 -31 15z" />
    <glyph glyph-name="yen" unicode="&#xa5;" horiz-adv-x="595" 
d="M551 640l-177 -255h113q20 0 28.5 -10.5t8.5 -22.5q0 -7 -2.5 -13.5t-11.5 -13t-23 -6.5h-142v-91h142q20 0 28.5 -10.5t8.5 -22.5q0 -7 -2.5 -13.5t-11.5 -13t-23 -6.5h-142v-118q0 -29 -15 -40.5t-32 -11.5t-32.5 11.5t-15.5 40.5v118h-142q-20 0 -28 10.5t-8 22.5
t8 22.5t28 10.5h142v91h-142q-20 0 -28 10.5t-8 22.5t8 22.5t28 10.5h117l-178 252q-12 19 -12 33q0 20 13.5 33t33.5 13q25 0 43 -26l177 -275l174 276q15 25 41 25q19 0 32.5 -12.5t13.5 -30.5q0 -15 -12 -33z" />
    <glyph glyph-name="brokenbar" unicode="&#xa6;" horiz-adv-x="222" 
d="M70 362v276q0 25 13 35t28 10q14 0 27.5 -10t13.5 -35v-276q0 -25 -13.5 -35t-27.5 -10q-15 0 -28 10t-13 35zM70 -138v276q0 25 13 35t28 10q14 0 27.5 -10t13.5 -35v-276q0 -25 -13.5 -35t-27.5 -10q-15 0 -28 10t-13 35z" />
    <glyph glyph-name="section" unicode="&#xa7;" horiz-adv-x="595" 
d="M491 33q0 -83 -60 -127.5t-143 -44.5q-117 0 -179 71q-17 19 -17 38q0 20 13 32.5t32 12.5q21 0 39 -21q42 -51 112 -51q40 0 72.5 20.5t32.5 63.5q0 40 -29 61.5t-115 58.5q-40 18 -62 29.5t-47 30.5t-36 44t-11 57q0 49 28 85t72 54q-69 44 -69 117q0 77 58 119.5
t137 42.5q105 0 155 -58q14 -17 14 -33q0 -18 -12 -30t-31 -12q-18 0 -37 18q-40 37 -88 37q-41 0 -70 -20.5t-29 -57.5q0 -38 29.5 -62t98.5 -52q82 -34 124 -72t42 -101q0 -43 -24 -78.5t-61 -51.5q61 -41 61 -120zM334 369l-75 33q-74 -20 -74 -80q0 -35 23.5 -54.5
t71.5 -39.5l84 -36q24 8 41.5 29t17.5 49q0 20 -7 35.5t-21.5 27.5t-27 19t-33.5 17z" />
    <glyph glyph-name="dieresis" unicode="&#xa8;" 
d="M-34 645q0 25 18 43t44 18t44 -17.5t18 -43.5q0 -25 -18 -42.5t-44 -17.5t-44 18t-18 42zM160 645q0 25 18 43t44 18t44 -17.5t18 -43.5q0 -25 -18 -42.5t-44 -17.5t-44 18t-18 42z" />
    <glyph glyph-name="copyright" unicode="&#xa9;" horiz-adv-x="800" 
d="M20 353q0 157 111.5 267t269.5 110q157 0 268 -110t111 -267q0 -156 -111 -265.5t-268 -109.5q-158 0 -269.5 109.5t-111.5 265.5zM80 353q0 -132 94 -225.5t227 -93.5q132 0 225.5 93.5t93.5 225.5q0 133 -93.5 227t-225.5 94q-133 0 -227 -94t-94 -227zM550 184
q-55 -50 -136 -50q-98 0 -163 62t-65 163q0 100 65 162t163 62q80 0 131 -44q18 -14 18 -34q0 -17 -11 -27.5t-27 -10.5t-33 13q-34 28 -77 28q-64 0 -102.5 -43.5t-38.5 -104.5q0 -62 39 -106t105 -44q45 0 79 29q17 14 32 14q16 0 26.5 -10t10.5 -26q0 -18 -16 -33z" />
    <glyph glyph-name="ordfeminine" unicode="&#xaa;" horiz-adv-x="380" 
d="M246 608v7q0 25 -18 38.5t-47 13.5q-33 0 -62 -19q-10 -7 -20 -7q-11 0 -19 7.5t-8 18.5q0 17 17 28q41 28 98 28q66 0 96.5 -33t30.5 -87v-144q0 -36 -34 -36q-7 0 -13.5 2t-13 11t-6.5 23v9h-1q-26 -44 -89 -44q-41 0 -73.5 21t-32.5 67q0 96 195 96zM246 550v10h-16
q-108 0 -108 -47q0 -36 50 -36q36 0 55 19.5t19 53.5z" />
    <glyph glyph-name="guillemotleft" unicode="&#xab;" horiz-adv-x="500" 
d="M166 58l-105 154q-12 18 -12 32t12 32l105 155q14 21 34 21q15 0 26 -10.5t11 -26.5q0 -14 -9 -27l-95 -144l95 -144q9 -14 9 -27q0 -16 -11 -26.5t-26 -10.5q-20 0 -34 22zM368 58l-105 154q-12 18 -12 32t12 32l105 155q14 21 34 21q15 0 26 -10.5t11 -26.5
q0 -14 -9 -27l-95 -144l95 -144q9 -14 9 -27q0 -16 -11 -26.5t-26 -10.5q-20 0 -34 22z" />
    <glyph glyph-name="logicalnot" unicode="&#xac;" horiz-adv-x="666" 
d="M596 378v-202q0 -26 -13 -35.5t-28 -9.5t-27.5 9.5t-12.5 35.5v169h-408q-26 0 -35.5 13t-9.5 28t9.5 27.5t35.5 12.5h441q48 0 48 -48z" />
    <glyph glyph-name="uni00AD" unicode="&#xad;" horiz-adv-x="320" 
d="M239 204h-158q-25 0 -35 13t-10 28q0 14 10 26.5t35 12.5h158q25 0 35 -12.5t10 -26.5q0 -15 -10 -28t-35 -13z" />
    <glyph glyph-name="registered" unicode="&#xae;" horiz-adv-x="600" 
d="M72 493q0 94 67 160.5t162 66.5q94 0 160.5 -66.5t66.5 -160.5q0 -93 -66.5 -158.5t-160.5 -65.5q-95 0 -162 65.5t-67 158.5zM108 493q0 -79 56.5 -135t136.5 -56q79 0 135 56t56 135q0 80 -56 136.5t-135 56.5q-80 0 -136.5 -56.5t-56.5 -136.5zM264 511h47q17 0 27 9
t10 24q0 14 -10.5 22t-26.5 8h-47v-63zM359 476l49 -69q8 -11 8 -20q0 -12 -8 -20t-20 -8q-16 0 -27 17l-61 91h-36v-73q0 -18 -10 -26t-20 -8q-11 0 -21 7.5t-10 26.5v196q0 34 34 34h76q41 0 69 -19t28 -61q0 -50 -51 -68z" />
    <glyph glyph-name="macron" unicode="&#xaf;" 
d="M240 596h-230q-21 0 -29.5 11.5t-8.5 23.5t8.5 23t29.5 11h230q21 0 29.5 -11t8.5 -23t-8.5 -23.5t-29.5 -11.5z" />
    <glyph glyph-name="degree" unicode="&#xb0;" horiz-adv-x="400" 
d="M355 565q0 -65 -45 -109.5t-110 -44.5t-110 44.5t-45 109.5t45 110t110 45t110 -45t45 -110zM291 565q0 38 -26.5 65t-64.5 27t-64.5 -27t-26.5 -65q0 -37 26.5 -64t64.5 -27t64.5 27t26.5 64z" />
    <glyph glyph-name="plusminus" unicode="&#xb1;" horiz-adv-x="666" 
d="M550 40h-434q-25 0 -35 13t-10 28q0 14 10 27t35 13h434q25 0 35 -13t10 -27q0 -15 -10 -28t-35 -13zM293 338h-177q-25 0 -35 13t-10 28q0 14 10 27t35 13h177v113q0 25 13 35t27 10q15 0 28 -10t13 -35v-113h176q25 0 35 -13t10 -27q0 -15 -10 -28t-35 -13h-176v-110
q0 -25 -13 -35t-28 -10q-14 0 -27 10t-13 35v110z" />
    <glyph glyph-name="twosuperior" unicode="&#xb2;" horiz-adv-x="385" 
d="M304 286h-218q-25 0 -34.5 12t-9.5 25q0 21 24 45l148 150q40 42 40 78q0 25 -17 40t-43 15q-42 0 -62 -45q-13 -26 -36 -26q-15 0 -25.5 9.5t-10.5 24.5q0 14 7 28q18 36 51.5 56.5t75.5 20.5q58 0 98 -32t40 -91q0 -38 -18 -67t-52 -62l-113 -112h155q21 0 29 -11
t8 -23q0 -7 -2 -14t-11 -14t-24 -7z" />
    <glyph glyph-name="threesuperior" unicode="&#xb3;" horiz-adv-x="385" 
d="M122 383q25 -36 67 -36q30 0 51.5 16.5t21.5 48.5q0 63 -90 63q-20 0 -28.5 10.5t-8.5 21.5q0 6 2.5 12.5t11.5 13t23 6.5q78 0 78 62q0 23 -18 38t-43 15q-33 0 -58 -33q-11 -16 -30 -16q-15 0 -24.5 9t-9.5 24q0 14 12 29q42 53 112 53q59 0 97 -30t38 -86
q0 -64 -61 -93q33 -11 52.5 -38t19.5 -63q0 -62 -43 -96t-103 -34q-86 0 -127 60q-11 15 -11 31q0 14 10.5 24t24.5 10q20 0 34 -22z" />
    <glyph glyph-name="acute" unicode="&#xb4;" 
d="M101 627l75 76q19 19 38 19q16 0 27 -11t11 -27q0 -19 -21 -38l-77 -73q-17 -17 -36 -17q-15 0 -25 11t-10 25q0 17 18 35z" />
    <glyph glyph-name="mu" unicode="&#xb5;" horiz-adv-x="578" 
d="M498 430v-388q0 -20 -8.5 -32t-17.5 -15t-18 -3q-10 0 -19 3t-17.5 15t-8.5 32v36h-2q-20 -40 -62 -65.5t-93 -25.5t-83 30v-213q0 -29 -15 -40.5t-32 -11.5t-32 11.5t-15 40.5v626q0 29 15 40.5t32 11.5t32 -11.5t15 -40.5v-219q0 -145 108 -145q56 0 91.5 43t35.5 113
v208q0 29 15 40.5t32 11.5t32 -11.5t15 -40.5z" />
    <glyph glyph-name="paragraph" unicode="&#xb6;" horiz-adv-x="600" 
d="M251 -90v417q-93 0 -152.5 52.5t-59.5 131.5q0 97 61.5 147t169.5 50h206q47 0 47 -47v-751q0 -25 -12.5 -34.5t-26.5 -9.5q-8 0 -16 2.5t-15.5 13.5t-7.5 28v735h-115v-735q0 -25 -12.5 -34.5t-26.5 -9.5q-40 0 -40 44z" />
    <glyph glyph-name="periodcentered" unicode="&#xb7;" horiz-adv-x="260" 
d="M198 303q0 -27 -19.5 -46.5t-47.5 -19.5t-48 19.5t-20 45.5q0 27 19.5 47t48.5 20q28 0 47.5 -19.5t19.5 -46.5z" />
    <glyph glyph-name="cedilla" unicode="&#xb8;" 
d="M40 -169q8 0 23 -5q22 -7 49 -7q58 0 58 36q0 35 -44 35q-10 0 -22 -2q-15 -3 -21 -3q-24 0 -24 21q0 8 8 21l52 80h59l-50 -74q16 2 27 2q36 0 61.5 -19.5t25.5 -59.5q0 -47 -37.5 -69t-89.5 -22q-40 0 -76 12q-25 9 -25 28q0 10 7.5 18t18.5 8z" />
    <glyph glyph-name="onesuperior" unicode="&#xb9;" horiz-adv-x="385" 
d="M82 628l88 73q17 15 35 15q9 0 17 -3t16.5 -14t8.5 -30v-351q0 -25 -12 -34.5t-26 -9.5q-9 0 -16.5 2.5t-15.5 13.5t-8 28v296l-45 -40q-13 -10 -26 -10q-14 0 -23.5 9.5t-9.5 23.5q0 16 17 31z" />
    <glyph glyph-name="ordmasculine" unicode="&#xba;" horiz-adv-x="380" 
d="M342 574q0 -64 -43 -106t-109 -42t-109 42t-43 106q0 65 43 106.5t109 41.5t109 -41.5t43 -106.5zM267 574q0 35 -20.5 58.5t-56.5 23.5t-56 -23.5t-20 -58.5q0 -34 20 -58t56 -24t56.5 24t20.5 58z" />
    <glyph glyph-name="guillemotright" unicode="&#xbb;" horiz-adv-x="500" 
d="M334 430l105 -154q12 -18 12 -32t-12 -32l-105 -155q-14 -21 -34 -21q-15 0 -26 10.5t-11 26.5q0 13 9 27l95 144l-95 144q-9 13 -9 27q0 16 11 26.5t26 10.5q20 0 34 -22zM132 430l105 -154q12 -18 12 -32t-12 -32l-105 -155q-14 -21 -34 -21q-15 0 -26 10.5t-11 26.5
q0 13 9 27l95 144l-95 144q-9 13 -9 27q0 16 11 26.5t26 10.5q20 0 34 -22z" />
    <glyph glyph-name="onequarter" unicode="&#xbc;" horiz-adv-x="871" 
d="M675 158v165h-2l-109 -165h111zM492 164l163 241q20 29 46 29q9 0 18 -3t18 -15t9 -32v-226h30q37 0 37 -34q0 -7 -2 -13.5t-11 -13t-24 -6.5h-30v-59q0 -22 -11.5 -31t-23.5 -9q-8 0 -15 2.5t-14 12t-7 25.5v59h-154q-24 0 -33.5 12t-9.5 26q0 15 14 35zM82 628l88 73
q17 15 35 15q9 0 17 -3t16.5 -14t8.5 -30v-351q0 -25 -12 -34.5t-26 -9.5q-9 0 -16.5 2.5t-15.5 13.5t-8 28v296l-45 -40q-13 -10 -26 -10q-14 0 -23.5 9.5t-9.5 23.5q0 16 17 31zM194 33l398 678q13 23 34 23q15 0 26 -9.5t11 -25.5q0 -10 -7 -23l-398 -678
q-13 -23 -34 -23q-15 0 -26 9.5t-11 25.5q0 10 7 23z" />
    <glyph glyph-name="onehalf" unicode="&#xbd;" horiz-adv-x="871" 
d="M82 628l88 73q17 15 35 15q9 0 17 -3t16.5 -14t8.5 -30v-351q0 -25 -12 -34.5t-26 -9.5q-9 0 -16.5 2.5t-15.5 13.5t-8 28v296l-45 -40q-13 -10 -26 -10q-14 0 -23.5 9.5t-9.5 23.5q0 16 17 31zM194 33l398 678q13 23 34 23q15 0 26 -9.5t11 -25.5q0 -10 -7 -23
l-398 -678q-13 -23 -34 -23q-15 0 -26 9.5t-11 25.5q0 10 7 23zM782 0h-218q-25 0 -34.5 12t-9.5 25q0 21 24 45l148 150q40 42 40 78q0 25 -17 40t-43 15q-42 0 -62 -45q-13 -26 -36 -26q-15 0 -25.5 9.5t-10.5 24.5q0 14 7 28q18 36 51.5 56.5t75.5 20.5q58 0 98 -32
t40 -91q0 -38 -18 -67t-52 -62l-113 -112h155q21 0 29 -11t8 -23q0 -7 -2 -14t-11 -14t-24 -7z" />
    <glyph glyph-name="threequarters" unicode="&#xbe;" horiz-adv-x="871" 
d="M675 158v165h-2l-109 -165h111zM492 164l163 241q20 29 46 29q9 0 18 -3t18 -15t9 -32v-226h30q37 0 37 -34q0 -7 -2 -13.5t-11 -13t-24 -6.5h-30v-59q0 -22 -11.5 -31t-23.5 -9q-8 0 -15 2.5t-14 12t-7 25.5v59h-154q-24 0 -33.5 12t-9.5 26q0 15 14 35zM122 383
q25 -36 67 -36q30 0 51.5 16.5t21.5 48.5q0 63 -90 63q-20 0 -28.5 10.5t-8.5 21.5q0 6 2.5 12.5t11.5 13t23 6.5q78 0 78 62q0 23 -18 38t-43 15q-33 0 -58 -33q-11 -16 -30 -16q-15 0 -24.5 9t-9.5 24q0 14 12 29q42 53 112 53q59 0 97 -30t38 -86q0 -64 -61 -93
q33 -11 52.5 -38t19.5 -63q0 -62 -43 -96t-103 -34q-84 0 -127 60q-11 15 -11 31q0 14 10.5 24t24.5 10q20 0 34 -22zM194 33l398 678q13 23 34 23q15 0 26 -9.5t11 -25.5q0 -10 -7 -23l-398 -678q-13 -23 -34 -23q-15 0 -26 9.5t-11 25.5q0 10 7 23z" />
    <glyph glyph-name="questiondown" unicode="&#xbf;" horiz-adv-x="501" 
d="M180 427q0 27 19.5 46.5t47.5 19.5t47.5 -19.5t19.5 -45.5q0 -27 -19.5 -46.5t-47.5 -19.5t-47.5 19t-19.5 46zM205 241q0 30 15 41.5t32 11.5q10 0 19.5 -3t18.5 -16t9 -34q0 -51 -17 -84t-56 -68l-37 -35q-17 -16 -26 -27t-17 -30t-8 -42q0 -48 30.5 -76.5t78.5 -28.5
q80 0 109 79q14 35 45 35q20 0 33 -12.5t13 -33.5q0 -18 -8 -34q-26 -57 -78 -88.5t-120 -31.5q-87 0 -145 49t-58 136q0 58 22.5 93t73.5 78q26 22 37.5 33.5t22.5 35t11 52.5z" />
    <glyph glyph-name="Agrave" unicode="&#xc0;" horiz-adv-x="711" 
d="M590 30l-61 144h-350l-61 -145q-16 -37 -48 -37q-21 0 -36 13t-15 35q0 13 8 30l266 596q22 50 64 50q41 0 64 -50l263 -594q7 -16 7 -30q0 -22 -15 -36t-36 -14q-34 0 -50 38zM355 590l-139 -329h277zM293 903l75 -76q18 -18 18 -35q0 -14 -10 -25t-25 -11q-19 0 -36 17
l-77 73q-21 19 -21 38q0 16 10.5 27t27.5 11q19 0 38 -19z" />
    <glyph glyph-name="Aacute" unicode="&#xc1;" horiz-adv-x="711" 
d="M590 30l-61 144h-350l-61 -145q-16 -37 -48 -37q-21 0 -36 13t-15 35q0 13 8 30l266 596q22 50 64 50q41 0 64 -50l263 -594q7 -16 7 -30q0 -22 -15 -36t-36 -14q-34 0 -50 38zM355 590l-139 -329h277zM346 827l75 76q19 19 38 19q17 0 27.5 -11t10.5 -27q0 -19 -21 -38
l-77 -73q-17 -17 -36 -17q-15 0 -25 11t-10 25q0 17 18 35z" />
    <glyph glyph-name="Acircumflex" unicode="&#xc2;" horiz-adv-x="711" 
d="M590 30l-61 144h-350l-61 -145q-16 -37 -48 -37q-21 0 -36 13t-15 35q0 13 8 30l266 596q22 50 64 50q41 0 64 -50l263 -594q7 -16 7 -30q0 -22 -15 -36t-36 -14q-34 0 -50 38zM355 590l-139 -329h277zM356 851l-86 -81q-15 -14 -29 -14q-13 0 -22.5 9t-9.5 23
q0 15 14 28l81 80q26 26 51 26q24 0 51 -26l81 -79q14 -14 14 -29q0 -13 -9.5 -22.5t-23.5 -9.5q-15 0 -29 14z" />
    <glyph glyph-name="Atilde" unicode="&#xc3;" horiz-adv-x="711" 
d="M590 30l-61 144h-350l-61 -145q-16 -37 -48 -37q-21 0 -36 13t-15 35q0 13 8 30l266 596q22 50 64 50q41 0 64 -50l263 -594q7 -16 7 -30q0 -22 -15 -36t-36 -14q-34 0 -50 38zM355 590l-139 -329h277zM425 776q-31 0 -75 23q-42 21 -62 21q-24 0 -38 -31
q-10 -23 -30 -23q-31 0 -31 31q0 11 5 23q26 68 93 68q27 0 75 -23q44 -21 62 -21q24 0 38 31q10 23 30 23q30 0 30 -30q0 -12 -5 -24q-26 -68 -92 -68z" />
    <glyph glyph-name="Adieresis" unicode="&#xc4;" horiz-adv-x="711" 
d="M590 30l-61 144h-350l-61 -145q-16 -37 -48 -37q-21 0 -36 13t-15 35q0 13 8 30l266 596q22 50 64 50q41 0 64 -50l263 -594q7 -16 7 -30q0 -22 -15 -36t-36 -14q-34 0 -50 38zM355 590l-139 -329h277zM198 845q0 25 18 43t44 18t44 -17.5t18 -43.5q0 -25 -18 -42.5
t-44 -17.5t-44 18t-18 42zM392 845q0 25 18 43t44 18t44 -17.5t18 -43.5q0 -25 -18 -42.5t-44 -17.5t-44 18t-18 42z" />
    <glyph glyph-name="Aring" unicode="&#xc5;" horiz-adv-x="711" 
d="M590 30l-61 144h-350l-61 -145q-16 -37 -48 -37q-21 0 -36 13t-15 35q0 13 8 30l266 596q22 50 64 50q41 0 64 -50l263 -594q7 -16 7 -30q0 -22 -15 -36t-36 -14q-34 0 -50 38zM355 590l-139 -329h277zM456 853q0 -42 -29.5 -70.5t-71.5 -28.5t-71 28t-29 70t29 70.5
t71 28.5t71.5 -28t29.5 -70zM415 853q0 25 -17.5 41.5t-42.5 16.5t-42 -17t-17 -42q0 -24 17 -40.5t42 -16.5t42.5 16.5t17.5 41.5z" />
    <glyph glyph-name="AE" unicode="&#xc6;" horiz-adv-x="1015" 
d="M524 192h-295l-111 -170q-19 -30 -46 -30q-20 0 -34.5 13.5t-14.5 33.5q0 18 11 35l404 602q21 32 59 32h416q28 0 38.5 -14t10.5 -30q0 -9 -3 -17.5t-14.5 -17t-31.5 -8.5h-290v-212h270q27 0 37.5 -13.5t10.5 -28.5q0 -9 -3 -17.5t-14.5 -17t-30.5 -8.5h-270v-236h306
q28 0 38 -14t10 -30t-10 -30t-38 -14h-346q-59 0 -59 59v133zM510 621l-225 -343h239v343h-14z" />
    <glyph glyph-name="Ccedilla" unicode="&#xc7;" horiz-adv-x="708" 
d="M322 -169q8 0 23 -5q22 -7 49 -7q58 0 58 36q0 35 -44 35q-10 0 -22 -2q-15 -3 -21 -3q-24 0 -24 21q0 8 8 21l36 57q-148 12 -241.5 115t-93.5 256q0 164 107 267.5t270 103.5q63 0 120.5 -19.5t95.5 -54.5q20 -19 20 -40q0 -20 -13 -33.5t-34 -13.5q-20 0 -42 20
q-60 54 -147 54q-120 0 -194.5 -82t-74.5 -202q0 -122 73 -203.5t193 -81.5q103 0 169 69q20 20 40 20q19 0 31.5 -12t12.5 -32q0 -23 -19 -42q-81 -84 -215 -90l-33 -50q16 2 27 2q36 0 61.5 -19.5t25.5 -59.5q0 -47 -37.5 -69t-89.5 -22q-40 0 -76 12q-25 9 -25 28
q0 10 7.5 18t18.5 8z" />
    <glyph glyph-name="Egrave" unicode="&#xc8;" horiz-adv-x="601" 
d="M479 324h-294v-236h330q28 0 38 -14t10 -30t-10 -30t-38 -14h-370q-59 0 -59 59v590q0 59 59 59h354q28 0 38.5 -14t10.5 -30q0 -9 -3 -17.5t-14.5 -17t-31.5 -8.5h-314v-212h294q27 0 37.5 -13.5t10.5 -28.5q0 -9 -3 -17.5t-14.5 -17t-30.5 -8.5zM284 903l75 -76
q18 -18 18 -35q0 -14 -10 -25t-25 -11q-19 0 -36 17l-77 73q-21 19 -21 38q0 16 11 27t27 11q19 0 38 -19z" />
    <glyph glyph-name="Eacute" unicode="&#xc9;" horiz-adv-x="601" 
d="M479 324h-294v-236h330q28 0 38 -14t10 -30t-10 -30t-38 -14h-370q-59 0 -59 59v590q0 59 59 59h354q28 0 38.5 -14t10.5 -30q0 -9 -3 -17.5t-14.5 -17t-31.5 -8.5h-314v-212h294q27 0 37.5 -13.5t10.5 -28.5q0 -9 -3 -17.5t-14.5 -17t-30.5 -8.5zM292 827l75 76
q19 19 38 19q17 0 27.5 -11t10.5 -27q0 -19 -21 -38l-77 -73q-17 -17 -36 -17q-15 0 -25 11t-10 25q0 17 18 35z" />
    <glyph glyph-name="Ecircumflex" unicode="&#xca;" horiz-adv-x="601" 
d="M479 324h-294v-236h330q28 0 38 -14t10 -30t-10 -30t-38 -14h-370q-59 0 -59 59v590q0 59 59 59h354q28 0 38.5 -14t10.5 -30q0 -9 -3 -17.5t-14.5 -17t-31.5 -8.5h-314v-212h294q27 0 37.5 -13.5t10.5 -28.5q0 -9 -3 -17.5t-14.5 -17t-30.5 -8.5zM322 851l-86 -81
q-15 -14 -29 -14q-13 0 -22.5 9t-9.5 23q0 15 14 28l81 80q26 26 51 26q24 0 51 -26l81 -79q14 -14 14 -29q0 -13 -9.5 -22.5t-23.5 -9.5q-15 0 -29 14z" />
    <glyph glyph-name="Edieresis" unicode="&#xcb;" horiz-adv-x="601" 
d="M479 324h-294v-236h330q28 0 38 -14t10 -30t-10 -30t-38 -14h-370q-59 0 -59 59v590q0 59 59 59h354q28 0 38.5 -14t10.5 -30q0 -9 -3 -17.5t-14.5 -17t-31.5 -8.5h-314v-212h294q27 0 37.5 -13.5t10.5 -28.5q0 -9 -3 -17.5t-14.5 -17t-30.5 -8.5zM162 845q0 25 18 43
t44 18t44 -17.5t18 -43.5q0 -25 -18 -42.5t-44 -17.5t-44 18t-18 42zM356 845q0 25 18 43t44 18t44 -17.5t18 -43.5q0 -25 -18 -42.5t-44 -17.5t-44 18t-18 42z" />
    <glyph glyph-name="Igrave" unicode="&#xcc;" horiz-adv-x="271" 
d="M185 660v-612q0 -31 -16 -43.5t-33 -12.5q-18 0 -34 12.5t-16 43.5v612q0 31 16 43.5t34 12.5q17 0 33 -12.5t16 -43.5zM77 903l75 -76q18 -18 18 -35q0 -14 -10 -25t-25 -11q-19 0 -36 17l-77 73q-21 19 -21 38q0 16 10.5 27t27.5 11q19 0 38 -19z" />
    <glyph glyph-name="Iacute" unicode="&#xcd;" horiz-adv-x="271" 
d="M185 660v-612q0 -31 -16 -43.5t-33 -12.5q-18 0 -34 12.5t-16 43.5v612q0 31 16 43.5t34 12.5q17 0 33 -12.5t16 -43.5zM118 827l75 76q19 19 38 19q17 0 27.5 -11t10.5 -27q0 -19 -21 -38l-77 -73q-17 -17 -36 -17q-15 0 -25 11t-10 25q0 17 18 35z" />
    <glyph glyph-name="Icircumflex" unicode="&#xce;" horiz-adv-x="271" 
d="M185 660v-612q0 -31 -16 -43.5t-33 -12.5q-18 0 -34 12.5t-16 43.5v612q0 31 16 43.5t34 12.5q17 0 33 -12.5t16 -43.5zM136 851l-86 -81q-15 -14 -29 -14q-13 0 -22.5 9t-9.5 23q0 15 14 28l81 80q26 26 51 26q24 0 51 -26l81 -79q14 -14 14 -29q0 -13 -9.5 -22.5
t-23.5 -9.5q-15 0 -29 14z" />
    <glyph glyph-name="Idieresis" unicode="&#xcf;" horiz-adv-x="271" 
d="M185 660v-612q0 -31 -16 -43.5t-33 -12.5q-18 0 -34 12.5t-16 43.5v612q0 31 16 43.5t34 12.5q17 0 33 -12.5t16 -43.5zM-23 845q0 25 18 43t44 18t44 -17.5t18 -43.5q0 -25 -18 -42.5t-44 -17.5t-44 18t-18 42zM171 845q0 25 18 43t44 18t44 -17.5t18 -43.5
q0 -25 -18 -42.5t-44 -17.5t-44 18t-18 42z" />
    <glyph glyph-name="Eth" unicode="&#xd0;" horiz-adv-x="761" 
d="M329 0h-184q-59 0 -59 59v276h-38q-39 0 -39 35q0 7 2.5 14t11.5 14t25 7h38v244q0 59 59 59h184q71 0 136.5 -20.5t121.5 -61.5t90 -111.5t34 -160.5q0 -87 -34 -157t-89.5 -111.5t-122 -63.5t-136.5 -22zM185 622v-217h207q22 0 30.5 -11.5t8.5 -23.5q0 -13 -8.5 -24
t-30.5 -11h-207v-248h124q131 0 213.5 71.5t82.5 195.5q0 128 -82 198t-214 70h-124z" />
    <glyph glyph-name="Ntilde" unicode="&#xd1;" horiz-adv-x="772" 
d="M549 43l-362 506h-2v-501q0 -31 -16 -43.5t-33 -12.5q-18 0 -34 12.5t-16 43.5v594q0 41 20 57.5t43 16.5q38 0 74 -51l362 -502h2v497q0 31 16 43.5t34 12.5q17 0 33 -12.5t16 -43.5v-594q0 -41 -20 -57.5t-43 -16.5q-38 0 -74 51zM456 776q-31 0 -75 23q-42 21 -62 21
q-24 0 -38 -31q-10 -23 -30 -23q-31 0 -31 31q0 11 5 23q26 68 93 68q27 0 75 -23q44 -21 62 -21q24 0 38 31q10 23 30 23q30 0 30 -30q0 -12 -5 -24q-26 -68 -92 -68z" />
    <glyph glyph-name="Ograve" unicode="&#xd2;" horiz-adv-x="849" 
d="M800 355q0 -163 -106.5 -268t-269.5 -105q-162 0 -268 105t-106 268q0 164 105.5 267.5t268.5 103.5t269.5 -103.5t106.5 -267.5zM692 355q0 120 -73.5 202t-194.5 82q-119 0 -193 -82t-74 -202q0 -121 74 -202.5t193 -81.5q120 0 194 81.5t74 202.5zM392 903l75 -76
q18 -18 18 -35q0 -14 -10 -25t-25 -11q-19 0 -36 17l-77 73q-21 19 -21 38q0 16 11 27t27 11q19 0 38 -19z" />
    <glyph glyph-name="Oacute" unicode="&#xd3;" horiz-adv-x="849" 
d="M800 355q0 -163 -106.5 -268t-269.5 -105q-162 0 -268 105t-106 268q0 164 105.5 267.5t268.5 103.5t269.5 -103.5t106.5 -267.5zM692 355q0 120 -73.5 202t-194.5 82q-119 0 -193 -82t-74 -202q0 -121 74 -202.5t193 -81.5q120 0 194 81.5t74 202.5zM392 827l75 76
q19 19 38 19q17 0 27.5 -11t10.5 -27q0 -19 -21 -38l-77 -73q-17 -17 -36 -17q-15 0 -25 11t-10 25q0 17 18 35z" />
    <glyph glyph-name="Ocircumflex" unicode="&#xd4;" horiz-adv-x="849" 
d="M800 355q0 -163 -106.5 -268t-269.5 -105q-162 0 -268 105t-106 268q0 164 105.5 267.5t268.5 103.5t269.5 -103.5t106.5 -267.5zM692 355q0 120 -73.5 202t-194.5 82q-119 0 -193 -82t-74 -202q0 -121 74 -202.5t193 -81.5q120 0 194 81.5t74 202.5zM428 851l-86 -81
q-15 -14 -29 -14q-13 0 -22.5 9t-9.5 23q0 15 14 28l81 80q26 26 51 26q24 0 51 -26l81 -79q14 -14 14 -29q0 -13 -9.5 -22.5t-23.5 -9.5q-15 0 -29 14z" />
    <glyph glyph-name="Otilde" unicode="&#xd5;" horiz-adv-x="849" 
d="M800 355q0 -163 -106.5 -268t-269.5 -105q-162 0 -268 105t-106 268q0 164 105.5 267.5t268.5 103.5t269.5 -103.5t106.5 -267.5zM692 355q0 120 -73.5 202t-194.5 82q-119 0 -193 -82t-74 -202q0 -121 74 -202.5t193 -81.5q120 0 194 81.5t74 202.5zM495 776
q-31 0 -75 23q-42 21 -62 21q-24 0 -38 -31q-10 -23 -30 -23q-31 0 -31 31q0 11 5 23q26 68 93 68q27 0 75 -23q44 -21 62 -21q24 0 38 31q10 23 30 23q30 0 30 -30q0 -12 -5 -24q-26 -68 -92 -68z" />
    <glyph glyph-name="Odieresis" unicode="&#xd6;" horiz-adv-x="849" 
d="M800 355q0 -163 -106.5 -268t-269.5 -105q-162 0 -268 105t-106 268q0 164 105.5 267.5t268.5 103.5t269.5 -103.5t106.5 -267.5zM692 355q0 120 -73.5 202t-194.5 82q-119 0 -193 -82t-74 -202q0 -121 74 -202.5t193 -81.5q120 0 194 81.5t74 202.5zM267 845q0 25 18 43
t44 18t44 -17.5t18 -43.5q0 -25 -18 -42.5t-44 -17.5t-44 18t-18 42zM461 845q0 25 18 43t44 18t44 -17.5t18 -43.5q0 -25 -18 -42.5t-44 -17.5t-44 18t-18 42z" />
    <glyph glyph-name="multiply" unicode="&#xd7;" horiz-adv-x="666" 
d="M532 447l-142 -143l144 -145q15 -15 15 -34q0 -17 -11.5 -29t-28.5 -12t-33 16l-144 143l-143 -143q-15 -16 -33 -16q-17 0 -28.5 11.5t-11.5 28.5q0 19 16 34l144 143l-143 145q-17 18 -17 35q0 16 11 27.5t28 11.5q18 0 34 -16l144 -144l144 144q15 16 32 16t28.5 -11
t11.5 -27q0 -18 -17 -35z" />
    <glyph glyph-name="Oslash" unicode="&#xd8;" horiz-adv-x="849" 
d="M800 355q0 -162 -106.5 -266.5t-269.5 -106.5q-140 0 -238 79l-62 -67q-12 -12 -25 -12q-12 0 -20 8t-8 20t10 23l62 68q-93 99 -93 254q0 164 105.5 267.5t268.5 103.5q132 0 230 -71l63 67q11 12 24 12t21 -7.5t8 -19.5q0 -13 -10 -24l-61 -66q101 -103 101 -262z
M154 355q0 -109 57 -181l381 411q-66 55 -168 55q-122 0 -196 -82t-74 -203zM696 355q0 112 -62 189l-383 -414q69 -61 173 -61q121 0 196.5 82t75.5 204z" />
    <glyph glyph-name="Ugrave" unicode="&#xd9;" horiz-adv-x="712" 
d="M532 268v392q0 31 16 43.5t33 12.5q18 0 34 -12.5t16 -43.5v-398q0 -117 -71 -198.5t-204 -81.5q-132 0 -203.5 81.5t-71.5 198.5v398q0 31 16 43.5t34 12.5q17 0 33 -12.5t16 -43.5v-392q0 -83 42.5 -140t133.5 -57t133.5 57t42.5 140zM322 903l75 -76q18 -18 18 -35
q0 -14 -10 -25t-25 -11q-19 0 -36 17l-77 73q-21 19 -21 38q0 16 11 27t27 11q19 0 38 -19z" />
    <glyph glyph-name="Uacute" unicode="&#xda;" horiz-adv-x="712" 
d="M532 268v392q0 31 16 43.5t33 12.5q18 0 34 -12.5t16 -43.5v-398q0 -117 -71 -198.5t-204 -81.5q-132 0 -203.5 81.5t-71.5 198.5v398q0 31 16 43.5t34 12.5q17 0 33 -12.5t16 -43.5v-392q0 -83 42.5 -140t133.5 -57t133.5 57t42.5 140zM328 827l75 76q19 19 38 19
q17 0 27.5 -11t10.5 -27q0 -19 -21 -38l-77 -73q-17 -17 -36 -17q-15 0 -25 11t-10 25q0 17 18 35z" />
    <glyph glyph-name="Ucircumflex" unicode="&#xdb;" horiz-adv-x="712" 
d="M532 268v392q0 31 16 43.5t33 12.5q18 0 34 -12.5t16 -43.5v-398q0 -117 -71 -198.5t-204 -81.5q-132 0 -203.5 81.5t-71.5 198.5v398q0 31 16 43.5t34 12.5q17 0 33 -12.5t16 -43.5v-392q0 -83 42.5 -140t133.5 -57t133.5 57t42.5 140zM358 851l-86 -81q-15 -14 -29 -14
q-13 0 -22.5 9t-9.5 23q0 15 14 28l81 80q26 26 51 26q24 0 51 -26l81 -79q14 -14 14 -29q0 -13 -9.5 -22.5t-23.5 -9.5q-15 0 -29 14z" />
    <glyph glyph-name="Udieresis" unicode="&#xdc;" horiz-adv-x="712" 
d="M532 268v392q0 31 16 43.5t33 12.5q18 0 34 -12.5t16 -43.5v-398q0 -117 -71 -198.5t-204 -81.5q-132 0 -203.5 81.5t-71.5 198.5v398q0 31 16 43.5t34 12.5q17 0 33 -12.5t16 -43.5v-392q0 -83 42.5 -140t133.5 -57t133.5 57t42.5 140zM198 845q0 25 18 43t44 18
t44 -17.5t18 -43.5q0 -25 -18 -42.5t-44 -17.5t-44 18t-18 42zM392 845q0 25 18 43t44 18t44 -17.5t18 -43.5q0 -25 -18 -42.5t-44 -17.5t-44 18t-18 42z" />
    <glyph glyph-name="Yacute" unicode="&#xdd;" horiz-adv-x="624" 
d="M597 635l-236 -329v-258q0 -31 -16 -43.5t-33 -12.5q-18 0 -34 12.5t-16 43.5v258l-234 324q-14 20 -14 38q0 21 14.5 34.5t36.5 13.5q27 0 48 -31l201 -296l203 299q19 28 46 28q19 0 33 -12.5t14 -32.5q0 -18 -13 -36zM297 827l75 76q19 19 38 19q16 0 27 -11t11 -27
q0 -19 -21 -38l-77 -73q-17 -17 -36 -17q-15 0 -25 11t-10 25q0 17 18 35z" />
    <glyph glyph-name="Thorn" unicode="&#xde;" horiz-adv-x="595" 
d="M185 165v-117q0 -31 -16 -43.5t-33 -12.5q-18 0 -34 12.5t-16 43.5v612q0 31 16 43.5t34 12.5q17 0 33 -12.5t16 -43.5v-97h117q119 0 186 -48.5t67 -148.5q0 -102 -70.5 -151.5t-187.5 -49.5h-112zM185 250h102q165 0 165 116q0 111 -163 111h-104v-227z" />
    <glyph glyph-name="germandbls" unicode="&#xdf;" horiz-adv-x="612" 
d="M80 44v481q0 48 12 89.5t37.5 77t71 56t106.5 20.5q87 0 145 -52t58 -134q0 -55 -29.5 -96t-81.5 -58v-2q76 -11 121.5 -66.5t45.5 -137.5q0 -105 -66 -169.5t-177 -64.5q-12 0 -32 2q-47 5 -47 41q0 15 10 27t32 12q3 0 13.5 -0.5t12.5 -0.5q71 0 114 42t43 115
q0 69 -40.5 108.5t-108.5 45.5q-43 3 -43 42q0 37 43 43q44 6 70 34t26 74q0 49 -31 80.5t-82 31.5q-38 0 -64.5 -15t-40 -41t-19 -52t-5.5 -56v-477q0 -29 -15 -40.5t-32 -11.5t-32 11.5t-15 40.5z" />
    <glyph glyph-name="agrave" unicode="&#xe0;" horiz-adv-x="542" 
d="M376 226h-23q-211 0 -211 -90q0 -39 28 -56.5t69 -17.5q64 0 100.5 38.5t36.5 100.5v25zM380 40v28h-3q-53 -80 -159 -80q-30 0 -59 8t-55 24t-42 45.5t-16 68.5q0 41 19.5 71.5t49.5 47t76.5 26t88 12.5t96.5 3v13q0 51 -31.5 77.5t-85.5 26.5q-57 0 -112 -37
q-14 -10 -28 -10q-15 0 -25.5 10.5t-10.5 26.5q0 23 21 37q67 49 164 49q98 0 148 -51.5t50 -134.5v-261q0 -27 -13.5 -37.5t-28.5 -10.5q-16 0 -30 10.5t-14 37.5zM234 703l75 -76q18 -18 18 -35q0 -14 -10 -25t-25 -11q-19 0 -36 17l-77 73q-21 19 -21 38q0 16 11 27
t27 11q19 0 38 -19z" />
    <glyph glyph-name="aacute" unicode="&#xe1;" horiz-adv-x="542" 
d="M376 226h-23q-211 0 -211 -90q0 -39 28 -56.5t69 -17.5q64 0 100.5 38.5t36.5 100.5v25zM380 40v28h-3q-53 -80 -159 -80q-30 0 -59 8t-55 24t-42 45.5t-16 68.5q0 41 19.5 71.5t49.5 47t76.5 26t88 12.5t96.5 3v13q0 51 -31.5 77.5t-85.5 26.5q-57 0 -112 -37
q-14 -10 -28 -10q-15 0 -25.5 10.5t-10.5 26.5q0 23 21 37q67 49 164 49q98 0 148 -51.5t50 -134.5v-261q0 -27 -13.5 -37.5t-28.5 -10.5q-16 0 -30 10.5t-14 37.5zM235 627l75 76q19 19 38 19q16 0 27 -11t11 -27q0 -19 -21 -38l-77 -73q-17 -17 -36 -17q-15 0 -25 11
t-10 25q0 17 18 35z" />
    <glyph glyph-name="acircumflex" unicode="&#xe2;" horiz-adv-x="542" 
d="M376 226h-23q-211 0 -211 -90q0 -39 28 -56.5t69 -17.5q64 0 100.5 38.5t36.5 100.5v25zM380 40v28h-3q-53 -80 -159 -80q-30 0 -59 8t-55 24t-42 45.5t-16 68.5q0 41 19.5 71.5t49.5 47t76.5 26t88 12.5t96.5 3v13q0 51 -31.5 77.5t-85.5 26.5q-57 0 -112 -37
q-14 -10 -28 -10q-15 0 -25.5 10.5t-10.5 26.5q0 23 21 37q67 49 164 49q98 0 148 -51.5t50 -134.5v-261q0 -27 -13.5 -37.5t-28.5 -10.5q-16 0 -30 10.5t-14 37.5zM272 651l-86 -81q-15 -14 -29 -14q-13 0 -22.5 9t-9.5 23q0 15 14 28l81 80q26 26 51 26q24 0 51 -26
l81 -79q14 -14 14 -29q0 -13 -9.5 -22.5t-23.5 -9.5q-15 0 -29 14z" />
    <glyph glyph-name="atilde" unicode="&#xe3;" horiz-adv-x="542" 
d="M376 226h-23q-211 0 -211 -90q0 -39 28 -56.5t69 -17.5q64 0 100.5 38.5t36.5 100.5v25zM380 40v28h-3q-53 -80 -159 -80q-30 0 -59 8t-55 24t-42 45.5t-16 68.5q0 41 19.5 71.5t49.5 47t76.5 26t88 12.5t96.5 3v13q0 51 -31.5 77.5t-85.5 26.5q-57 0 -112 -37
q-14 -10 -28 -10q-15 0 -25.5 10.5t-10.5 26.5q0 23 21 37q67 49 164 49q98 0 148 -51.5t50 -134.5v-261q0 -27 -13.5 -37.5t-28.5 -10.5q-16 0 -30 10.5t-14 37.5zM338 576q-31 0 -75 23q-42 21 -62 21q-24 0 -38 -31q-10 -23 -30 -23q-31 0 -31 31q0 11 5 23q26 68 93 68
q27 0 75 -23q44 -21 62 -21q24 0 38 31q10 23 30 23q30 0 30 -30q0 -12 -5 -24q-26 -68 -92 -68z" />
    <glyph glyph-name="adieresis" unicode="&#xe4;" horiz-adv-x="542" 
d="M376 226h-23q-211 0 -211 -90q0 -39 28 -56.5t69 -17.5q64 0 100.5 38.5t36.5 100.5v25zM380 40v28h-3q-53 -80 -159 -80q-30 0 -59 8t-55 24t-42 45.5t-16 68.5q0 41 19.5 71.5t49.5 47t76.5 26t88 12.5t96.5 3v13q0 51 -31.5 77.5t-85.5 26.5q-57 0 -112 -37
q-14 -10 -28 -10q-15 0 -25.5 10.5t-10.5 26.5q0 23 21 37q67 49 164 49q98 0 148 -51.5t50 -134.5v-261q0 -27 -13.5 -37.5t-28.5 -10.5q-16 0 -30 10.5t-14 37.5zM110 645q0 25 18 43t44 18t44 -17.5t18 -43.5q0 -25 -18 -42.5t-44 -17.5t-44 18t-18 42zM304 645
q0 25 18 43t44 18t44 -17.5t18 -43.5q0 -25 -18 -42.5t-44 -17.5t-44 18t-18 42z" />
    <glyph glyph-name="aring" unicode="&#xe5;" horiz-adv-x="542" 
d="M376 226h-23q-211 0 -211 -90q0 -39 28 -56.5t69 -17.5q64 0 100.5 38.5t36.5 100.5v25zM380 40v28h-3q-53 -80 -159 -80q-30 0 -59 8t-55 24t-42 45.5t-16 68.5q0 41 19.5 71.5t49.5 47t76.5 26t88 12.5t96.5 3v13q0 51 -31.5 77.5t-85.5 26.5q-57 0 -112 -37
q-14 -10 -28 -10q-15 0 -25.5 10.5t-10.5 26.5q0 23 21 37q67 49 164 49q98 0 148 -51.5t50 -134.5v-261q0 -27 -13.5 -37.5t-28.5 -10.5q-16 0 -30 10.5t-14 37.5zM368 653q0 -42 -29.5 -70.5t-71.5 -28.5t-71 28t-29 70t29 70.5t71 28.5t71.5 -28t29.5 -70zM327 653
q0 25 -17.5 41.5t-42.5 16.5t-42 -17t-17 -42q0 -24 17 -40.5t42 -16.5t42.5 16.5t17.5 41.5z" />
    <glyph glyph-name="ae" unicode="&#xe6;" horiz-adv-x="878" 
d="M462 279h272q0 58 -34 96t-94 38q-57 0 -99 -39t-45 -95zM610 -13q-61 0 -112 26t-79 72q-52 -97 -201 -97q-68 0 -120 31.5t-52 101.5q0 41 16.5 70t42.5 46t71 26.5t90 12.5t110 3v11q0 121 -117 121q-55 0 -113 -37q-16 -10 -28 -10q-16 0 -26.5 10.5t-10.5 26.5
q0 22 21 36q65 50 167 50q127 0 165 -88q63 88 172 88q90 0 148 -51.5t71 -147.5q2 -14 2 -31q0 -48 -50 -48h-314q2 -60 45 -102t104 -42q68 0 116 50q17 16 35 16q17 0 28 -10.5t11 -28.5q0 -19 -15 -34q-68 -71 -177 -71zM374 209h-24q-49 0 -82.5 -2.5t-64.5 -10
t-46 -23.5t-15 -40q0 -72 98 -72q65 0 99.5 33t34.5 90v25z" />
    <glyph glyph-name="ccedilla" unicode="&#xe7;" horiz-adv-x="494" 
d="M196 -169q8 0 23 -5q22 -7 49 -7q58 0 58 36q0 35 -44 35q-10 0 -22 -2q-15 -3 -21 -3q-24 0 -24 21q0 8 8 21l40 63q-96 11 -154.5 78t-58.5 169q0 111 71.5 180.5t181.5 69.5q85 0 139 -44q24 -19 24 -41q0 -18 -12 -29.5t-30 -11.5q-15 0 -37 18q-35 29 -83 29
q-71 0 -113 -50t-42 -121t41.5 -120.5t112.5 -49.5q53 0 92 31q18 14 33 14q17 0 28 -11t11 -27q0 -23 -22 -41q-47 -40 -124 -45l-37 -55q16 2 27 2q36 0 61.5 -19.5t25.5 -59.5q0 -47 -37.5 -69t-89.5 -22q-40 0 -76 12q-25 9 -25 28q0 10 7.5 18t18.5 8z" />
    <glyph glyph-name="egrave" unicode="&#xe8;" horiz-adv-x="573" 
d="M472 209h-326q2 -61 47 -102.5t107 -41.5q67 0 122 51q16 15 33 15t28.5 -10.5t11.5 -28.5t-15 -34q-69 -71 -180 -71q-109 0 -179.5 69t-70.5 180q0 110 70 180.5t175 70.5q91 0 151.5 -51.5t73.5 -147.5q2 -14 2 -31q0 -48 -50 -48zM146 279h282q-2 59 -36 96.5
t-97 37.5q-60 0 -102 -39t-47 -95zM245 703l75 -76q18 -18 18 -35q0 -14 -10 -25t-25 -11q-19 0 -36 17l-77 73q-21 19 -21 38q0 16 10.5 27t27.5 11q19 0 38 -19z" />
    <glyph glyph-name="eacute" unicode="&#xe9;" horiz-adv-x="573" 
d="M472 209h-326q2 -61 47 -102.5t107 -41.5q67 0 122 51q16 15 33 15t28.5 -10.5t11.5 -28.5t-15 -34q-69 -71 -180 -71q-109 0 -179.5 69t-70.5 180q0 110 70 180.5t175 70.5q91 0 151.5 -51.5t73.5 -147.5q2 -14 2 -31q0 -48 -50 -48zM146 279h282q-2 59 -36 96.5
t-97 37.5q-60 0 -102 -39t-47 -95zM271 627l75 76q19 19 38 19q16 0 27 -11t11 -27q0 -19 -21 -38l-77 -73q-17 -17 -36 -17q-15 0 -25 11t-10 25q0 17 18 35z" />
    <glyph glyph-name="ecircumflex" unicode="&#xea;" horiz-adv-x="573" 
d="M472 209h-326q2 -61 47 -102.5t107 -41.5q67 0 122 51q16 15 33 15t28.5 -10.5t11.5 -28.5t-15 -34q-69 -71 -180 -71q-109 0 -179.5 69t-70.5 180q0 110 70 180.5t175 70.5q91 0 151.5 -51.5t73.5 -147.5q2 -14 2 -31q0 -48 -50 -48zM146 279h282q-2 59 -36 96.5
t-97 37.5q-60 0 -102 -39t-47 -95zM301 651l-86 -81q-15 -14 -29 -14t-23 9t-9 23q0 15 14 28l81 80q26 26 51 26q24 0 51 -26l81 -79q14 -14 14 -29q0 -13 -9.5 -22.5t-23.5 -9.5q-15 0 -29 14z" />
    <glyph glyph-name="edieresis" unicode="&#xeb;" horiz-adv-x="573" 
d="M472 209h-326q2 -61 47 -102.5t107 -41.5q67 0 122 51q16 15 33 15t28.5 -10.5t11.5 -28.5t-15 -34q-69 -71 -180 -71q-109 0 -179.5 69t-70.5 180q0 110 70 180.5t175 70.5q91 0 151.5 -51.5t73.5 -147.5q2 -14 2 -31q0 -48 -50 -48zM146 279h282q-2 59 -36 96.5
t-97 37.5q-60 0 -102 -39t-47 -95zM140 645q0 25 18 43t44 18t44 -17.5t18 -43.5q0 -25 -18 -42.5t-44 -17.5t-44 18t-18 42zM334 645q0 25 18 43t44 18t44 -17.5t18 -43.5q0 -25 -18 -42.5t-44 -17.5t-44 18t-18 42z" />
    <glyph glyph-name="igrave" unicode="&#xec;" horiz-adv-x="259" 
d="M176 430v-386q0 -29 -15 -40.5t-32 -11.5t-32 11.5t-15 40.5v386q0 29 15 40.5t32 11.5t32 -11.5t15 -40.5zM69 703l75 -76q18 -18 18 -35q0 -14 -10 -25t-25 -11q-19 0 -36 17l-77 73q-21 19 -21 38q0 16 10.5 27t27.5 11q19 0 38 -19z" />
    <glyph glyph-name="iacute" unicode="&#xed;" horiz-adv-x="259" 
d="M176 430v-386q0 -29 -15 -40.5t-32 -11.5t-32 11.5t-15 40.5v386q0 29 15 40.5t32 11.5t32 -11.5t15 -40.5zM115 627l75 76q19 19 38 19q16 0 27 -11t11 -27q0 -19 -21 -38l-77 -73q-17 -17 -36 -17q-15 0 -25 11t-10 25q0 17 18 35z" />
    <glyph glyph-name="icircumflex" unicode="&#xee;" horiz-adv-x="259" 
d="M176 430v-386q0 -29 -15 -40.5t-32 -11.5t-32 11.5t-15 40.5v386q0 29 15 40.5t32 11.5t32 -11.5t15 -40.5zM132 651l-86 -81q-15 -14 -29 -14q-13 0 -22.5 9t-9.5 23q0 15 14 28l81 80q26 26 51 26q24 0 51 -26l81 -79q14 -14 14 -29q0 -13 -9.5 -22.5t-23.5 -9.5
q-15 0 -29 14z" />
    <glyph glyph-name="idieresis" unicode="&#xef;" horiz-adv-x="259" 
d="M176 430v-386q0 -29 -15 -40.5t-32 -11.5t-32 11.5t-15 40.5v386q0 29 15 40.5t32 11.5t32 -11.5t15 -40.5zM-29 645q0 25 18 43t44 18t44 -17.5t18 -43.5q0 -25 -18 -42.5t-44 -17.5t-44 18t-18 42zM165 645q0 25 18 43t44 18t44 -17.5t18 -43.5q0 -25 -18 -42.5
t-44 -17.5t-44 18t-18 42z" />
    <glyph glyph-name="eth" unicode="&#xf0;" horiz-adv-x="610" 
d="M443 695l-73 -35q186 -188 186 -398q0 -116 -65 -195.5t-190 -79.5q-111 0 -183 70.5t-72 179.5t72 179.5t179 70.5q75 0 130 -49l2 2q-56 101 -139 181l-93 -45q-12 -6 -23 -6q-13 0 -21 8.5t-8 21.5q0 20 21 29l76 36l-43 37q-23 20 -23 37t12 29t29 12t36 -16
q17 -14 70 -60l92 45q11 5 20 5q13 0 21 -8.5t8 -20.5q0 -21 -21 -30zM142 237q0 -71 43 -120.5t116 -49.5t115.5 49.5t42.5 120.5t-42.5 120.5t-115.5 49.5t-116 -49.5t-43 -120.5z" />
    <glyph glyph-name="ntilde" unicode="&#xf1;" horiz-adv-x="582" 
d="M170 432v-36h3q18 39 61 65t93 26q87 0 132 -54t45 -139v-250q0 -29 -15 -40.5t-32 -11.5t-32 11.5t-15 40.5v219q0 145 -108 145q-56 0 -91.5 -43t-35.5 -113v-208q0 -29 -15 -40.5t-32 -11.5t-32 11.5t-15 40.5v388q0 20 8.5 32t17.5 15t19 3q9 0 18 -3t17.5 -15
t8.5 -32zM362 576q-31 0 -75 23q-42 21 -62 21q-24 0 -38 -31q-10 -23 -30 -23q-31 0 -31 31q0 11 5 23q26 68 93 68q27 0 75 -23q44 -21 62 -21q24 0 38 31q10 23 30 23q30 0 30 -30q0 -12 -5 -24q-26 -68 -92 -68z" />
    <glyph glyph-name="ograve" unicode="&#xf2;" horiz-adv-x="610" 
d="M561 238q0 -109 -73.5 -180t-182.5 -71t-182 71t-73 180t72.5 179t182.5 70t183 -70t73 -179zM463 238q0 71 -42.5 121t-115.5 50t-115.5 -50t-42.5 -121t42.5 -121.5t115.5 -50.5t115.5 50.5t42.5 121.5zM257 703l75 -76q18 -18 18 -35q0 -14 -10 -25t-25 -11
q-19 0 -36 17l-77 73q-21 19 -21 38q0 16 10.5 27t27.5 11q19 0 38 -19z" />
    <glyph glyph-name="oacute" unicode="&#xf3;" horiz-adv-x="610" 
d="M561 238q0 -109 -73.5 -180t-182.5 -71t-182 71t-73 180t72.5 179t182.5 70t183 -70t73 -179zM463 238q0 71 -42.5 121t-115.5 50t-115.5 -50t-42.5 -121t42.5 -121.5t115.5 -50.5t115.5 50.5t42.5 121.5zM278 627l75 76q19 19 38 19q17 0 27.5 -11t10.5 -27
q0 -19 -21 -38l-77 -73q-17 -17 -36 -17q-15 0 -25 11t-10 25q0 17 18 35z" />
    <glyph glyph-name="ocircumflex" unicode="&#xf4;" horiz-adv-x="610" 
d="M561 238q0 -109 -73.5 -180t-182.5 -71t-182 71t-73 180t72.5 179t182.5 70t183 -70t73 -179zM463 238q0 71 -42.5 121t-115.5 50t-115.5 -50t-42.5 -121t42.5 -121.5t115.5 -50.5t115.5 50.5t42.5 121.5zM307 651l-86 -81q-15 -14 -29 -14t-23 9t-9 23q0 15 14 28l81 80
q26 26 51 26q24 0 51 -26l81 -79q14 -14 14 -29q0 -13 -9.5 -22.5t-23.5 -9.5q-15 0 -29 14z" />
    <glyph glyph-name="otilde" unicode="&#xf5;" horiz-adv-x="610" 
d="M561 238q0 -109 -73.5 -180t-182.5 -71t-182 71t-73 180t72.5 179t182.5 70t183 -70t73 -179zM463 238q0 71 -42.5 121t-115.5 50t-115.5 -50t-42.5 -121t42.5 -121.5t115.5 -50.5t115.5 50.5t42.5 121.5zM375 576q-31 0 -75 23q-42 21 -62 21q-24 0 -38 -31
q-10 -23 -30 -23q-31 0 -31 31q0 11 5 23q26 68 93 68q27 0 75 -23q44 -21 62 -21q24 0 38 31q10 23 30 23q30 0 30 -30q0 -12 -5 -24q-26 -68 -92 -68z" />
    <glyph glyph-name="odieresis" unicode="&#xf6;" horiz-adv-x="610" 
d="M561 238q0 -109 -73.5 -180t-182.5 -71t-182 71t-73 180t72.5 179t182.5 70t183 -70t73 -179zM463 238q0 71 -42.5 121t-115.5 50t-115.5 -50t-42.5 -121t42.5 -121.5t115.5 -50.5t115.5 50.5t42.5 121.5zM147 645q0 25 18 43t44 18t44 -17.5t18 -43.5q0 -25 -18 -42.5
t-44 -17.5t-44 18t-18 42zM341 645q0 25 18 43t44 18t44 -17.5t18 -43.5q0 -25 -18 -42.5t-44 -17.5t-44 18t-18 42z" />
    <glyph glyph-name="divide" unicode="&#xf7;" horiz-adv-x="666" 
d="M398 469q0 -26 -19 -45.5t-46 -19.5t-46 19.5t-19 45.5q0 27 19 46t46 19t46 -19t19 -46zM398 132q0 -27 -19 -46t-46 -19t-46 19t-19 46q0 26 19 45.5t46 19.5t46 -19.5t19 -45.5zM550 262h-434q-25 0 -35 13t-10 28t10 28t35 13h434q25 0 35 -13t10 -28t-10 -28
t-35 -13z" />
    <glyph glyph-name="oslash" unicode="&#xf8;" horiz-adv-x="610" 
d="M146 38l-50 -51q-10 -11 -22 -11q-10 0 -17.5 6.5t-7.5 17.5q0 12 11 23l48 50q-58 67 -58 164q0 109 73 179.5t182 70.5q93 0 158 -51l52 53q10 11 22 11q10 0 17.5 -6.5t7.5 -17.5q0 -12 -11 -23l-50 -52q60 -68 60 -164q0 -109 -73 -179.5t-183 -70.5q-92 0 -159 51z
M144 237q0 -64 28 -101l234 241q-38 35 -101 35q-74 0 -117.5 -51.5t-43.5 -123.5zM467 238q0 62 -29 100l-235 -240q41 -35 101 -35q76 0 119.5 51.5t43.5 123.5z" />
    <glyph glyph-name="ugrave" unicode="&#xf9;" horiz-adv-x="582" 
d="M411 42v36h-3q-18 -39 -61 -65t-93 -26q-87 0 -132 54t-45 139v250q0 29 15 40.5t32 11.5t32 -11.5t15 -40.5v-219q0 -145 108 -145q56 0 91.5 43t35.5 113v208q0 29 15 40.5t32 11.5t32 -11.5t15 -40.5v-388q0 -20 -8.5 -32t-17.5 -15t-18 -3q-10 0 -19 3t-17.5 15
t-8.5 32zM245 703l75 -76q18 -18 18 -35q0 -14 -10 -25t-25 -11q-19 0 -36 17l-77 73q-21 19 -21 38q0 16 10.5 27t27.5 11q19 0 38 -19z" />
    <glyph glyph-name="uacute" unicode="&#xfa;" horiz-adv-x="582" 
d="M411 42v36h-3q-18 -39 -61 -65t-93 -26q-87 0 -132 54t-45 139v250q0 29 15 40.5t32 11.5t32 -11.5t15 -40.5v-219q0 -145 108 -145q56 0 91.5 43t35.5 113v208q0 29 15 40.5t32 11.5t32 -11.5t15 -40.5v-388q0 -20 -8.5 -32t-17.5 -15t-18 -3q-10 0 -19 3t-17.5 15
t-8.5 32zM263 627l75 76q19 19 38 19q16 0 27 -11t11 -27q0 -19 -21 -38l-77 -73q-17 -17 -36 -17q-15 0 -25 11t-10 25q0 17 18 35z" />
    <glyph glyph-name="ucircumflex" unicode="&#xfb;" horiz-adv-x="582" 
d="M411 42v36h-3q-18 -39 -61 -65t-93 -26q-87 0 -132 54t-45 139v250q0 29 15 40.5t32 11.5t32 -11.5t15 -40.5v-219q0 -145 108 -145q56 0 91.5 43t35.5 113v208q0 29 15 40.5t32 11.5t32 -11.5t15 -40.5v-388q0 -20 -8.5 -32t-17.5 -15t-18 -3q-10 0 -19 3t-17.5 15
t-8.5 32zM292 651l-86 -81q-15 -14 -29 -14q-13 0 -22.5 9t-9.5 23q0 15 14 28l81 80q26 26 51 26q24 0 51 -26l81 -79q14 -14 14 -29q0 -13 -9.5 -22.5t-23.5 -9.5q-15 0 -29 14z" />
    <glyph glyph-name="udieresis" unicode="&#xfc;" horiz-adv-x="582" 
d="M411 42v36h-3q-18 -39 -61 -65t-93 -26q-87 0 -132 54t-45 139v250q0 29 15 40.5t32 11.5t32 -11.5t15 -40.5v-219q0 -145 108 -145q56 0 91.5 43t35.5 113v208q0 29 15 40.5t32 11.5t32 -11.5t15 -40.5v-388q0 -20 -8.5 -32t-17.5 -15t-18 -3q-10 0 -19 3t-17.5 15
t-8.5 32zM131 645q0 25 18 43t44 18t44 -17.5t18 -43.5q0 -25 -18 -42.5t-44 -17.5t-44 18t-18 42zM325 645q0 25 18 43t44 18t44 -17.5t18 -43.5q0 -25 -18 -42.5t-44 -17.5t-44 18t-18 42z" />
    <glyph glyph-name="yacute" unicode="&#xfd;" horiz-adv-x="501" 
d="M477 413l-213 -525q-28 -68 -64 -98t-100 -30q-29 0 -48 11.5t-19 32.5q0 15 10.5 27t28.5 12q3 0 11 -0.5t13 -0.5q29 0 49 16.5t37 62.5l30 79l-184 410q-6 13 -6 27q0 19 14 32t34 13q31 0 47 -37l143 -342h2l127 340q15 39 47 39q20 0 33.5 -12t13.5 -31
q0 -10 -6 -26zM232 627l75 76q19 19 38 19q17 0 27.5 -11t10.5 -27q0 -19 -21 -38l-77 -73q-17 -17 -36 -17q-15 0 -25 11t-10 25q0 17 18 35z" />
    <glyph glyph-name="thorn" unicode="&#xfe;" horiz-adv-x="636" 
d="M586 238q0 -107 -66 -179t-173 -72q-51 0 -97 22.5t-71 62.5h-2v-268q0 -29 -15 -40.5t-32 -11.5t-32 11.5t-15 40.5v908q0 29 15 40.5t32 11.5t32 -11.5t15 -40.5v-309h3q26 37 70 60.5t99 23.5q104 0 170.5 -71.5t66.5 -177.5zM489 238q0 71 -42 121t-116 50
q-70 0 -115 -51t-45 -121t45 -120.5t115 -50.5q74 0 116 50.5t42 121.5z" />
    <glyph glyph-name="ydieresis" unicode="&#xff;" horiz-adv-x="501" 
d="M477 413l-213 -525q-28 -68 -64 -98t-100 -30q-29 0 -48 11.5t-19 32.5q0 15 10.5 27t28.5 12q3 0 11 -0.5t13 -0.5q29 0 49 16.5t37 62.5l30 79l-184 410q-6 13 -6 27q0 19 14 32t34 13q31 0 47 -37l143 -342h2l127 340q15 39 47 39q20 0 33.5 -12t13.5 -31
q0 -10 -6 -26zM101 645q0 25 18 43t44 18t44 -17.5t18 -43.5q0 -25 -18 -42.5t-44 -17.5t-44 18t-18 42zM295 645q0 25 18 43t44 18t44 -17.5t18 -43.5q0 -25 -18 -42.5t-44 -17.5t-44 18t-18 42z" />
    <glyph glyph-name="Amacron" unicode="&#x100;" horiz-adv-x="711" 
d="M590 30l-61 144h-350l-61 -145q-16 -37 -48 -37q-21 0 -36 13t-15 35q0 13 8 30l266 596q22 50 64 50q41 0 64 -50l263 -594q7 -16 7 -30q0 -22 -15 -36t-36 -14q-34 0 -50 38zM355 590l-139 -329h277zM472 796h-230q-21 0 -29.5 11.5t-8.5 23.5t8.5 23t29.5 11h230
q21 0 29.5 -11t8.5 -23t-8.5 -23.5t-29.5 -11.5z" />
    <glyph glyph-name="amacron" unicode="&#x101;" horiz-adv-x="542" 
d="M376 226h-23q-211 0 -211 -90q0 -39 28 -56.5t69 -17.5q64 0 100.5 38.5t36.5 100.5v25zM380 40v28h-3q-53 -80 -159 -80q-30 0 -59 8t-55 24t-42 45.5t-16 68.5q0 41 19.5 71.5t49.5 47t76.5 26t88 12.5t96.5 3v13q0 51 -31.5 77.5t-85.5 26.5q-57 0 -112 -37
q-14 -10 -28 -10q-15 0 -25.5 10.5t-10.5 26.5q0 23 21 37q67 49 164 49q98 0 148 -51.5t50 -134.5v-261q0 -27 -13.5 -37.5t-28.5 -10.5q-16 0 -30 10.5t-14 37.5zM392 596h-230q-21 0 -29.5 11.5t-8.5 23.5t8.5 23t29.5 11h230q21 0 29.5 -11t8.5 -23t-8.5 -23.5
t-29.5 -11.5z" />
    <glyph glyph-name="Abreve" unicode="&#x102;" horiz-adv-x="711" 
d="M590 30l-61 144h-350l-61 -145q-16 -37 -48 -37q-21 0 -36 13t-15 35q0 13 8 30l266 596q22 50 64 50q41 0 64 -50l263 -594q7 -16 7 -30q0 -22 -15 -36t-36 -14q-34 0 -50 38zM355 590l-139 -329h277zM356 834q67 0 90 54q12 26 32 26q14 0 22 -9t8 -21q0 -10 -3 -19
q-32 -95 -149 -95t-149 95q-3 9 -3 19q0 12 8 21t23 9q20 0 32 -26q24 -54 89 -54z" />
    <glyph glyph-name="abreve" unicode="&#x103;" horiz-adv-x="542" 
d="M376 226h-23q-211 0 -211 -90q0 -39 28 -56.5t69 -17.5q64 0 100.5 38.5t36.5 100.5v25zM380 40v28h-3q-53 -80 -159 -80q-30 0 -59 8t-55 24t-42 45.5t-16 68.5q0 41 19.5 71.5t49.5 47t76.5 26t88 12.5t96.5 3v13q0 51 -31.5 77.5t-85.5 26.5q-57 0 -112 -37
q-14 -10 -28 -10q-15 0 -25.5 10.5t-10.5 26.5q0 23 21 37q67 49 164 49q98 0 148 -51.5t50 -134.5v-261q0 -27 -13.5 -37.5t-28.5 -10.5q-16 0 -30 10.5t-14 37.5zM276 634q67 0 90 54q12 26 32 26q14 0 22 -9t8 -21q0 -10 -3 -19q-32 -95 -149 -95t-149 95q-3 9 -3 19
q0 12 8 21t23 9q20 0 32 -26q24 -54 89 -54z" />
    <glyph glyph-name="Aogonek" unicode="&#x104;" horiz-adv-x="711" 
d="M685 -202q-37 -24 -77 -24q-39 0 -68 24t-29 63q0 71 99 141q-12 9 -20 28l-61 144h-350l-61 -145q-16 -37 -48 -37q-21 0 -36 13t-15 35q0 13 8 30l266 596q22 50 64 50q41 0 64 -50l263 -594q7 -16 7 -30q0 -26 -22 -42q-89 -62 -89 -119q0 -20 13.5 -33t34.5 -13
q12 0 30 8q11 5 19 5q10 0 17 -7t7 -17q0 -15 -16 -26zM355 590l-139 -329h277z" />
    <glyph glyph-name="aogonek" unicode="&#x105;" horiz-adv-x="542" 
d="M469 -202q-37 -24 -77 -24q-39 0 -68 24t-29 63q0 38 25 70.5t75 71.5q-13 13 -14 38l-1 27h-3q-53 -80 -159 -80q-30 0 -59 8t-55 24t-42 45.5t-16 68.5q0 41 19.5 71.5t49.5 47t76.5 26t88 12.5t96.5 3v13q0 51 -31.5 77.5t-85.5 26.5q-57 0 -112 -37q-14 -10 -28 -10
q-15 0 -25.5 10.5t-10.5 26.5q0 22 21 36q65 50 164 50q98 0 148 -51.5t50 -134.5v-222q0 -6 0.5 -20.5t0.5 -18.5q0 -26 -17 -41q-47 -41 -66.5 -65.5t-19.5 -52.5q0 -20 13.5 -33t34.5 -13q12 0 30 8q11 5 19 5q10 0 17 -7t7 -17q0 -15 -16 -26zM376 226h-23
q-211 0 -211 -90q0 -39 28 -56.5t69 -17.5q64 0 100.5 38.5t36.5 100.5v25z" />
    <glyph glyph-name="Cacute" unicode="&#x106;" horiz-adv-x="708" 
d="M423 -18q-163 0 -268 105t-105 268q0 164 107 267.5t270 103.5q63 0 120.5 -19.5t95.5 -54.5q20 -19 20 -40q0 -20 -13 -33.5t-34 -13.5q-20 0 -42 20q-60 54 -147 54q-120 0 -194.5 -82t-74.5 -202q0 -122 73 -203.5t193 -81.5q103 0 169 69q20 20 40 20q19 0 31.5 -12
t12.5 -32q0 -23 -19 -42q-88 -91 -235 -91zM379 827l75 76q19 19 38 19q16 0 27 -11t11 -27q0 -19 -21 -38l-77 -73q-17 -17 -36 -17q-15 0 -25 11t-10 25q0 17 18 35z" />
    <glyph glyph-name="cacute" unicode="&#x107;" horiz-adv-x="494" 
d="M395 98q18 14 33 14q17 0 28 -11t11 -27q0 -23 -22 -41q-55 -46 -142 -46q-111 0 -182 69t-71 181q0 111 71.5 180.5t181.5 69.5q85 0 139 -44q24 -19 24 -41q0 -18 -12 -29.5t-30 -11.5q-15 0 -37 18q-35 29 -83 29q-71 0 -113 -50t-42 -121t41.5 -120.5t112.5 -49.5
q53 0 92 31zM268 627l75 76q19 19 38 19q17 0 27.5 -11t10.5 -27q0 -19 -21 -38l-77 -73q-17 -17 -36 -17q-15 0 -25 11t-10 25q0 17 18 35z" />
    <glyph glyph-name="Ccircumflex" unicode="&#x108;" horiz-adv-x="708" 
d="M423 -18q-163 0 -268 105t-105 268q0 164 107 267.5t270 103.5q63 0 120.5 -19.5t95.5 -54.5q20 -19 20 -40q0 -20 -13 -33.5t-34 -13.5q-20 0 -42 20q-60 54 -147 54q-120 0 -194.5 -82t-74.5 -202q0 -122 73 -203.5t193 -81.5q103 0 169 69q20 20 40 20q19 0 31.5 -12
t12.5 -32q0 -23 -19 -42q-88 -91 -235 -91zM423 851l-86 -81q-15 -14 -29 -14t-23 9t-9 23q0 15 14 28l81 80q26 26 51 26q24 0 51 -26l81 -79q14 -14 14 -29q0 -13 -9.5 -22.5t-23.5 -9.5q-15 0 -29 14z" />
    <glyph glyph-name="ccircumflex" unicode="&#x109;" horiz-adv-x="494" 
d="M395 98q18 14 33 14q17 0 28 -11t11 -27q0 -23 -22 -41q-55 -46 -142 -46q-111 0 -182 69t-71 181q0 111 71.5 180.5t181.5 69.5q85 0 139 -44q24 -19 24 -41q0 -18 -12 -29.5t-30 -11.5q-15 0 -37 18q-35 29 -83 29q-71 0 -113 -50t-42 -121t41.5 -120.5t112.5 -49.5
q53 0 92 31zM301 651l-86 -81q-15 -14 -29 -14t-23 9t-9 23q0 15 14 28l81 80q26 26 51 26q24 0 51 -26l81 -79q14 -14 14 -29q0 -13 -9.5 -22.5t-23.5 -9.5q-15 0 -29 14z" />
    <glyph glyph-name="Cdotaccent" unicode="&#x10a;" horiz-adv-x="708" 
d="M423 -18q-163 0 -268 105t-105 268q0 164 107 267.5t270 103.5q63 0 120.5 -19.5t95.5 -54.5q20 -19 20 -40q0 -20 -13 -33.5t-34 -13.5q-20 0 -42 20q-60 54 -147 54q-120 0 -194.5 -82t-74.5 -202q0 -122 73 -203.5t193 -81.5q103 0 169 69q20 20 40 20q19 0 31.5 -12
t12.5 -32q0 -23 -19 -42q-88 -91 -235 -91zM481 845q0 -25 -18.5 -42.5t-44.5 -17.5t-44 17.5t-18 42.5t18 43t44 18t44.5 -17.5t18.5 -43.5z" />
    <glyph glyph-name="cdotaccent" unicode="&#x10b;" horiz-adv-x="494" 
d="M395 98q18 14 33 14q17 0 28 -11t11 -27q0 -23 -22 -41q-55 -46 -142 -46q-111 0 -182 69t-71 181q0 111 71.5 180.5t181.5 69.5q85 0 139 -44q24 -19 24 -41q0 -18 -12 -29.5t-30 -11.5q-15 0 -37 18q-35 29 -83 29q-71 0 -113 -50t-42 -121t41.5 -120.5t112.5 -49.5
q53 0 92 31zM359 645q0 -25 -18.5 -42.5t-44.5 -17.5t-44 17.5t-18 42.5t18 43t44 18t44.5 -17.5t18.5 -43.5z" />
    <glyph glyph-name="Ccaron" unicode="&#x10c;" horiz-adv-x="708" 
d="M423 -18q-163 0 -268 105t-105 268q0 164 107 267.5t270 103.5q63 0 120.5 -19.5t95.5 -54.5q20 -19 20 -40q0 -20 -13 -33.5t-34 -13.5q-20 0 -42 20q-60 54 -147 54q-120 0 -194.5 -82t-74.5 -202q0 -122 73 -203.5t193 -81.5q103 0 169 69q20 20 40 20q19 0 31.5 -12
t12.5 -32q0 -23 -19 -42q-88 -91 -235 -91zM421 827l86 81q15 14 29 14t23 -9t9 -23q0 -15 -14 -28l-81 -80q-26 -26 -51 -26q-24 0 -51 26l-81 79q-14 14 -14 29q0 13 9.5 22.5t23.5 9.5q15 0 29 -14z" />
    <glyph glyph-name="ccaron" unicode="&#x10d;" horiz-adv-x="494" 
d="M395 98q18 14 33 14q17 0 28 -11t11 -27q0 -23 -22 -41q-55 -46 -142 -46q-111 0 -182 69t-71 181q0 111 71.5 180.5t181.5 69.5q85 0 139 -44q24 -19 24 -41q0 -18 -12 -29.5t-30 -11.5q-15 0 -37 18q-35 29 -83 29q-71 0 -113 -50t-42 -121t41.5 -120.5t112.5 -49.5
q53 0 92 31zM299 627l86 81q15 14 29 14t23 -9t9 -23q0 -15 -14 -28l-81 -80q-26 -26 -51 -26q-24 0 -51 26l-81 79q-14 14 -14 29q0 13 9.5 22.5t23.5 9.5q15 0 29 -14z" />
    <glyph glyph-name="Dcaron" unicode="&#x10e;" horiz-adv-x="761" 
d="M329 0h-184q-59 0 -59 59v590q0 59 59 59h184q71 0 136.5 -20.5t121.5 -61.5t90 -111.5t34 -160.5q0 -87 -34 -157t-89.5 -111.5t-122 -63.5t-136.5 -22zM185 622v-535h124q131 0 213.5 71.5t82.5 195.5q0 128 -82 198t-214 70h-124zM344 827l86 81q15 14 29 14
q13 0 22.5 -9t9.5 -23q0 -15 -14 -28l-81 -80q-26 -26 -51 -26q-24 0 -51 26l-81 79q-14 14 -14 29q0 13 9.5 22.5t23.5 9.5q15 0 29 -14z" />
    <glyph glyph-name="dcaron" unicode="&#x10f;" horiz-adv-x="635" 
d="M147 238q0 -71 41.5 -121.5t115.5 -50.5q70 0 115 50.5t45 120.5t-45 121t-115 51q-74 0 -115.5 -50t-41.5 -121zM552 42q0 -20 -9 -32t-18 -15t-18 -3q-10 0 -19 3t-18 15t-9 32v33h-2q-26 -42 -72.5 -65t-98.5 -23q-107 0 -173 72t-66 179t66.5 178t171.5 71
q55 0 98.5 -23.5t70.5 -60.5h2v309q0 29 15 40.5t32 11.5t32 -11.5t15 -40.5v-670zM604 571l41 109q14 36 41 36q17 0 28.5 -10t11.5 -27q0 -13 -7 -29l-43 -109q-13 -33 -40 -33q-16 0 -27 9.5t-11 25.5q0 12 6 28z" />
    <glyph glyph-name="Dcroat" unicode="&#x110;" horiz-adv-x="761" 
d="M329 0h-184q-59 0 -59 59v276h-38q-39 0 -39 35q0 7 2.5 14t11.5 14t25 7h38v244q0 59 59 59h184q71 0 136.5 -20.5t121.5 -61.5t90 -111.5t34 -160.5q0 -87 -34 -157t-89.5 -111.5t-122 -63.5t-136.5 -22zM185 622v-217h207q22 0 30.5 -11.5t8.5 -23.5q0 -13 -8.5 -24
t-30.5 -11h-207v-248h124q131 0 213.5 71.5t82.5 195.5q0 128 -82 198t-214 70h-124z" />
    <glyph glyph-name="dcroat" unicode="&#x111;" horiz-adv-x="635" 
d="M552 42q0 -20 -9 -32t-18 -15t-18 -3q-10 0 -19 3t-18 15t-9 32v33h-2q-26 -42 -72.5 -65t-98.5 -23q-107 0 -173 72t-66 179t66.5 178t171.5 71q55 0 98.5 -23.5t70.5 -60.5h2v167h-136q-20 0 -27.5 10.5t-7.5 21.5t7.5 21t27.5 10h136v79q0 29 15 40.5t32 11.5
t32 -11.5t15 -40.5v-79h29q20 0 27.5 -10t7.5 -21t-7.5 -21.5t-27.5 -10.5h-29v-528zM147 238q0 -71 41.5 -121.5t115.5 -50.5q70 0 115 50.5t45 120.5t-45 121t-115 51q-74 0 -115.5 -50t-41.5 -121z" />
    <glyph glyph-name="Emacron" unicode="&#x112;" horiz-adv-x="601" 
d="M479 324h-294v-236h330q28 0 38 -14t10 -30t-10 -30t-38 -14h-370q-59 0 -59 59v590q0 59 59 59h354q28 0 38.5 -14t10.5 -30q0 -9 -3 -17.5t-14.5 -17t-31.5 -8.5h-314v-212h294q27 0 37.5 -13.5t10.5 -28.5q0 -9 -3 -17.5t-14.5 -17t-30.5 -8.5zM436 796h-230
q-21 0 -29.5 11.5t-8.5 23.5t8.5 23t29.5 11h230q21 0 29.5 -11t8.5 -23t-8.5 -23.5t-29.5 -11.5z" />
    <glyph glyph-name="emacron" unicode="&#x113;" horiz-adv-x="573" 
d="M472 209h-326q2 -61 47 -102.5t107 -41.5q67 0 122 51q16 15 33 15t28.5 -10.5t11.5 -28.5t-15 -34q-69 -71 -180 -71q-109 0 -179.5 69t-70.5 180q0 110 70 180.5t175 70.5q91 0 151.5 -51.5t73.5 -147.5q2 -14 2 -31q0 -48 -50 -48zM146 279h282q-2 59 -36 96.5
t-97 37.5q-60 0 -102 -39t-47 -95zM412 596h-230q-21 0 -29.5 11.5t-8.5 23.5t8.5 23t29.5 11h230q21 0 29.5 -11t8.5 -23t-8.5 -23.5t-29.5 -11.5z" />
    <glyph glyph-name="Ebreve" unicode="&#x114;" horiz-adv-x="601" 
d="M479 324h-294v-236h330q28 0 38 -14t10 -30t-10 -30t-38 -14h-370q-59 0 -59 59v590q0 59 59 59h354q28 0 38.5 -14t10.5 -30q0 -9 -3 -17.5t-14.5 -17t-31.5 -8.5h-314v-212h294q27 0 37.5 -13.5t10.5 -28.5q0 -9 -3 -17.5t-14.5 -17t-30.5 -8.5zM320 834q67 0 90 54
q12 26 32 26q14 0 22 -9t8 -21q0 -10 -3 -19q-32 -95 -149 -95t-149 95q-3 9 -3 19q0 12 8 21t23 9q20 0 32 -26q24 -54 89 -54z" />
    <glyph glyph-name="ebreve" unicode="&#x115;" horiz-adv-x="573" 
d="M472 209h-326q2 -61 47 -102.5t107 -41.5q67 0 122 51q16 15 33 15t28.5 -10.5t11.5 -28.5t-15 -34q-69 -71 -180 -71q-109 0 -179.5 69t-70.5 180q0 110 70 180.5t175 70.5q91 0 151.5 -51.5t73.5 -147.5q2 -14 2 -31q0 -48 -50 -48zM146 279h282q-2 59 -36 96.5
t-97 37.5q-60 0 -102 -39t-47 -95zM297 634q67 0 90 54q12 26 32 26q14 0 22 -9t8 -21q0 -10 -3 -19q-32 -95 -149 -95t-149 95q-3 9 -3 19q0 12 8 21t23 9q20 0 32 -26q24 -54 89 -54z" />
    <glyph glyph-name="Edotaccent" unicode="&#x116;" horiz-adv-x="601" 
d="M479 324h-294v-236h330q28 0 38 -14t10 -30t-10 -30t-38 -14h-370q-59 0 -59 59v590q0 59 59 59h354q28 0 38.5 -14t10.5 -30q0 -9 -3 -17.5t-14.5 -17t-31.5 -8.5h-314v-212h294q27 0 37.5 -13.5t10.5 -28.5q0 -9 -3 -17.5t-14.5 -17t-30.5 -8.5zM388 845
q0 -25 -18.5 -42.5t-44.5 -17.5t-44 17.5t-18 42.5t18 43t44 18t44.5 -17.5t18.5 -43.5z" />
    <glyph glyph-name="edotaccent" unicode="&#x117;" horiz-adv-x="573" 
d="M472 209h-326q2 -61 47 -102.5t107 -41.5q67 0 122 51q16 15 33 15t28.5 -10.5t11.5 -28.5t-15 -34q-69 -71 -180 -71q-109 0 -179.5 69t-70.5 180q0 110 70 180.5t175 70.5q91 0 151.5 -51.5t73.5 -147.5q2 -14 2 -31q0 -48 -50 -48zM146 279h282q-2 59 -36 96.5
t-97 37.5q-60 0 -102 -39t-47 -95zM359 645q0 -25 -18.5 -42.5t-44.5 -17.5t-44 17.5t-18 42.5t18 43t44 18t44.5 -17.5t18.5 -43.5z" />
    <glyph glyph-name="Eogonek" unicode="&#x118;" horiz-adv-x="601" 
d="M566 -202q-37 -24 -77 -24q-39 0 -68 24t-29 63q0 67 86 139h-333q-59 0 -59 59v590q0 59 59 59h354q28 0 38.5 -14t10.5 -30q0 -9 -3 -17.5t-14.5 -17t-31.5 -8.5h-314v-212h294q27 0 37.5 -13.5t10.5 -28.5q0 -9 -3 -17.5t-14.5 -17t-30.5 -8.5h-294v-236h330
q28 0 38 -14t10 -30q0 -19 -14 -33q-88 -82 -88 -130q0 -20 13.5 -33t34.5 -13q12 0 30 8q11 5 19 5q10 0 17 -7t7 -17q0 -15 -16 -26z" />
    <glyph glyph-name="eogonek" unicode="&#x119;" horiz-adv-x="573" 
d="M382 -202q-37 -24 -77 -24q-39 0 -68 24t-29 63q0 60 71 127q-101 7 -165 75t-64 173q0 110 70 180.5t175 70.5q91 0 151.5 -51.5t73.5 -147.5q2 -14 2 -31q0 -48 -50 -48h-326q2 -61 47 -102.5t107 -41.5q67 0 122 51q16 15 33 15t28.5 -10.5t11.5 -28.5t-15 -34
q-56 -58 -138 -68q-65 -65 -65 -109q0 -20 13.5 -33t34.5 -13q12 0 30 8q11 5 19 5q10 0 17 -7t7 -17q0 -15 -16 -26zM146 279h282q-2 59 -36 96.5t-97 37.5q-60 0 -102 -39t-47 -95z" />
    <glyph glyph-name="Ecaron" unicode="&#x11a;" horiz-adv-x="601" 
d="M479 324h-294v-236h330q28 0 38 -14t10 -30t-10 -30t-38 -14h-370q-59 0 -59 59v590q0 59 59 59h354q28 0 38.5 -14t10.5 -30q0 -9 -3 -17.5t-14.5 -17t-31.5 -8.5h-314v-212h294q27 0 37.5 -13.5t10.5 -28.5q0 -9 -3 -17.5t-14.5 -17t-30.5 -8.5zM320 827l86 81
q15 14 29 14q13 0 22.5 -9t9.5 -23q0 -15 -14 -28l-81 -80q-26 -26 -51 -26q-24 0 -51 26l-81 79q-14 14 -14 29q0 13 9.5 22.5t23.5 9.5q15 0 29 -14z" />
    <glyph glyph-name="ecaron" unicode="&#x11b;" horiz-adv-x="573" 
d="M472 209h-326q2 -61 47 -102.5t107 -41.5q67 0 122 51q16 15 33 15t28.5 -10.5t11.5 -28.5t-15 -34q-69 -71 -180 -71q-109 0 -179.5 69t-70.5 180q0 110 70 180.5t175 70.5q91 0 151.5 -51.5t73.5 -147.5q2 -14 2 -31q0 -48 -50 -48zM146 279h282q-2 59 -36 96.5
t-97 37.5q-60 0 -102 -39t-47 -95zM296 627l86 81q15 14 29 14q13 0 22.5 -9t9.5 -23q0 -15 -14 -28l-81 -80q-26 -26 -51 -26q-24 0 -51 26l-81 79q-14 14 -14 29q0 13 9.5 22.5t23.5 9.5q15 0 29 -14z" />
    <glyph glyph-name="Gcircumflex" unicode="&#x11c;" horiz-adv-x="776" 
d="M694 330v-244q0 -25 -11 -39t-38 -25q-105 -40 -217 -40q-166 0 -272 104.5t-106 268.5t107 267.5t270 103.5q137 0 221 -65q24 -19 24 -41q0 -20 -13 -33.5t-32 -13.5t-38 14q-71 52 -161 52q-121 0 -195.5 -82t-74.5 -202q0 -122 74.5 -203t198.5 -81q100 0 165 35v197
h-118q-26 0 -36.5 14t-10.5 29q0 8 3 16.5t14.5 16.5t29.5 8h158q58 0 58 -57zM430 851l-86 -81q-15 -14 -29 -14q-13 0 -22.5 9t-9.5 23q0 15 14 28l81 80q26 26 51 26q24 0 51 -26l81 -79q14 -14 14 -29q0 -13 -9.5 -22.5t-23.5 -9.5q-15 0 -29 14z" />
    <glyph glyph-name="gcircumflex" unicode="&#x11d;" horiz-adv-x="632" 
d="M91 -174q-24 19 -24 41q0 18 12 31t32 13q17 0 36 -14q70 -55 144 -55q167 0 167 175v61h-2q-26 -39 -71 -60.5t-96 -21.5q-107 0 -173 70t-66 174q0 105 66 176t172 71q53 0 99 -23t72 -66h2v34q0 20 9 32t18 15t19 3q9 0 18 -3t18 -15t9 -32v-408q0 -54 -13.5 -99.5
t-43 -83.5t-82 -59.5t-123.5 -21.5q-117 0 -199 66zM147 242q0 -69 43 -118t114 -49q72 0 116.5 47.5t44.5 119.5q0 69 -45.5 118t-115.5 49q-72 0 -114.5 -48t-42.5 -119zM311 651l-86 -81q-15 -14 -29 -14t-23 9t-9 23q0 15 14 28l81 80q26 26 51 26q24 0 51 -26l81 -79
q14 -14 14 -29q0 -13 -9.5 -22.5t-23.5 -9.5q-15 0 -29 14z" />
    <glyph glyph-name="Gbreve" unicode="&#x11e;" horiz-adv-x="776" 
d="M694 330v-244q0 -25 -11 -39t-38 -25q-105 -40 -217 -40q-166 0 -272 104.5t-106 268.5t107 267.5t270 103.5q137 0 221 -65q24 -19 24 -41q0 -20 -13 -33.5t-32 -13.5t-38 14q-71 52 -161 52q-121 0 -195.5 -82t-74.5 -202q0 -122 74.5 -203t198.5 -81q100 0 165 35v197
h-118q-26 0 -36.5 14t-10.5 29q0 8 3 16.5t14.5 16.5t29.5 8h158q58 0 58 -57zM426 834q67 0 90 54q12 26 32 26q14 0 22 -9t8 -21q0 -10 -3 -19q-32 -95 -149 -95t-149 95q-3 9 -3 19q0 12 8 21t23 9q20 0 32 -26q24 -54 89 -54z" />
    <glyph glyph-name="gbreve" unicode="&#x11f;" horiz-adv-x="632" 
d="M91 -174q-24 19 -24 41q0 18 12 31t32 13q17 0 36 -14q70 -55 144 -55q167 0 167 175v61h-2q-26 -39 -71 -60.5t-96 -21.5q-107 0 -173 70t-66 174q0 105 66 176t172 71q53 0 99 -23t72 -66h2v34q0 20 9 32t18 15t19 3q9 0 18 -3t18 -15t9 -32v-408q0 -54 -13.5 -99.5
t-43 -83.5t-82 -59.5t-123.5 -21.5q-117 0 -199 66zM147 242q0 -69 43 -118t114 -49q72 0 116.5 47.5t44.5 119.5q0 69 -45.5 118t-115.5 49q-72 0 -114.5 -48t-42.5 -119zM311 634q67 0 90 54q12 26 32 26q14 0 22 -9t8 -21q0 -10 -3 -19q-32 -95 -149 -95t-149 95
q-3 9 -3 19q0 12 8 21t23 9q20 0 32 -26q24 -54 89 -54z" />
    <glyph glyph-name="Gdotaccent" unicode="&#x120;" horiz-adv-x="776" 
d="M694 330v-244q0 -25 -11 -39t-38 -25q-105 -40 -217 -40q-166 0 -272 104.5t-106 268.5t107 267.5t270 103.5q137 0 221 -65q24 -19 24 -41q0 -20 -13 -33.5t-32 -13.5t-38 14q-71 52 -161 52q-121 0 -195.5 -82t-74.5 -202q0 -122 74.5 -203t198.5 -81q100 0 165 35v197
h-118q-26 0 -36.5 14t-10.5 29q0 8 3 16.5t14.5 16.5t29.5 8h158q58 0 58 -57zM489 845q0 -25 -18.5 -42.5t-44.5 -17.5t-44 17.5t-18 42.5t18 43t44 18t44.5 -17.5t18.5 -43.5z" />
    <glyph glyph-name="gdotaccent" unicode="&#x121;" horiz-adv-x="632" 
d="M91 -174q-24 19 -24 41q0 18 12 31t32 13q17 0 36 -14q70 -55 144 -55q167 0 167 175v61h-2q-26 -39 -71 -60.5t-96 -21.5q-107 0 -173 70t-66 174q0 105 66 176t172 71q53 0 99 -23t72 -66h2v34q0 20 9 32t18 15t19 3q9 0 18 -3t18 -15t9 -32v-408q0 -54 -13.5 -99.5
t-43 -83.5t-82 -59.5t-123.5 -21.5q-117 0 -199 66zM147 242q0 -69 43 -118t114 -49q72 0 116.5 47.5t44.5 119.5q0 69 -45.5 118t-115.5 49q-72 0 -114.5 -48t-42.5 -119zM374 645q0 -25 -18.5 -42.5t-44.5 -17.5t-44 17.5t-18 42.5t18 43t44 18t44.5 -17.5t18.5 -43.5z
" />
    <glyph glyph-name="Gcommaaccent" unicode="&#x122;" horiz-adv-x="776" 
d="M694 330v-244q0 -25 -11 -39t-38 -25q-105 -40 -217 -40q-166 0 -272 104.5t-106 268.5t107 267.5t270 103.5q137 0 221 -65q24 -19 24 -41q0 -20 -13 -33.5t-32 -13.5t-38 14q-71 52 -161 52q-121 0 -195.5 -82t-74.5 -202q0 -122 74.5 -203t198.5 -81q100 0 165 35v197
h-118q-26 0 -36.5 14t-10.5 29q0 8 3 16.5t14.5 16.5t29.5 8h158q58 0 58 -57zM344 -178l49 109q14 32 40 32q17 0 28 -10.5t11 -26.5q0 -15 -8 -31l-50 -105q-15 -33 -42 -33q-15 0 -25.5 10t-10.5 26q0 10 8 29z" />
    <glyph glyph-name="gcommaaccent" unicode="&#x123;" horiz-adv-x="632" 
d="M91 -174q-24 19 -24 41q0 18 12 31t32 13q17 0 36 -14q70 -55 144 -55q167 0 167 175v61h-2q-26 -39 -71 -60.5t-96 -21.5q-107 0 -173 70t-66 174q0 105 66 176t172 71q53 0 99 -23t72 -66h2v34q0 20 9 32t18 15t19 3q9 0 18 -3t18 -15t9 -32v-408q0 -54 -13.5 -99.5
t-43 -83.5t-82 -59.5t-123.5 -21.5q-117 0 -199 66zM147 242q0 -69 43 -118t114 -49q72 0 116.5 47.5t44.5 119.5q0 69 -45.5 118t-115.5 49q-72 0 -114.5 -48t-42.5 -119zM392 697l-49 -109q-14 -32 -40 -32q-17 0 -28 10.5t-11 26.5q0 15 8 31l50 105q15 33 42 33
q15 0 25.5 -10t10.5 -26q0 -10 -8 -29z" />
    <glyph glyph-name="Hcircumflex" unicode="&#x124;" horiz-adv-x="729" 
d="M544 412v248q0 31 16 43.5t34 12.5q17 0 33 -12.5t16 -43.5v-612q0 -31 -16 -43.5t-33 -12.5q-18 0 -34 12.5t-16 43.5v276h-359v-276q0 -31 -16 -43.5t-33 -12.5q-18 0 -34 12.5t-16 43.5v612q0 31 16 43.5t34 12.5q17 0 33 -12.5t16 -43.5v-248h359zM365 851l-86 -81
q-15 -14 -29 -14t-23 9t-9 23q0 15 14 28l81 80q26 26 51 26q24 0 51 -26l81 -79q14 -14 14 -29q0 -13 -9.5 -22.5t-23.5 -9.5q-15 0 -29 14z" />
    <glyph glyph-name="hcircumflex" unicode="&#x125;" horiz-adv-x="584" 
d="M412 44v218q0 145 -107 145q-56 0 -92 -43t-36 -113v-207q0 -29 -15 -40.5t-32 -11.5t-32 11.5t-15 40.5v668q0 29 15 40.5t32 11.5t32 -11.5t15 -40.5v-310h2q17 36 58.5 60.5t91.5 24.5q87 0 132 -54t45 -139v-250q0 -29 -15 -40.5t-32 -11.5t-32 11.5t-15 40.5z
M292 887l-86 -81q-15 -14 -29 -14q-13 0 -22.5 9t-9.5 23q0 15 14 28l81 80q26 26 51 26q24 0 51 -26l81 -79q14 -14 14 -29q0 -13 -9.5 -22.5t-23.5 -9.5q-15 0 -29 14z" />
    <glyph glyph-name="Hbar" unicode="&#x126;" horiz-adv-x="729" 
d="M185 660v-97h359v97q0 31 16 43.5t34 12.5q17 0 33 -12.5t16 -43.5v-612q0 -31 -16 -43.5t-33 -12.5q-18 0 -34 12.5t-16 43.5v276h-359v-276q0 -31 -16 -43.5t-33 -12.5q-18 0 -34 12.5t-16 43.5v612q0 31 16 43.5t34 12.5q17 0 33 -12.5t16 -43.5zM544 412v88h-359v-88
h359z" />
    <glyph glyph-name="hbar" unicode="&#x127;" horiz-adv-x="584" 
d="M412 44v218q0 145 -107 145q-56 0 -92 -43t-36 -113v-207q0 -29 -15 -40.5t-32 -11.5t-32 11.5t-15 40.5v526h-27q-20 0 -27.5 10.5t-7.5 21.5t7.5 21t27.5 10h27v79q0 29 15 40.5t32 11.5t32 -11.5t15 -40.5v-79h137q20 0 27.5 -10t7.5 -21t-7.5 -21.5t-27.5 -10.5h-137
v-168h2q17 36 58.5 60.5t91.5 24.5q87 0 132 -54t45 -139v-250q0 -29 -15 -40.5t-32 -11.5t-32 11.5t-15 40.5z" />
    <glyph glyph-name="Itilde" unicode="&#x128;" horiz-adv-x="271" 
d="M185 660v-612q0 -31 -16 -43.5t-33 -12.5q-18 0 -34 12.5t-16 43.5v612q0 31 16 43.5t34 12.5q17 0 33 -12.5t16 -43.5zM205 776q-31 0 -75 23q-42 21 -62 21q-24 0 -38 -31q-10 -23 -30 -23q-31 0 -31 31q0 11 5 23q26 68 93 68q27 0 75 -23q44 -21 62 -21q24 0 38 31
q10 23 30 23q30 0 30 -30q0 -12 -5 -24q-26 -68 -92 -68z" />
    <glyph glyph-name="itilde" unicode="&#x129;" horiz-adv-x="259" 
d="M176 430v-386q0 -29 -15 -40.5t-32 -11.5t-32 11.5t-15 40.5v386q0 29 15 40.5t32 11.5t32 -11.5t15 -40.5zM201 576q-31 0 -75 23q-42 21 -62 21q-24 0 -38 -31q-10 -23 -30 -23q-31 0 -31 31q0 11 5 23q26 68 93 68q27 0 75 -23q44 -21 62 -21q24 0 38 31q10 23 30 23
q30 0 30 -30q0 -12 -5 -24q-26 -68 -92 -68z" />
    <glyph glyph-name="Imacron" unicode="&#x12a;" horiz-adv-x="271" 
d="M185 660v-612q0 -31 -16 -43.5t-33 -12.5q-18 0 -34 12.5t-16 43.5v612q0 31 16 43.5t34 12.5q17 0 33 -12.5t16 -43.5zM251 796h-230q-21 0 -29.5 11.5t-8.5 23.5t8.5 23t29.5 11h230q21 0 29.5 -11t8.5 -23t-8.5 -23.5t-29.5 -11.5z" />
    <glyph glyph-name="imacron" unicode="&#x12b;" horiz-adv-x="259" 
d="M176 430v-386q0 -29 -15 -40.5t-32 -11.5t-32 11.5t-15 40.5v386q0 29 15 40.5t32 11.5t32 -11.5t15 -40.5zM246 596h-230q-21 0 -29.5 11.5t-8.5 23.5t8.5 23t29.5 11h230q21 0 29.5 -11t8.5 -23t-8.5 -23.5t-29.5 -11.5z" />
    <glyph glyph-name="Iogonek" unicode="&#x12e;" horiz-adv-x="271" 
d="M209 -202q-37 -24 -77 -24q-39 0 -68 24t-29 63q0 35 17 66t56 73q-22 15 -22 48v612q0 31 16 43.5t34 12.5q17 0 33 -12.5t16 -43.5v-612q0 -24 -12 -39q-41 -52 -55 -79t-14 -49q0 -20 13.5 -33t34.5 -13q12 0 30 8q11 5 19 5q10 0 17 -7t7 -17q0 -15 -16 -26z" />
    <glyph glyph-name="iogonek" unicode="&#x12f;" horiz-adv-x="259" 
d="M176 430v-386q0 -25 -13 -39q-71 -81 -71 -124q0 -20 13.5 -33t34.5 -13q12 0 30 8q11 5 19 5q10 0 17 -7t7 -17q0 -15 -16 -26q-37 -24 -77 -24q-39 0 -68 24t-29 63q0 55 77 140q-18 13 -18 43v386q0 29 15 40.5t32 11.5t32 -11.5t15 -40.5zM192 645q0 -25 -18.5 -42.5
t-44.5 -17.5t-44 17.5t-18 42.5t18 43t44 18t44.5 -17.5t18.5 -43.5z" />
    <glyph glyph-name="Idotaccent" unicode="&#x130;" horiz-adv-x="271" 
d="M185 660v-612q0 -31 -16 -43.5t-33 -12.5q-18 0 -34 12.5t-16 43.5v612q0 31 16 43.5t34 12.5q17 0 33 -12.5t16 -43.5zM198 845q0 -25 -18.5 -42.5t-44.5 -17.5t-44 17.5t-18 42.5t18 43t44 18t44.5 -17.5t18.5 -43.5z" />
    <glyph glyph-name="dotlessi" unicode="&#x131;" horiz-adv-x="259" 
d="M176 430v-386q0 -29 -15 -40.5t-32 -11.5t-32 11.5t-15 40.5v386q0 29 15 40.5t32 11.5t32 -11.5t15 -40.5z" />
    <glyph glyph-name="Jcircumflex" unicode="&#x134;" horiz-adv-x="495" 
d="M415 217q0 -32 -5 -62t-18.5 -62.5t-35 -56t-58 -39t-84.5 -15.5q-116 0 -173 88q-15 22 -15 42q0 19 13.5 32t33.5 13q28 0 45 -30q33 -57 91 -57q107 0 107 151v439q0 31 16 43.5t33 12.5q18 0 34 -12.5t16 -43.5v-443zM365 851l-86 -81q-15 -14 -29 -14t-23 9t-9 23
q0 15 14 28l81 80q26 26 51 26q24 0 51 -26l81 -79q14 -14 14 -29q0 -13 -9.5 -22.5t-23.5 -9.5q-15 0 -29 14z" />
    <glyph glyph-name="jcircumflex" unicode="&#x135;" horiz-adv-x="260" 
d="M131 651l-86 -81q-15 -14 -29 -14t-23 9t-9 23q0 15 14 28l81 80q26 26 51 26q24 0 51 -26l81 -79q14 -14 14 -29q0 -13 -9.5 -22.5t-23.5 -9.5q-15 0 -29 14zM83 -61v491q0 29 15 40.5t32 11.5t32 -11.5t15 -40.5v-490q0 -180 -151 -180q-60 0 -60 43q0 17 10.5 27.5
t29.5 10.5h12q37 0 51 25t14 73z" />
    <glyph glyph-name="Kcommaaccent" unicode="&#x136;" horiz-adv-x="659" 
d="M609 84q20 -20 20 -43q0 -20 -14 -34.5t-36 -14.5q-23 0 -43 21l-349 353h-2v-318q0 -31 -16 -43.5t-33 -12.5q-18 0 -34 12.5t-16 43.5v612q0 31 16 43.5t34 12.5q17 0 33 -12.5t16 -43.5v-264h2l332 301q22 19 41 19q20 0 33.5 -12.5t13.5 -31.5q0 -24 -21 -42
l-288 -246zM267 -178l49 109q14 32 40 32q17 0 28 -10.5t11 -26.5q0 -15 -8 -31l-50 -105q-15 -33 -42 -33q-15 0 -25.5 10t-10.5 26q0 10 8 29z" />
    <glyph glyph-name="kcommaaccent" unicode="&#x137;" horiz-adv-x="527" 
d="M407 14l-227 232h-3v-202q0 -29 -15 -40.5t-32 -11.5t-32 11.5t-15 40.5v668q0 29 15 40.5t32 11.5t32 -11.5t15 -40.5v-444h3l212 197q18 17 37 17t32 -12.5t13 -31.5q0 -20 -20 -38l-163 -141l188 -182q18 -18 18 -39q0 -20 -13.5 -33t-33.5 -13q-21 0 -43 22z
M201 -178l49 109q14 32 40 32q17 0 28 -10.5t11 -26.5q0 -15 -8 -31l-50 -105q-15 -33 -42 -33q-15 0 -25.5 10t-10.5 26q0 10 8 29z" />
    <glyph glyph-name="Lacute" unicode="&#x139;" horiz-adv-x="511" 
d="M86 59v601q0 31 16 43.5t34 12.5q17 0 33 -12.5t16 -43.5v-572h275q28 0 38.5 -14t10.5 -30t-10.5 -30t-38.5 -14h-315q-59 0 -59 59zM124 827l75 76q19 19 38 19q17 0 27.5 -11t10.5 -27q0 -19 -21 -38l-77 -73q-17 -17 -36 -17q-15 0 -25 11t-10 25q0 17 18 35z" />
    <glyph glyph-name="lacute" unicode="&#x13a;" horiz-adv-x="260" 
d="M83 44v668q0 29 15 40.5t32 11.5t32 -11.5t15 -40.5v-668q0 -29 -15 -40.5t-32 -11.5t-32 11.5t-15 40.5zM116 855l75 76q19 19 38 19q17 0 27.5 -11t10.5 -27q0 -19 -21 -38l-77 -73q-17 -17 -36 -17q-15 0 -25 11t-10 25q0 17 18 35z" />
    <glyph glyph-name="Lcommaaccent" unicode="&#x13b;" horiz-adv-x="511" 
d="M86 59v601q0 31 16 43.5t34 12.5q17 0 33 -12.5t16 -43.5v-572h275q28 0 38.5 -14t10.5 -30t-10.5 -30t-38.5 -14h-315q-59 0 -59 59zM216 -178l49 109q14 32 40 32q17 0 28 -10.5t11 -26.5q0 -15 -8 -31l-50 -105q-15 -33 -42 -33q-15 0 -25.5 10t-10.5 26q0 10 8 29z
" />
    <glyph glyph-name="lcommaaccent" unicode="&#x13c;" horiz-adv-x="260" 
d="M83 44v668q0 29 15 40.5t32 11.5t32 -11.5t15 -40.5v-668q0 -29 -15 -40.5t-32 -11.5t-32 11.5t-15 40.5zM41 -178l49 109q14 32 40 32q17 0 28 -10.5t11 -26.5q0 -15 -8 -31l-50 -105q-15 -33 -42 -33q-15 0 -25.5 10t-10.5 26q0 10 8 29z" />
    <glyph glyph-name="Lcaron" unicode="&#x13d;" horiz-adv-x="511" 
d="M86 59v601q0 31 16 43.5t34 12.5q17 0 33 -12.5t16 -43.5v-572h275q28 0 38.5 -14t10.5 -30t-10.5 -30t-38.5 -14h-315q-59 0 -59 59zM268 571l41 109q14 36 41 36q17 0 28.5 -10t11.5 -27q0 -13 -7 -29l-43 -109q-13 -33 -40 -33q-16 0 -27 9.5t-11 25.5q0 12 6 28z" />
    <glyph glyph-name="lcaron" unicode="&#x13e;" horiz-adv-x="260" 
d="M83 44v668q0 29 15 40.5t32 11.5t32 -11.5t15 -40.5v-668q0 -29 -15 -40.5t-32 -11.5t-32 11.5t-15 40.5zM232 571l41 109q14 36 41 36q17 0 28.5 -10t11.5 -27q0 -13 -7 -29l-43 -109q-13 -33 -40 -33q-16 0 -27 9.5t-11 25.5q0 12 6 28z" />
    <glyph glyph-name="Ldot" unicode="&#x13f;" horiz-adv-x="511" 
d="M86 59v601q0 31 16 43.5t34 12.5q17 0 33 -12.5t16 -43.5v-572h275q28 0 38.5 -14t10.5 -30t-10.5 -30t-38.5 -14h-315q-59 0 -59 59zM410 425q0 -25 -18.5 -42.5t-44.5 -17.5t-44 17.5t-18 42.5t18 43t44 18t44.5 -17.5t18.5 -43.5z" />
    <glyph glyph-name="ldot" unicode="&#x140;" horiz-adv-x="352" 
d="M83 44v668q0 29 15 40.5t32 11.5t32 -11.5t15 -40.5v-668q0 -29 -15 -40.5t-32 -11.5t-32 11.5t-15 40.5zM361 455q0 -25 -18.5 -42.5t-44.5 -17.5t-44 17.5t-18 42.5t18 43t44 18t44.5 -17.5t18.5 -43.5z" />
    <glyph glyph-name="Lslash" unicode="&#x141;" horiz-adv-x="511" 
d="M86 59v162l-22 -19q-14 -13 -29 -13q-14 0 -23.5 9t-9.5 24t16 30l68 59v349q0 31 16 43.5t34 12.5q17 0 33 -12.5t16 -43.5v-275l158 138q13 12 28 12q14 0 23.5 -9t9.5 -23q0 -16 -16 -31l-203 -177v-207h275q28 0 38.5 -14t10.5 -30t-10.5 -30t-38.5 -14h-315
q-59 0 -59 59z" />
    <glyph glyph-name="lslash" unicode="&#x142;" horiz-adv-x="260" 
d="M83 44v270l-26 -26q-13 -13 -26 -13q-14 0 -22.5 9t-8.5 23q0 15 12 27l71 71v307q0 29 15 40.5t32 11.5t32 -11.5t15 -40.5v-231l26 26q12 12 25 12t22 -8.5t9 -21.5q0 -15 -13 -28l-69 -70v-347q0 -29 -15 -40.5t-32 -11.5t-32 11.5t-15 40.5z" />
    <glyph glyph-name="Nacute" unicode="&#x143;" horiz-adv-x="772" 
d="M549 43l-362 506h-2v-501q0 -31 -16 -43.5t-33 -12.5q-18 0 -34 12.5t-16 43.5v594q0 41 20 57.5t43 16.5q38 0 74 -51l362 -502h2v497q0 31 16 43.5t34 12.5q17 0 33 -12.5t16 -43.5v-594q0 -41 -20 -57.5t-43 -16.5q-38 0 -74 51zM356 827l75 76q19 19 38 19
q17 0 27.5 -11t10.5 -27q0 -19 -21 -38l-77 -73q-17 -17 -36 -17q-15 0 -25 11t-10 25q0 17 18 35z" />
    <glyph glyph-name="nacute" unicode="&#x144;" horiz-adv-x="582" 
d="M170 432v-36h3q18 39 61 65t93 26q87 0 132 -54t45 -139v-250q0 -29 -15 -40.5t-32 -11.5t-32 11.5t-15 40.5v219q0 145 -108 145q-56 0 -91.5 -43t-35.5 -113v-208q0 -29 -15 -40.5t-32 -11.5t-32 11.5t-15 40.5v388q0 20 8.5 32t17.5 15t19 3q9 0 18 -3t17.5 -15
t8.5 -32zM262 627l75 76q19 19 38 19q17 0 27.5 -11t10.5 -27q0 -19 -21 -38l-77 -73q-17 -17 -36 -17q-15 0 -25 11t-10 25q0 17 18 35z" />
    <glyph glyph-name="Ncommaaccent" unicode="&#x145;" horiz-adv-x="772" 
d="M549 43l-362 506h-2v-501q0 -31 -16 -43.5t-33 -12.5q-18 0 -34 12.5t-16 43.5v594q0 41 20 57.5t43 16.5q38 0 74 -51l362 -502h2v497q0 31 16 43.5t34 12.5q17 0 33 -12.5t16 -43.5v-594q0 -41 -20 -57.5t-43 -16.5q-38 0 -74 51zM304 -178l49 109q14 32 40 32
q17 0 28 -10.5t11 -26.5q0 -15 -8 -31l-50 -105q-15 -33 -42 -33q-15 0 -25.5 10t-10.5 26q0 10 8 29z" />
    <glyph glyph-name="ncommaaccent" unicode="&#x146;" horiz-adv-x="582" 
d="M170 432v-36h3q18 39 61 65t93 26q87 0 132 -54t45 -139v-250q0 -29 -15 -40.5t-32 -11.5t-32 11.5t-15 40.5v219q0 145 -108 145q-56 0 -91.5 -43t-35.5 -113v-208q0 -29 -15 -40.5t-32 -11.5t-32 11.5t-15 40.5v388q0 20 8.5 32t17.5 15t19 3q9 0 18 -3t17.5 -15
t8.5 -32zM212 -178l49 109q14 32 40 32q17 0 28 -10.5t11 -26.5q0 -15 -8 -31l-50 -105q-15 -33 -42 -33q-15 0 -25.5 10t-10.5 26q0 10 8 29z" />
    <glyph glyph-name="Ncaron" unicode="&#x147;" horiz-adv-x="772" 
d="M549 43l-362 506h-2v-501q0 -31 -16 -43.5t-33 -12.5q-18 0 -34 12.5t-16 43.5v594q0 41 20 57.5t43 16.5q38 0 74 -51l362 -502h2v497q0 31 16 43.5t34 12.5q17 0 33 -12.5t16 -43.5v-594q0 -41 -20 -57.5t-43 -16.5q-38 0 -74 51zM385 827l86 81q15 14 29 14t23 -9
t9 -23q0 -15 -14 -28l-81 -80q-26 -26 -51 -26q-24 0 -51 26l-81 79q-14 14 -14 29q0 13 9.5 22.5t23.5 9.5q15 0 29 -14z" />
    <glyph glyph-name="ncaron" unicode="&#x148;" horiz-adv-x="582" 
d="M170 432v-36h3q18 39 61 65t93 26q87 0 132 -54t45 -139v-250q0 -29 -15 -40.5t-32 -11.5t-32 11.5t-15 40.5v219q0 145 -108 145q-56 0 -91.5 -43t-35.5 -113v-208q0 -29 -15 -40.5t-32 -11.5t-32 11.5t-15 40.5v388q0 20 8.5 32t17.5 15t19 3q9 0 18 -3t17.5 -15
t8.5 -32zM289 627l86 81q15 14 29 14t23 -9t9 -23q0 -15 -14 -28l-81 -80q-26 -26 -51 -26q-24 0 -51 26l-81 79q-14 14 -14 29q0 13 9.5 22.5t23.5 9.5q15 0 29 -14z" />
    <glyph glyph-name="Omacron" unicode="&#x14c;" horiz-adv-x="849" 
d="M800 355q0 -163 -106.5 -268t-269.5 -105q-162 0 -268 105t-106 268q0 164 105.5 267.5t268.5 103.5t269.5 -103.5t106.5 -267.5zM692 355q0 120 -73.5 202t-194.5 82q-119 0 -193 -82t-74 -202q0 -121 74 -202.5t193 -81.5q120 0 194 81.5t74 202.5zM542 796h-230
q-21 0 -29.5 11.5t-8.5 23.5t8.5 23t29.5 11h230q21 0 29.5 -11t8.5 -23t-8.5 -23.5t-29.5 -11.5z" />
    <glyph glyph-name="omacron" unicode="&#x14d;" horiz-adv-x="610" 
d="M561 238q0 -109 -73.5 -180t-182.5 -71t-182 71t-73 180t72.5 179t182.5 70t183 -70t73 -179zM463 238q0 71 -42.5 121t-115.5 50t-115.5 -50t-42.5 -121t42.5 -121.5t115.5 -50.5t115.5 50.5t42.5 121.5zM421 596h-230q-21 0 -29.5 11.5t-8.5 23.5t8.5 23t29.5 11h230
q21 0 29.5 -11t8.5 -23t-8.5 -23.5t-29.5 -11.5z" />
    <glyph glyph-name="Obreve" unicode="&#x14e;" horiz-adv-x="849" 
d="M800 355q0 -163 -106.5 -268t-269.5 -105q-162 0 -268 105t-106 268q0 164 105.5 267.5t268.5 103.5t269.5 -103.5t106.5 -267.5zM692 355q0 120 -73.5 202t-194.5 82q-119 0 -193 -82t-74 -202q0 -121 74 -202.5t193 -81.5q120 0 194 81.5t74 202.5zM426 834q67 0 90 54
q12 26 32 26q14 0 22 -9t8 -21q0 -10 -3 -19q-32 -95 -149 -95t-149 95q-3 9 -3 19q0 12 8 21t23 9q20 0 32 -26q24 -54 89 -54z" />
    <glyph glyph-name="obreve" unicode="&#x14f;" horiz-adv-x="610" 
d="M561 238q0 -109 -73.5 -180t-182.5 -71t-182 71t-73 180t72.5 179t182.5 70t183 -70t73 -179zM463 238q0 71 -42.5 121t-115.5 50t-115.5 -50t-42.5 -121t42.5 -121.5t115.5 -50.5t115.5 50.5t42.5 121.5zM306 634q67 0 90 54q12 26 32 26q14 0 22 -9t8 -21q0 -10 -3 -19
q-32 -95 -149 -95t-149 95q-3 9 -3 19q0 12 8 21t23 9q20 0 32 -26q24 -54 89 -54z" />
    <glyph glyph-name="Ohungarumlaut" unicode="&#x150;" horiz-adv-x="849" 
d="M800 355q0 -163 -106.5 -268t-269.5 -105q-162 0 -268 105t-106 268q0 164 105.5 267.5t268.5 103.5t269.5 -103.5t106.5 -267.5zM692 355q0 120 -73.5 202t-194.5 82q-119 0 -193 -82t-74 -202q0 -121 74 -202.5t193 -81.5q120 0 194 81.5t74 202.5zM510 827l69 77
q16 18 37 18q16 -1 26 -11t10 -25q0 -18 -18 -37l-71 -76q-16 -17 -35 -17q-15 0 -25 10.5t-10 24.5q0 18 17 36zM321 827l69 77q16 18 37 18q16 -1 26 -11t10 -25q0 -18 -18 -37l-71 -76q-16 -17 -35 -17q-15 0 -25 10.5t-10 24.5q0 18 17 36z" />
    <glyph glyph-name="ohungarumlaut" unicode="&#x151;" horiz-adv-x="610" 
d="M561 238q0 -109 -73.5 -180t-182.5 -71t-182 71t-73 180t72.5 179t182.5 70t183 -70t73 -179zM463 238q0 71 -42.5 121t-115.5 50t-115.5 -50t-42.5 -121t42.5 -121.5t115.5 -50.5t115.5 50.5t42.5 121.5zM397 627l69 77q16 18 37 18q16 -1 26 -11t10 -25q0 -18 -18 -37
l-71 -76q-16 -17 -35 -17q-15 0 -25 10.5t-10 24.5q0 18 17 36zM208 627l69 77q16 18 37 18q16 -1 26 -11t10 -25q0 -18 -18 -37l-71 -76q-16 -17 -35 -17q-15 0 -25 10.5t-10 24.5q0 18 17 36z" />
    <glyph glyph-name="OE" unicode="&#x152;" horiz-adv-x="1003" 
d="M452 621q-133 0 -214.5 -69.5t-81.5 -197.5q0 -124 82.5 -195t213.5 -71h60v533h-60zM901 621h-290v-212h270q27 0 37.5 -13.5t10.5 -28.5q0 -9 -3 -17.5t-14.5 -17t-30.5 -8.5h-270v-236h306q27 0 37.5 -14t10.5 -30t-10.5 -30t-37.5 -14h-485q-70 0 -136.5 22
t-122 63.5t-89.5 111.5t-34 157q0 90 34 160.5t90 111.5t121.5 61.5t136.5 20.5h469q28 0 38.5 -14t10.5 -30q0 -9 -3 -17.5t-15 -17t-31 -8.5z" />
    <glyph glyph-name="oe" unicode="&#x153;" horiz-adv-x="976" 
d="M463 238q0 71 -42.5 121t-115.5 50t-116 -50t-43 -121t43 -121.5t116 -50.5t115.5 50.5t42.5 121.5zM549 279h283q-2 59 -36.5 96.5t-97.5 37.5q-60 0 -102 -39t-47 -95zM875 209h-327q4 -61 48.5 -102.5t106.5 -41.5q68 0 121 51q16 15 34 15q17 0 28.5 -10.5
t11.5 -28.5q0 -19 -15 -34q-70 -71 -181 -71q-65 0 -116.5 27t-82.5 75q-31 -47 -83.5 -74.5t-117.5 -27.5q-109 0 -180.5 71t-71.5 180t71.5 179t180.5 70q65 0 118 -27.5t84 -75.5q32 47 82 75t112 28q91 0 151.5 -51.5t73.5 -147.5q2 -14 2 -31q0 -48 -50 -48z" />
    <glyph glyph-name="Racute" unicode="&#x154;" horiz-adv-x="614" 
d="M185 624v-226h114q166 0 166 114q0 112 -159 112h-121zM477 19l-186 296h-106v-267q0 -31 -16 -43.5t-33 -12.5q-18 0 -34 12.5t-16 43.5v601q0 59 59 59h168q112 0 182 -47t70 -149q0 -76 -46.5 -125t-124.5 -62l166 -250q11 -17 11 -34q0 -21 -14 -35t-36 -14
q-27 0 -44 27zM257 827l75 76q19 19 38 19q16 0 27 -11t11 -27q0 -19 -21 -38l-77 -73q-17 -17 -36 -17q-15 0 -25 11t-10 25q0 17 18 35z" />
    <glyph glyph-name="racute" unicode="&#x155;" horiz-adv-x="362" 
d="M170 432v-38h3q18 41 55.5 67t82.5 26q55 0 55 -42q0 -45 -56 -45h-7q-57 0 -92.5 -41t-35.5 -116v-199q0 -29 -15 -40.5t-32 -11.5t-32 11.5t-15 40.5v388q0 20 8.5 32t17.5 15t19 3q9 0 18 -3t17.5 -15t8.5 -32zM149 627l75 76q19 19 38 19q16 0 27 -11t11 -27
q0 -19 -21 -38l-77 -73q-17 -17 -36 -17q-15 0 -25 11t-10 25q0 17 18 35z" />
    <glyph glyph-name="Rcommaaccent" unicode="&#x156;" horiz-adv-x="614" 
d="M185 624v-226h114q166 0 166 114q0 112 -159 112h-121zM477 19l-186 296h-106v-267q0 -31 -16 -43.5t-33 -12.5q-18 0 -34 12.5t-16 43.5v601q0 59 59 59h168q112 0 182 -47t70 -149q0 -76 -46.5 -125t-124.5 -62l166 -250q11 -17 11 -34q0 -21 -14 -35t-36 -14
q-27 0 -44 27zM238 -178l49 109q14 32 40 32q17 0 28 -10.5t11 -26.5q0 -15 -8 -31l-50 -105q-15 -33 -42 -33q-15 0 -25.5 10t-10.5 26q0 10 8 29z" />
    <glyph glyph-name="rcommaaccent" unicode="&#x157;" horiz-adv-x="362" 
d="M170 432v-38h3q18 41 55.5 67t82.5 26q55 0 55 -42q0 -45 -56 -45h-7q-57 0 -92.5 -41t-35.5 -116v-199q0 -29 -15 -40.5t-32 -11.5t-32 11.5t-15 40.5v388q0 20 8.5 32t17.5 15t19 3q9 0 18 -3t17.5 -15t8.5 -32zM39 -178l49 109q14 32 40 32q17 0 28 -10.5t11 -26.5
q0 -15 -8 -31l-50 -105q-15 -33 -42 -33q-15 0 -25.5 10t-10.5 26q0 10 8 29z" />
    <glyph glyph-name="Rcaron" unicode="&#x158;" horiz-adv-x="614" 
d="M185 624v-226h114q166 0 166 114q0 112 -159 112h-121zM477 19l-186 296h-106v-267q0 -31 -16 -43.5t-33 -12.5q-18 0 -34 12.5t-16 43.5v601q0 59 59 59h168q112 0 182 -47t70 -149q0 -76 -46.5 -125t-124.5 -62l166 -250q11 -17 11 -34q0 -21 -14 -35t-36 -14
q-27 0 -44 27zM296 827l86 81q15 14 29 14q13 0 22.5 -9t9.5 -23q0 -15 -14 -28l-81 -80q-26 -26 -51 -26q-24 0 -51 26l-81 79q-14 14 -14 29q0 13 9.5 22.5t23.5 9.5q15 0 29 -14z" />
    <glyph glyph-name="rcaron" unicode="&#x159;" horiz-adv-x="362" 
d="M170 432v-38h3q18 41 55.5 67t82.5 26q55 0 55 -42q0 -45 -56 -45h-7q-57 0 -92.5 -41t-35.5 -116v-199q0 -29 -15 -40.5t-32 -11.5t-32 11.5t-15 40.5v388q0 20 8.5 32t17.5 15t19 3q9 0 18 -3t17.5 -15t8.5 -32zM211 627l86 81q15 14 29 14t23 -9t9 -23q0 -15 -14 -28
l-81 -80q-26 -26 -51 -26q-24 0 -51 26l-81 79q-14 14 -14 29q0 13 9.5 22.5t23.5 9.5q15 0 29 -14z" />
    <glyph glyph-name="Sacute" unicode="&#x15a;" horiz-adv-x="569" 
d="M139 124q58 -57 133 -57q56 0 99 31.5t43 89.5q0 25 -10 45t-22 32t-39 24.5t-43.5 18.5t-53.5 17q-40 13 -67.5 25.5t-57 35t-44.5 57.5t-15 81q0 98 72.5 150t169.5 52q102 0 166 -54q22 -19 22 -40q0 -18 -13 -31t-32 -13q-18 0 -37 15q-50 40 -110 40
q-54 0 -96 -29.5t-42 -85.5q0 -28 10 -47.5t34 -34t43 -22t58 -20.5q39 -12 59.5 -19.5t53.5 -25.5t50.5 -37.5t31 -51.5t13.5 -73q0 -104 -71.5 -159.5t-173.5 -55.5q-120 0 -194 68q-21 19 -21 43q0 19 13.5 33t33.5 14t37 -16zM264 827l75 76q19 19 38 19q17 0 27.5 -11
t10.5 -27q0 -19 -21 -38l-77 -73q-17 -17 -36 -17q-15 0 -25 11t-10 25q0 17 18 35z" />
    <glyph glyph-name="sacute" unicode="&#x15b;" horiz-adv-x="444" 
d="M318 377q-39 36 -91 36q-36 0 -62 -15.5t-26 -46.5q0 -28 25 -43t83 -28q75 -17 117 -49t42 -91q0 -78 -54.5 -115.5t-134.5 -37.5q-95 0 -156 53q-20 18 -20 38q0 18 11.5 30t29.5 12q17 0 35 -15q48 -42 102 -42q40 0 67 16.5t27 52.5q0 31 -28.5 47t-95.5 32
q-29 7 -49 14.5t-42.5 22t-34.5 38.5t-12 56q0 72 52.5 108.5t126.5 36.5q84 0 137 -45q22 -18 22 -38q0 -17 -11.5 -29t-29.5 -12q-15 0 -30 14zM203 627l75 76q19 19 38 19q16 0 27 -11t11 -27q0 -19 -21 -38l-77 -73q-17 -17 -36 -17q-15 0 -25 11t-10 25q0 17 18 35z
" />
    <glyph glyph-name="Scircumflex" unicode="&#x15c;" horiz-adv-x="569" 
d="M139 124q58 -57 133 -57q56 0 99 31.5t43 89.5q0 25 -10 45t-22 32t-39 24.5t-43.5 18.5t-53.5 17q-40 13 -67.5 25.5t-57 35t-44.5 57.5t-15 81q0 98 72.5 150t169.5 52q102 0 166 -54q22 -19 22 -40q0 -18 -13 -31t-32 -13q-18 0 -37 15q-50 40 -110 40
q-54 0 -96 -29.5t-42 -85.5q0 -28 10 -47.5t34 -34t43 -22t58 -20.5q39 -12 59.5 -19.5t53.5 -25.5t50.5 -37.5t31 -51.5t13.5 -73q0 -104 -71.5 -159.5t-173.5 -55.5q-120 0 -194 68q-21 19 -21 43q0 19 13.5 33t33.5 14t37 -16zM302 851l-86 -81q-15 -14 -29 -14
q-13 0 -22.5 9t-9.5 23q0 15 14 28l81 80q26 26 51 26q24 0 51 -26l81 -79q14 -14 14 -29q0 -13 -9.5 -22.5t-23.5 -9.5q-15 0 -29 14z" />
    <glyph glyph-name="scircumflex" unicode="&#x15d;" horiz-adv-x="444" 
d="M318 377q-39 36 -91 36q-36 0 -62 -15.5t-26 -46.5q0 -28 25 -43t83 -28q75 -17 117 -49t42 -91q0 -78 -54.5 -115.5t-134.5 -37.5q-95 0 -156 53q-20 18 -20 38q0 18 11.5 30t29.5 12q17 0 35 -15q48 -42 102 -42q40 0 67 16.5t27 52.5q0 31 -28.5 47t-95.5 32
q-29 7 -49 14.5t-42.5 22t-34.5 38.5t-12 56q0 72 52.5 108.5t126.5 36.5q84 0 137 -45q22 -18 22 -38q0 -17 -11.5 -29t-29.5 -12q-15 0 -30 14zM234 651l-86 -81q-15 -14 -29 -14q-13 0 -22.5 9t-9.5 23q0 15 14 28l81 80q26 26 51 26q24 0 51 -26l81 -79q14 -14 14 -29
q0 -13 -9.5 -22.5t-23.5 -9.5q-15 0 -29 14z" />
    <glyph glyph-name="Scedilla" unicode="&#x15e;" horiz-adv-x="569" 
d="M184 -169q8 0 23 -5q22 -7 49 -7q58 0 58 36q0 35 -44 35q-10 0 -22 -2q-15 -3 -21 -3q-24 0 -24 21q0 8 8 21l36 56q-105 6 -171 67q-21 19 -21 43q0 19 13.5 33t33.5 14t37 -16q58 -57 133 -57q56 0 99 31.5t43 89.5q0 25 -10 45t-22 32t-39 24.5t-43.5 18.5t-53.5 17
q-40 13 -67.5 25.5t-57 35t-44.5 57.5t-15 81q0 98 72.5 150t169.5 52q102 0 166 -54q22 -19 22 -40q0 -18 -13 -31t-32 -13q-18 0 -37 15q-50 40 -110 40q-54 0 -96 -29.5t-42 -85.5q0 -28 10 -47.5t34 -34t43 -22t58 -20.5q39 -12 59.5 -19.5t53.5 -25.5t50.5 -37.5
t31 -51.5t13.5 -73q0 -94 -59.5 -148.5t-149.5 -64.5l-34 -51q16 2 27 2q36 0 61.5 -19.5t25.5 -59.5q0 -47 -37.5 -69t-89.5 -22q-40 0 -76 12q-25 9 -25 28q0 10 7.5 18t18.5 8z" />
    <glyph glyph-name="scedilla" unicode="&#x15f;" horiz-adv-x="444" 
d="M123 -169q8 0 23 -5q22 -7 49 -7q58 0 58 36q0 35 -44 35q-10 0 -22 -2q-15 -3 -21 -3q-24 0 -24 21q0 8 8 21l40 61q-81 8 -129 52q-20 18 -20 38q0 18 11.5 30t29.5 12q17 0 35 -15q48 -42 102 -42q40 0 67 16.5t27 52.5q0 31 -28.5 47t-95.5 32q-29 7 -49 14.5
t-42.5 22t-34.5 38.5t-12 56q0 72 52.5 108.5t126.5 36.5q84 0 137 -45q22 -18 22 -38q0 -17 -11.5 -29t-29.5 -12q-15 0 -30 14q-39 36 -91 36q-36 0 -62 -15.5t-26 -46.5q0 -28 25 -43t83 -28q75 -17 117 -49t42 -91q0 -70 -44.5 -107t-113.5 -44l-37 -56q16 2 27 2
q36 0 61.5 -19.5t25.5 -59.5q0 -47 -37.5 -69t-89.5 -22q-40 0 -76 12q-25 9 -25 28q0 10 7.5 18t18.5 8z" />
    <glyph glyph-name="Scaron" unicode="&#x160;" horiz-adv-x="569" 
d="M139 124q58 -57 133 -57q56 0 99 31.5t43 89.5q0 25 -10 45t-22 32t-39 24.5t-43.5 18.5t-53.5 17q-40 13 -67.5 25.5t-57 35t-44.5 57.5t-15 81q0 98 72.5 150t169.5 52q102 0 166 -54q22 -19 22 -40q0 -18 -13 -31t-32 -13q-18 0 -37 15q-50 40 -110 40
q-54 0 -96 -29.5t-42 -85.5q0 -28 10 -47.5t34 -34t43 -22t58 -20.5q39 -12 59.5 -19.5t53.5 -25.5t50.5 -37.5t31 -51.5t13.5 -73q0 -104 -71.5 -159.5t-173.5 -55.5q-120 0 -194 68q-21 19 -21 43q0 19 13.5 33t33.5 14t37 -16zM295 827l86 81q15 14 29 14t23 -9t9 -23
q0 -15 -14 -28l-81 -80q-26 -26 -51 -26q-24 0 -51 26l-81 79q-14 14 -14 29q0 13 9.5 22.5t23.5 9.5q15 0 29 -14z" />
    <glyph glyph-name="scaron" unicode="&#x161;" horiz-adv-x="444" 
d="M318 377q-39 36 -91 36q-36 0 -62 -15.5t-26 -46.5q0 -28 25 -43t83 -28q75 -17 117 -49t42 -91q0 -78 -54.5 -115.5t-134.5 -37.5q-95 0 -156 53q-20 18 -20 38q0 18 11.5 30t29.5 12q17 0 35 -15q48 -42 102 -42q40 0 67 16.5t27 52.5q0 31 -28.5 47t-95.5 32
q-29 7 -49 14.5t-42.5 22t-34.5 38.5t-12 56q0 72 52.5 108.5t126.5 36.5q84 0 137 -45q22 -18 22 -38q0 -17 -11.5 -29t-29.5 -12q-15 0 -30 14zM228 627l86 81q15 14 29 14q13 0 22.5 -9t9.5 -23q0 -15 -14 -28l-81 -80q-26 -26 -51 -26q-24 0 -51 26l-81 79
q-14 14 -14 29q0 13 9.5 22.5t23.5 9.5q15 0 29 -14z" />
    <glyph glyph-name="Tcommaaccent" unicode="&#x162;" horiz-adv-x="569" 
d="M49 708h471q28 0 38.5 -14t10.5 -30q0 -9 -3 -17.5t-14.5 -17t-31.5 -8.5h-186v-573q0 -31 -16 -43.5t-34 -12.5q-17 0 -33 12.5t-16 43.5v573h-186q-28 0 -38.5 14t-10.5 29q0 9 3 18t14.5 17.5t31.5 8.5zM195 -178l49 109q14 32 40 32q17 0 28 -10.5t11 -26.5
q0 -15 -8 -31l-50 -105q-15 -33 -42 -33q-15 0 -25.5 10t-10.5 26q0 10 8 29z" />
    <glyph glyph-name="tcommaaccent" unicode="&#x163;" horiz-adv-x="329" 
d="M293 3q-24 -11 -61 -11q-68 0 -103 37.5t-35 110.5v257h-55q-24 0 -34 12.5t-10 25.5q0 8 3 16t13.5 15.5t27.5 7.5h55v92q0 29 15 40.5t32 11.5q16 0 31 -11.5t15 -40.5v-92h91q24 0 33.5 -12.5t9.5 -26.5q0 -8 -2.5 -15.5t-13 -15t-27.5 -7.5h-91v-247q0 -79 57 -79
q9 0 21 3q11 3 17 3q17 0 27 -10.5t10 -26.5q0 -24 -26 -37zM115 -178l49 109q14 32 40 32q17 0 28 -10.5t11 -26.5q0 -15 -8 -31l-50 -105q-15 -33 -42 -33q-15 0 -25.5 10t-10.5 26q0 10 8 29z" />
    <glyph glyph-name="Tcaron" unicode="&#x164;" horiz-adv-x="569" 
d="M49 708h471q28 0 38.5 -14t10.5 -30q0 -9 -3 -17.5t-14.5 -17t-31.5 -8.5h-186v-573q0 -31 -16 -43.5t-34 -12.5q-17 0 -33 12.5t-16 43.5v573h-186q-28 0 -38.5 14t-10.5 29q0 9 3 18t14.5 17.5t31.5 8.5zM284 827l86 81q15 14 29 14q13 0 22.5 -9t9.5 -23
q0 -15 -14 -28l-81 -80q-26 -26 -51 -26q-24 0 -51 26l-81 79q-14 14 -14 29q0 13 9.5 22.5t23.5 9.5q15 0 29 -14z" />
    <glyph glyph-name="tcaron" unicode="&#x165;" horiz-adv-x="329" 
d="M293 3q-24 -11 -61 -11q-68 0 -103 37.5t-35 110.5v257h-55q-24 0 -34 12.5t-10 25.5q0 8 3 16t13.5 15.5t27.5 7.5h55v92q0 29 15 40.5t32 11.5q16 0 31 -11.5t15 -40.5v-92h91q24 0 33.5 -12.5t9.5 -26.5q0 -8 -2.5 -15.5t-13 -15t-27.5 -7.5h-91v-247q0 -79 57 -79
q9 0 21 3q11 3 17 3q17 0 27 -10.5t10 -26.5q0 -24 -26 -37zM242 594l41 109q14 36 41 36q17 0 28.5 -10t11.5 -27q0 -13 -7 -29l-43 -109q-13 -33 -40 -33q-16 0 -27 9.5t-11 25.5q0 12 6 28z" />
    <glyph glyph-name="Tbar" unicode="&#x166;" horiz-adv-x="569" 
d="M49 708h471q28 0 38.5 -14t10.5 -30q0 -9 -3 -17.5t-14.5 -17t-31.5 -8.5h-186v-96h136q20 0 27.5 -10t7.5 -21q0 -32 -35 -32h-136v-414q0 -31 -16 -43.5t-34 -12.5q-17 0 -33 12.5t-16 43.5v414h-135q-36 0 -36 32q0 7 2 13t11 12t23 6h135v96h-186q-28 0 -38.5 14
t-10.5 29q0 9 3 18t14.5 17.5t31.5 8.5z" />
    <glyph glyph-name="tbar" unicode="&#x167;" horiz-adv-x="329" 
d="M293 3q-24 -11 -61 -11q-68 0 -103 37.5t-35 110.5v101h-55q-20 0 -27.5 10.5t-7.5 21.5t7.5 21t27.5 10h55v93h-55q-24 0 -34 12.5t-10 25.5q0 8 3 16t13.5 15.5t27.5 7.5h55v92q0 29 15 40.5t32 11.5q16 0 31 -11.5t15 -40.5v-92h91q24 0 33.5 -12.5t9.5 -26.5
q0 -8 -2.5 -15.5t-13 -15t-27.5 -7.5h-91v-93h85q20 0 27.5 -10t7.5 -21t-7.5 -21.5t-27.5 -10.5h-85v-91q0 -79 57 -79q9 0 21 3q11 3 17 3q17 0 27 -10.5t10 -26.5q0 -24 -26 -37z" />
    <glyph glyph-name="Utilde" unicode="&#x168;" horiz-adv-x="712" 
d="M532 268v392q0 31 16 43.5t33 12.5q18 0 34 -12.5t16 -43.5v-398q0 -117 -71 -198.5t-204 -81.5q-132 0 -203.5 81.5t-71.5 198.5v398q0 31 16 43.5t34 12.5q17 0 33 -12.5t16 -43.5v-392q0 -83 42.5 -140t133.5 -57t133.5 57t42.5 140zM427 776q-31 0 -75 23
q-42 21 -62 21q-24 0 -38 -31q-10 -23 -30 -23q-31 0 -31 31q0 11 5 23q26 68 93 68q27 0 75 -23q44 -21 62 -21q24 0 38 31q10 23 30 23q30 0 30 -30q0 -12 -5 -24q-26 -68 -92 -68z" />
    <glyph glyph-name="utilde" unicode="&#x169;" horiz-adv-x="582" 
d="M411 42v36h-3q-18 -39 -61 -65t-93 -26q-87 0 -132 54t-45 139v250q0 29 15 40.5t32 11.5t32 -11.5t15 -40.5v-219q0 -145 108 -145q56 0 91.5 43t35.5 113v208q0 29 15 40.5t32 11.5t32 -11.5t15 -40.5v-388q0 -20 -8.5 -32t-17.5 -15t-18 -3q-10 0 -19 3t-17.5 15
t-8.5 32zM360 576q-31 0 -75 23q-42 21 -62 21q-24 0 -38 -31q-10 -23 -30 -23q-31 0 -31 31q0 11 5 23q26 68 93 68q27 0 75 -23q44 -21 62 -21q24 0 38 31q10 23 30 23q30 0 30 -30q0 -12 -5 -24q-26 -68 -92 -68z" />
    <glyph glyph-name="Umacron" unicode="&#x16a;" horiz-adv-x="712" 
d="M532 268v392q0 31 16 43.5t33 12.5q18 0 34 -12.5t16 -43.5v-398q0 -117 -71 -198.5t-204 -81.5q-132 0 -203.5 81.5t-71.5 198.5v398q0 31 16 43.5t34 12.5q17 0 33 -12.5t16 -43.5v-392q0 -83 42.5 -140t133.5 -57t133.5 57t42.5 140zM473 796h-230q-21 0 -29.5 11.5
t-8.5 23.5t8.5 23t29.5 11h230q21 0 29.5 -11t8.5 -23t-8.5 -23.5t-29.5 -11.5z" />
    <glyph glyph-name="umacron" unicode="&#x16b;" horiz-adv-x="582" 
d="M411 42v36h-3q-18 -39 -61 -65t-93 -26q-87 0 -132 54t-45 139v250q0 29 15 40.5t32 11.5t32 -11.5t15 -40.5v-219q0 -145 108 -145q56 0 91.5 43t35.5 113v208q0 29 15 40.5t32 11.5t32 -11.5t15 -40.5v-388q0 -20 -8.5 -32t-17.5 -15t-18 -3q-10 0 -19 3t-17.5 15
t-8.5 32zM405 596h-230q-21 0 -29.5 11.5t-8.5 23.5t8.5 23t29.5 11h230q21 0 29.5 -11t8.5 -23t-8.5 -23.5t-29.5 -11.5z" />
    <glyph glyph-name="Ubreve" unicode="&#x16c;" horiz-adv-x="712" 
d="M532 268v392q0 31 16 43.5t33 12.5q18 0 34 -12.5t16 -43.5v-398q0 -117 -71 -198.5t-204 -81.5q-132 0 -203.5 81.5t-71.5 198.5v398q0 31 16 43.5t34 12.5q17 0 33 -12.5t16 -43.5v-392q0 -83 42.5 -140t133.5 -57t133.5 57t42.5 140zM355 834q67 0 90 54q12 26 32 26
q14 0 22 -9t8 -21q0 -10 -3 -19q-32 -95 -149 -95t-149 95q-3 9 -3 19q0 12 8 21t23 9q20 0 32 -26q24 -54 89 -54z" />
    <glyph glyph-name="ubreve" unicode="&#x16d;" horiz-adv-x="582" 
d="M411 42v36h-3q-18 -39 -61 -65t-93 -26q-87 0 -132 54t-45 139v250q0 29 15 40.5t32 11.5t32 -11.5t15 -40.5v-219q0 -145 108 -145q56 0 91.5 43t35.5 113v208q0 29 15 40.5t32 11.5t32 -11.5t15 -40.5v-388q0 -20 -8.5 -32t-17.5 -15t-18 -3q-10 0 -19 3t-17.5 15
t-8.5 32zM290 634q67 0 90 54q12 26 32 26q14 0 22 -9t8 -21q0 -10 -3 -19q-32 -95 -149 -95t-149 95q-3 9 -3 19q0 12 8 21t23 9q20 0 32 -26q24 -54 89 -54z" />
    <glyph glyph-name="Uring" unicode="&#x16e;" horiz-adv-x="712" 
d="M532 268v392q0 31 16 43.5t33 12.5q18 0 34 -12.5t16 -43.5v-398q0 -117 -71 -198.5t-204 -81.5q-132 0 -203.5 81.5t-71.5 198.5v398q0 31 16 43.5t34 12.5q17 0 33 -12.5t16 -43.5v-392q0 -83 42.5 -140t133.5 -57t133.5 57t42.5 140zM460 853q0 -42 -29.5 -70.5
t-71.5 -28.5t-71 28t-29 70t29 70.5t71 28.5t71.5 -28t29.5 -70zM419 853q0 25 -17.5 41.5t-42.5 16.5t-42 -17t-17 -42q0 -24 17 -40.5t42 -16.5t42.5 16.5t17.5 41.5z" />
    <glyph glyph-name="uring" unicode="&#x16f;" horiz-adv-x="582" 
d="M411 42v36h-3q-18 -39 -61 -65t-93 -26q-87 0 -132 54t-45 139v250q0 29 15 40.5t32 11.5t32 -11.5t15 -40.5v-219q0 -145 108 -145q56 0 91.5 43t35.5 113v208q0 29 15 40.5t32 11.5t32 -11.5t15 -40.5v-388q0 -20 -8.5 -32t-17.5 -15t-18 -3q-10 0 -19 3t-17.5 15
t-8.5 32zM390 653q0 -42 -29.5 -70.5t-71.5 -28.5t-71 28t-29 70t29 70.5t71 28.5t71.5 -28t29.5 -70zM349 653q0 25 -17.5 41.5t-42.5 16.5t-42 -17t-17 -42q0 -24 17 -40.5t42 -16.5t42.5 16.5t17.5 41.5z" />
    <glyph glyph-name="Uhungarumlaut" unicode="&#x170;" horiz-adv-x="712" 
d="M532 268v392q0 31 16 43.5t33 12.5q18 0 34 -12.5t16 -43.5v-398q0 -117 -71 -198.5t-204 -81.5q-132 0 -203.5 81.5t-71.5 198.5v398q0 31 16 43.5t34 12.5q17 0 33 -12.5t16 -43.5v-392q0 -83 42.5 -140t133.5 -57t133.5 57t42.5 140zM437 827l69 77q16 18 37 18
q16 -1 26 -11t10 -25q0 -18 -18 -37l-71 -76q-16 -17 -35 -17q-15 0 -25 10.5t-10 24.5q0 18 17 36zM248 827l69 77q16 18 37 18q16 -1 26 -11t10 -25q0 -18 -18 -37l-71 -76q-16 -17 -35 -17q-15 0 -25 10.5t-10 24.5q0 18 17 36z" />
    <glyph glyph-name="uhungarumlaut" unicode="&#x171;" horiz-adv-x="582" 
d="M411 42v36h-3q-18 -39 -61 -65t-93 -26q-87 0 -132 54t-45 139v250q0 29 15 40.5t32 11.5t32 -11.5t15 -40.5v-219q0 -145 108 -145q56 0 91.5 43t35.5 113v208q0 29 15 40.5t32 11.5t32 -11.5t15 -40.5v-388q0 -20 -8.5 -32t-17.5 -15t-18 -3q-10 0 -19 3t-17.5 15
t-8.5 32zM370 627l69 77q16 18 37 18q16 -1 26 -11t10 -25q0 -18 -18 -37l-71 -76q-16 -17 -35 -17q-15 0 -25 10.5t-10 24.5q0 18 17 36zM181 627l69 77q16 18 37 18q16 -1 26 -11t10 -25q0 -18 -18 -37l-71 -76q-16 -17 -35 -17q-15 0 -25 10.5t-10 24.5q0 18 17 36z" />
    <glyph glyph-name="Uogonek" unicode="&#x172;" horiz-adv-x="712" 
d="M532 268v392q0 31 16 43.5t33 12.5q18 0 34 -12.5t16 -43.5v-398q0 -104 -57.5 -182t-164.5 -94q-62 -62 -62 -105q0 -20 13.5 -33t34.5 -13q12 0 30 8q11 5 19 5q10 0 17 -7t7 -17q0 -15 -16 -26q-37 -24 -77 -24q-39 0 -68 24t-29 63q0 58 66 122q-127 4 -195 84.5
t-68 194.5v398q0 31 16 43.5t34 12.5q17 0 33 -12.5t16 -43.5v-392q0 -83 42.5 -140t133.5 -57t133.5 57t42.5 140z" />
    <glyph glyph-name="uogonek" unicode="&#x173;" horiz-adv-x="582" 
d="M411 42v36h-3q-18 -39 -61 -65t-93 -26q-87 0 -132 54t-45 139v250q0 29 15 40.5t32 11.5t32 -11.5t15 -40.5v-219q0 -145 108 -145q56 0 91.5 43t35.5 113v208q0 29 15 40.5t32 11.5t32 -11.5t15 -40.5v-388q0 -29 -18 -42q-49 -38 -71.5 -65.5t-22.5 -53.5
q0 -20 13.5 -33t34.5 -13q12 0 30 8q11 5 19 5q10 0 17 -7t7 -17q0 -15 -16 -26q-37 -24 -77 -24q-39 0 -68 24t-29 63q0 73 107 141q-15 13 -15 40z" />
    <glyph glyph-name="Wcircumflex" unicode="&#x174;" horiz-adv-x="988" 
d="M967 643l-177 -592q-17 -59 -69 -59q-49 0 -68 59l-158 514h-2l-158 -514q-19 -59 -68 -59q-51 0 -68 59l-177 590q-4 15 -4 26q0 21 15 35t36 14q38 0 51 -46l150 -526h2l156 509q19 63 68 63q48 0 67 -63l155 -509h2l150 527q13 45 52 45q20 0 34.5 -13.5t14.5 -35.5
q0 -11 -4 -24zM496 851l-86 -81q-15 -14 -29 -14q-13 0 -22.5 9t-9.5 23q0 15 14 28l81 80q26 26 51 26q24 0 51 -26l81 -79q14 -14 14 -29q0 -13 -9.5 -22.5t-23.5 -9.5q-15 0 -29 14z" />
    <glyph glyph-name="wcircumflex" unicode="&#x175;" horiz-adv-x="776" 
d="M621 43q-18 -51 -63 -51q-46 0 -63 51l-106 314h-2l-104 -314q-17 -51 -62 -51q-46 0 -64 51l-127 372q-4 12 -4 22q0 21 13.5 33t34.5 12q34 0 46 -40l102 -330h2l107 321q16 49 59 49t59 -49l107 -321h2l102 331q12 39 45 39q20 0 33.5 -12.5t13.5 -31.5q0 -11 -4 -23z
M389 651l-86 -81q-15 -14 -29 -14t-23 9t-9 23q0 15 14 28l81 80q26 26 51 26q24 0 51 -26l81 -79q14 -14 14 -29q0 -13 -9.5 -22.5t-23.5 -9.5q-15 0 -29 14z" />
    <glyph glyph-name="Ycircumflex" unicode="&#x176;" horiz-adv-x="624" 
d="M597 635l-236 -329v-258q0 -31 -16 -43.5t-33 -12.5q-18 0 -34 12.5t-16 43.5v258l-234 324q-14 20 -14 38q0 21 14.5 34.5t36.5 13.5q27 0 48 -31l201 -296l203 299q19 28 46 28q19 0 33 -12.5t14 -32.5q0 -18 -13 -36zM315 851l-86 -81q-15 -14 -29 -14t-23 9t-9 23
q0 15 14 28l81 80q26 26 51 26q24 0 51 -26l81 -79q14 -14 14 -29q0 -13 -9.5 -22.5t-23.5 -9.5q-15 0 -29 14z" />
    <glyph glyph-name="ycircumflex" unicode="&#x177;" horiz-adv-x="501" 
d="M477 413l-213 -525q-28 -68 -64 -98t-100 -30q-29 0 -48 11.5t-19 32.5q0 15 10.5 27t28.5 12q3 0 11 -0.5t13 -0.5q29 0 49 16.5t37 62.5l30 79l-184 410q-6 13 -6 27q0 19 14 32t34 13q31 0 47 -37l143 -342h2l127 340q15 39 47 39q20 0 33.5 -12t13.5 -31
q0 -10 -6 -26zM259 651l-86 -81q-15 -14 -29 -14t-23 9t-9 23q0 15 14 28l81 80q26 26 51 26q24 0 51 -26l81 -79q14 -14 14 -29q0 -13 -9.5 -22.5t-23.5 -9.5q-15 0 -29 14z" />
    <glyph glyph-name="Ydieresis" unicode="&#x178;" horiz-adv-x="624" 
d="M597 635l-236 -329v-258q0 -31 -16 -43.5t-33 -12.5q-18 0 -34 12.5t-16 43.5v258l-234 324q-14 20 -14 38q0 21 14.5 34.5t36.5 13.5q27 0 48 -31l201 -296l203 299q19 28 46 28q19 0 33 -12.5t14 -32.5q0 -18 -13 -36zM155 845q0 25 18 43t44 18t44 -17.5t18 -43.5
q0 -25 -18 -42.5t-44 -17.5t-44 18t-18 42zM349 845q0 25 18 43t44 18t44 -17.5t18 -43.5q0 -25 -18 -42.5t-44 -17.5t-44 18t-18 42z" />
    <glyph glyph-name="Zacute" unicode="&#x179;" horiz-adv-x="592" 
d="M518 0h-433q-34 0 -47 17t-13 36q0 23 27 59l380 509h-350q-27 0 -38 14t-11 29t11 29.5t38 14.5h421q32 0 45 -17t13 -36q0 -23 -25 -56l-383 -511h365q27 0 38 -14.5t11 -29.5t-11 -29.5t-38 -14.5zM266 827l75 76q19 19 38 19q17 0 27.5 -11t10.5 -27q0 -19 -21 -38
l-77 -73q-17 -17 -36 -17q-15 0 -25 11t-10 25q0 17 18 35z" />
    <glyph glyph-name="zacute" unicode="&#x17a;" horiz-adv-x="462" 
d="M394 0h-318q-29 0 -40 15t-11 32q0 23 22 49l257 301h-223q-24 0 -34 12.5t-10 26.5q0 8 3 15.5t13.5 15t27.5 7.5h294q30 0 41 -15t11 -32q0 -23 -22 -49l-258 -299h247q25 0 34.5 -12.5t9.5 -26.5q0 -9 -2.5 -16.5t-13.5 -15.5t-28 -8zM208 627l75 76q19 19 38 19
q17 0 27.5 -11t10.5 -27q0 -19 -21 -38l-77 -73q-17 -17 -36 -17q-15 0 -25 11t-10 25q0 17 18 35z" />
    <glyph glyph-name="Zdotaccent" unicode="&#x17b;" horiz-adv-x="592" 
d="M518 0h-433q-34 0 -47 17t-13 36q0 23 27 59l380 509h-350q-27 0 -38 14t-11 29t11 29.5t38 14.5h421q32 0 45 -17t13 -36q0 -23 -25 -56l-383 -511h365q27 0 38 -14.5t11 -29.5t-11 -29.5t-38 -14.5zM360 845q0 -25 -18.5 -42.5t-44.5 -17.5t-44 17.5t-18 42.5t18 43
t44 18t44.5 -17.5t18.5 -43.5z" />
    <glyph glyph-name="zdotaccent" unicode="&#x17c;" horiz-adv-x="462" 
d="M394 0h-318q-29 0 -40 15t-11 32q0 23 22 49l257 301h-223q-24 0 -34 12.5t-10 26.5q0 8 3 15.5t13.5 15t27.5 7.5h294q30 0 41 -15t11 -32q0 -23 -22 -49l-258 -299h247q25 0 34.5 -12.5t9.5 -26.5q0 -9 -2.5 -16.5t-13.5 -15.5t-28 -8zM295 645q0 -25 -18.5 -42.5
t-44.5 -17.5t-44 17.5t-18 42.5t18 43t44 18t44.5 -17.5t18.5 -43.5z" />
    <glyph glyph-name="Zcaron" unicode="&#x17d;" horiz-adv-x="592" 
d="M518 0h-433q-34 0 -47 17t-13 36q0 23 27 59l380 509h-350q-27 0 -38 14t-11 29t11 29.5t38 14.5h421q32 0 45 -17t13 -36q0 -23 -25 -56l-383 -511h365q27 0 38 -14.5t11 -29.5t-11 -29.5t-38 -14.5zM296 827l86 81q15 14 29 14q13 0 22.5 -9t9.5 -23q0 -15 -14 -28
l-81 -80q-26 -26 -51 -26q-24 0 -51 26l-81 79q-14 14 -14 29q0 13 9.5 22.5t23.5 9.5q15 0 29 -14z" />
    <glyph glyph-name="zcaron" unicode="&#x17e;" horiz-adv-x="462" 
d="M394 0h-318q-29 0 -40 15t-11 32q0 23 22 49l257 301h-223q-24 0 -34 12.5t-10 26.5q0 8 3 15.5t13.5 15t27.5 7.5h294q30 0 41 -15t11 -32q0 -23 -22 -49l-258 -299h247q25 0 34.5 -12.5t9.5 -26.5q0 -9 -2.5 -16.5t-13.5 -15.5t-28 -8zM235 627l86 81q15 14 29 14
t23 -9t9 -23q0 -15 -14 -28l-81 -80q-26 -26 -51 -26q-24 0 -51 26l-81 79q-14 14 -14 29q0 13 9.5 22.5t23.5 9.5q15 0 29 -14z" />
    <glyph glyph-name="florin" unicode="&#x192;" horiz-adv-x="595" 
d="M281 31q-16 -81 -56.5 -125.5t-115.5 -44.5q-27 0 -47 7q-35 12 -35 40q0 16 11 28t28 12q9 0 18 -3q10 -3 21 -3q39 0 57 27.5t27 77.5l58 303h-79q-22 0 -31 11.5t-9 24.5q0 8 2.5 15.5t12 14.5t25.5 7h93l25 127q16 79 53 124.5t112 45.5q36 0 64 -11q33 -13 33 -40
q0 -16 -11 -29t-29 -13q-6 0 -21 5q-12 4 -26 4q-39 0 -56.5 -29.5t-27.5 -79.5l-21 -104h83q22 0 31 -12t9 -25q0 -8 -2.5 -15t-12 -14t-25.5 -7h-96z" />
    <glyph glyph-name="Scommaaccent" unicode="&#x218;" horiz-adv-x="569" 
d="M139 124q58 -57 133 -57q56 0 99 31.5t43 89.5q0 25 -10 45t-22 32t-39 24.5t-43.5 18.5t-53.5 17q-40 13 -67.5 25.5t-57 35t-44.5 57.5t-15 81q0 98 72.5 150t169.5 52q102 0 166 -54q22 -19 22 -40q0 -18 -13 -31t-32 -13q-18 0 -37 15q-50 40 -110 40
q-54 0 -96 -29.5t-42 -85.5q0 -28 10 -47.5t34 -34t43 -22t58 -20.5q39 -12 59.5 -19.5t53.5 -25.5t50.5 -37.5t31 -51.5t13.5 -73q0 -104 -71.5 -159.5t-173.5 -55.5q-120 0 -194 68q-21 19 -21 43q0 19 13.5 33t33.5 14t37 -16zM204 -178l49 109q14 32 40 32
q17 0 28 -10.5t11 -26.5q0 -15 -8 -31l-50 -105q-15 -33 -42 -33q-15 0 -25.5 10t-10.5 26q0 10 8 29z" />
    <glyph glyph-name="scommaaccent" unicode="&#x219;" horiz-adv-x="444" 
d="M318 377q-39 36 -91 36q-36 0 -62 -15.5t-26 -46.5q0 -28 25 -43t83 -28q75 -17 117 -49t42 -91q0 -78 -54.5 -115.5t-134.5 -37.5q-95 0 -156 53q-20 18 -20 38q0 18 11.5 30t29.5 12q17 0 35 -15q48 -42 102 -42q40 0 67 16.5t27 52.5q0 31 -28.5 47t-95.5 32
q-29 7 -49 14.5t-42.5 22t-34.5 38.5t-12 56q0 72 52.5 108.5t126.5 36.5q84 0 137 -45q22 -18 22 -38q0 -17 -11.5 -29t-29.5 -12q-15 0 -30 14zM142 -178l49 109q14 32 40 32q17 0 28 -10.5t11 -26.5q0 -15 -8 -31l-50 -105q-15 -33 -42 -33q-15 0 -25.5 10t-10.5 26
q0 10 8 29z" />
    <glyph glyph-name="uni021A" unicode="&#x21a;" horiz-adv-x="569" 
d="M49 708h471q28 0 38.5 -14t10.5 -30q0 -9 -3 -17.5t-14.5 -17t-31.5 -8.5h-186v-573q0 -31 -16 -43.5t-34 -12.5q-17 0 -33 12.5t-16 43.5v573h-186q-28 0 -38.5 14t-10.5 29q0 9 3 18t14.5 17.5t31.5 8.5zM195 -178l49 109q14 32 40 32q17 0 28 -10.5t11 -26.5
q0 -15 -8 -31l-50 -105q-15 -33 -42 -33q-15 0 -25.5 10t-10.5 26q0 10 8 29z" />
    <glyph glyph-name="uni021B" unicode="&#x21b;" horiz-adv-x="329" 
d="M293 3q-24 -11 -61 -11q-68 0 -103 37.5t-35 110.5v257h-55q-24 0 -34 12.5t-10 25.5q0 8 3 16t13.5 15.5t27.5 7.5h55v92q0 29 15 40.5t32 11.5q16 0 31 -11.5t15 -40.5v-92h91q24 0 33.5 -12.5t9.5 -26.5q0 -8 -2.5 -15.5t-13 -15t-27.5 -7.5h-91v-247q0 -79 57 -79
q9 0 21 3q11 3 17 3q17 0 27 -10.5t10 -26.5q0 -24 -26 -37zM115 -178l49 109q14 32 40 32q17 0 28 -10.5t11 -26.5q0 -15 -8 -31l-50 -105q-15 -33 -42 -33q-15 0 -25.5 10t-10.5 26q0 10 8 29z" />
    <glyph glyph-name="dotlessj" unicode="&#x237;" horiz-adv-x="260" 
d="M83 -61v491q0 29 15 40.5t32 11.5t32 -11.5t15 -40.5v-490q0 -180 -151 -180q-60 0 -60 43q0 17 10.5 27.5t29.5 10.5h12q37 0 51 25t14 73z" />
    <glyph glyph-name="circumflex" unicode="&#x2c6;" 
d="M126 651l-86 -81q-15 -14 -29 -14q-13 0 -22.5 9t-9.5 23q0 15 14 28l81 80q26 26 51 26q24 0 51 -26l81 -79q14 -14 14 -29q0 -13 -9.5 -22.5t-23.5 -9.5q-15 0 -29 14z" />
    <glyph glyph-name="caron" unicode="&#x2c7;" 
d="M124 627l86 81q15 14 29 14q13 0 22.5 -9t9.5 -23q0 -15 -14 -28l-81 -80q-26 -26 -51 -26q-24 0 -51 26l-81 79q-14 14 -14 29q0 13 9.5 22.5t23.5 9.5q15 0 29 -14z" />
    <glyph glyph-name="uni02C9" unicode="&#x2c9;" 
d="M240 796h-230q-21 0 -29.5 11.5t-8.5 23.5t8.5 23t29.5 11h230q21 0 29.5 -11t8.5 -23t-8.5 -23.5t-29.5 -11.5z" />
    <glyph glyph-name="breve" unicode="&#x2d8;" 
d="M125 634q67 0 90 54q12 26 32 26q14 0 22 -9t8 -21q0 -10 -3 -19q-32 -95 -149 -95t-149 95q-3 9 -3 19q0 12 8 21t23 9q20 0 32 -26q24 -54 89 -54z" />
    <glyph glyph-name="dotaccent" unicode="&#x2d9;" 
d="M188 645q0 -25 -18.5 -42.5t-44.5 -17.5t-44 17.5t-18 42.5t18 43t44 18t44.5 -17.5t18.5 -43.5z" />
    <glyph glyph-name="ring" unicode="&#x2da;" 
d="M226 653q0 -42 -29.5 -70.5t-71.5 -28.5t-71 28t-29 70t29 70.5t71 28.5t71.5 -28t29.5 -70zM185 653q0 25 -17.5 41.5t-42.5 16.5t-42 -17t-17 -42q0 -24 17 -40.5t42 -16.5t42.5 16.5t17.5 41.5z" />
    <glyph glyph-name="ogonek" unicode="&#x2db;" 
d="M188 -202q-37 -24 -77 -24q-39 0 -68 24t-29 63q0 71 98 149h58q-87 -81 -87 -129q0 -20 13.5 -33t34.5 -13q12 0 30 8q11 5 19 5q10 0 17 -7t7 -17q0 -15 -16 -26z" />
    <glyph glyph-name="tilde" unicode="&#x2dc;" 
d="M194 576q-31 0 -75 23q-42 21 -62 21q-24 0 -38 -31q-10 -23 -30 -23q-31 0 -31 31q0 11 5 23q26 68 93 68q27 0 75 -23q44 -21 62 -21q24 0 38 31q10 23 30 23q30 0 30 -30q0 -12 -5 -24q-26 -68 -92 -68z" />
    <glyph glyph-name="hungarumlaut" unicode="&#x2dd;" 
d="M180 627l69 77q16 18 37 18q16 -1 26 -11t10 -25q0 -18 -18 -37l-71 -76q-16 -17 -35 -17q-15 0 -25 10.5t-10 24.5q0 18 17 36zM-9 627l69 77q16 18 37 18q16 -1 26 -11t10 -25q0 -18 -18 -37l-71 -76q-16 -17 -35 -17q-15 0 -25 10.5t-10 24.5q0 18 17 36z" />
    <glyph glyph-name="uni0394" unicode="&#x394;" horiz-adv-x="678" 
d="M550 83l-217 527l-209 -527h426zM398 669l244 -582q10 -25 10 -40q0 -17 -12 -32t-44 -15h-515q-32 0 -44 15t-12 32q0 15 10 40l236 582q20 51 64 51t63 -51z" />
    <glyph glyph-name="uni03A9" unicode="&#x3a9;" horiz-adv-x="752" 
d="M285 194q31 -13 31 -50v-96q0 -48 -49 -48h-175q-26 0 -36.5 13.5t-10.5 27.5q0 15 10.5 28t36.5 13h146v57q-89 26 -137 100t-48 171q0 134 94.5 222.5t229.5 88.5q136 0 229.5 -87.5t93.5 -221.5q0 -99 -47 -172.5t-138 -100.5v-57h146q26 0 36 -13t10 -28
q0 -14 -10 -27.5t-36 -13.5h-176q-49 0 -49 48v96q0 38 32 50q69 25 104 81t35 131q0 99 -65 165.5t-164 66.5t-164.5 -67t-65.5 -166q0 -160 137 -211z" />
    <glyph glyph-name="uni03BC" unicode="&#x3bc;" horiz-adv-x="578" 
d="M498 430v-388q0 -20 -8.5 -32t-17.5 -15t-18 -3q-10 0 -19 3t-17.5 15t-8.5 32v36h-2q-20 -40 -62 -65.5t-93 -25.5t-83 30v-213q0 -29 -15 -40.5t-32 -11.5t-32 11.5t-15 40.5v626q0 29 15 40.5t32 11.5t32 -11.5t15 -40.5v-219q0 -145 108 -145q56 0 91.5 43t35.5 113
v208q0 29 15 40.5t32 11.5t32 -11.5t15 -40.5z" />
    <glyph glyph-name="pi" unicode="&#x3c0;" horiz-adv-x="578" 
d="M101 39v354h-32q-26 0 -36 13t-10 28q0 14 10 27t36 13h436q25 0 35 -13t10 -27q0 -15 -10 -28t-35 -13h-41v-270q0 -26 5.5 -38t22.5 -12q6 0 14 2t13 2q34 0 34 -35q0 -20 -21 -33q-27 -16 -62 -16q-54 0 -73 32.5t-19 91.5v276h-191v-354q0 -26 -13.5 -36.5
t-29.5 -10.5q-9 0 -18 3t-17 14.5t-8 29.5z" />
    <glyph glyph-name="endash" unicode="&#x2013;" horiz-adv-x="400" 
d="M336 207h-272q-23 0 -32.5 12t-9.5 26q0 13 9.5 25t32.5 12h272q23 0 32.5 -12t9.5 -25q0 -14 -9.5 -26t-32.5 -12z" />
    <glyph glyph-name="emdash" unicode="&#x2014;" horiz-adv-x="600" 
d="M536 207h-472q-23 0 -32.5 12t-9.5 26q0 13 9.5 25t32.5 12h472q23 0 32.5 -12t9.5 -25q0 -14 -9.5 -26t-32.5 -12z" />
    <glyph glyph-name="quoteleft" unicode="&#x2018;" horiz-adv-x="246" 
d="M193 653l-50 -165q-11 -38 -43 -38q-18 0 -30.5 12t-12.5 30q0 11 5 27l52 160q12 37 42 37q17 0 29 -11t12 -28q0 -11 -4 -24z" />
    <glyph glyph-name="quoteright" unicode="&#x2019;" horiz-adv-x="246" 
d="M53 513l50 165q11 38 43 38q18 0 30.5 -12t12.5 -30q0 -11 -5 -27l-52 -160q-12 -37 -42 -37q-17 0 -29 11t-12 28q0 11 4 24z" />
    <glyph glyph-name="quotesinglbase" unicode="&#x201a;" horiz-adv-x="246" 
d="M53 -78l50 165q11 38 43 38q18 0 30.5 -12t12.5 -30q0 -11 -5 -27l-52 -160q-12 -37 -42 -37q-17 0 -29 11t-12 28q0 11 4 24z" />
    <glyph glyph-name="quotedblleft" unicode="&#x201c;" horiz-adv-x="426" 
d="M193 653l-50 -165q-11 -38 -43 -38q-18 0 -30.5 12t-12.5 30q0 11 5 27l52 160q12 37 42 37q17 0 29 -11t12 -28q0 -11 -4 -24zM373 653l-50 -165q-11 -38 -43 -38q-18 0 -30.5 12t-12.5 30q0 11 5 27l52 160q12 37 42 37q17 0 29 -11t12 -28q0 -11 -4 -24z" />
    <glyph glyph-name="quotedblright" unicode="&#x201d;" horiz-adv-x="426" 
d="M53 513l50 165q11 38 43 38q18 0 30.5 -12t12.5 -30q0 -11 -5 -27l-52 -160q-12 -37 -42 -37q-17 0 -29 11t-12 28q0 11 4 24zM233 513l50 165q11 38 43 38q18 0 30.5 -12t12.5 -30q0 -11 -5 -27l-52 -160q-12 -37 -42 -37q-17 0 -29 11t-12 28q0 11 4 24z" />
    <glyph glyph-name="quotedblbase" unicode="&#x201e;" horiz-adv-x="426" 
d="M53 -78l50 165q11 38 43 38q18 0 30 -12t12 -30q0 -14 -4 -27l-52 -160q-12 -37 -42 -37q-17 0 -29 11t-12 28q0 11 4 24zM233 -78l50 165q11 38 43 38q18 0 30.5 -12t12.5 -30q0 -11 -5 -27l-52 -160q-12 -37 -42 -37q-17 0 -29 11t-12 28q0 11 4 24z" />
    <glyph glyph-name="dagger" unicode="&#x2020;" horiz-adv-x="575" 
d="M498 426h-166v-510q0 -20 -8.5 -32t-17.5 -15t-19 -3q-9 0 -18 3t-18 15t-9 32v510h-165q-25 0 -34.5 12.5t-9.5 26.5q0 9 2.5 16.5t13.5 15.5t28 8h165v161q0 20 9 32t18 15t18 3q10 0 19 -3t17.5 -15t8.5 -32v-161h166q25 0 34.5 -13t9.5 -27q0 -8 -2.5 -16
t-13.5 -15.5t-28 -7.5z" />
    <glyph glyph-name="daggerdbl" unicode="&#x2021;" horiz-adv-x="575" 
d="M494 63h-162v-147q0 -20 -8.5 -32t-17.5 -15t-19 -3q-9 0 -18 3t-18 15t-9 32v147h-161q-25 0 -34.5 12.5t-9.5 26.5q0 8 2.5 16t13.5 15.5t28 7.5h161v300h-161q-25 0 -34.5 12.5t-9.5 26.5q0 9 2.5 16.5t13.5 15.5t28 8h161v146q0 20 9 32t18 15t18 3q10 0 19 -3
t17.5 -15t8.5 -32v-146h162q24 0 33.5 -13t9.5 -27q0 -8 -2.5 -16t-13 -15.5t-27.5 -7.5h-162v-300h162q24 0 33.5 -12.5t9.5 -26.5q0 -8 -2.5 -16t-13 -15.5t-27.5 -7.5z" />
    <glyph glyph-name="bullet" unicode="&#x2022;" horiz-adv-x="500" 
d="M73 354q0 74 51.5 125.5t125.5 51.5t125.5 -51.5t51.5 -125.5t-51.5 -125.5t-125.5 -51.5t-125.5 51.5t-51.5 125.5z" />
    <glyph glyph-name="ellipsis" unicode="&#x2026;" horiz-adv-x="1000" 
d="M234 60q0 -27 -19.5 -46.5t-47.5 -19.5t-47.5 19.5t-19.5 45.5q0 27 19.5 46.5t47.5 19.5t47.5 -19t19.5 -46zM567 60q0 -27 -19.5 -46.5t-47.5 -19.5t-47.5 19.5t-19.5 45.5q0 27 19.5 46.5t47.5 19.5t47.5 -19t19.5 -46zM900 60q0 -27 -19.5 -46.5t-47.5 -19.5
t-47.5 19.5t-19.5 45.5q0 27 19.5 46.5t47.5 19.5t47.5 -19t19.5 -46z" />
    <glyph glyph-name="perthousand" unicode="&#x2030;" horiz-adv-x="1048" 
d="M596 681l-436 -687q-14 -21 -31 -21q-13 0 -23 8.5t-10 22.5q0 10 8 23l436 687q14 21 31 21q13 0 23 -8.5t10 -22.5q0 -10 -8 -23zM39 563q0 66 46.5 112.5t112.5 46.5q67 0 113.5 -46.5t46.5 -112.5t-46.5 -112.5t-113.5 -46.5q-66 0 -112.5 46.5t-46.5 112.5zM283 563
q0 35 -25 59.5t-60 24.5t-59.5 -24.5t-24.5 -59.5t24.5 -60t59.5 -25t60 25t25 60zM344 148q0 66 46.5 112.5t112.5 46.5q67 0 113.5 -46.5t46.5 -112.5t-46.5 -112.5t-113.5 -46.5q-66 0 -112.5 46.5t-46.5 112.5zM588 148q0 35 -25 59.5t-60 24.5t-59.5 -24.5t-24.5 -59.5
t24.5 -60t59.5 -25t60 25t25 60zM696 148q0 66 46.5 112.5t112.5 46.5q67 0 113.5 -46.5t46.5 -112.5t-46.5 -112.5t-113.5 -46.5q-66 0 -112.5 46.5t-46.5 112.5zM940 148q0 35 -25 59.5t-60 24.5t-59.5 -24.5t-24.5 -59.5t24.5 -60t59.5 -25t60 25t25 60z" />
    <glyph glyph-name="guilsinglleft" unicode="&#x2039;" horiz-adv-x="298" 
d="M166 58l-105 154q-12 18 -12 32t12 32l105 155q14 21 34 21q15 0 26 -10.5t11 -26.5q0 -14 -9 -27l-95 -144l95 -144q9 -14 9 -27q0 -16 -11 -26.5t-26 -10.5q-20 0 -34 22z" />
    <glyph glyph-name="guilsinglright" unicode="&#x203a;" horiz-adv-x="298" 
d="M237 212l-105 -154q-14 -22 -34 -22q-15 0 -26 10.5t-11 26.5q0 13 9 27l95 144l-95 144q-9 13 -9 27q0 16 11 26.5t26 10.5q20 0 34 -21l105 -155q12 -18 12 -32t-12 -32z" />
    <glyph glyph-name="fraction" unicode="&#x2044;" horiz-adv-x="100" 
d="M-191 33l398 678q13 23 34 23q15 0 26 -9.5t11 -25.5q0 -10 -7 -23l-398 -678q-13 -23 -34 -23q-15 0 -26 9.5t-11 25.5q0 10 7 23z" />
    <glyph glyph-name="Euro" unicode="&#x20ac;" horiz-adv-x="595" 
d="M485 629q-39 13 -86 13q-73 0 -128.5 -44t-76.5 -120h250q22 0 31 -11.5t9 -23.5q0 -8 -2.5 -15t-12 -14t-25.5 -7h-264q-4 -34 -4 -57q0 -28 3 -50h212q22 0 31 -11.5t9 -23.5q0 -8 -2.5 -15t-12 -14t-25.5 -7h-201q15 -72 72 -117t136 -45q56 0 101 21q13 6 23 6
q17 0 28 -11.5t11 -29.5q0 -25 -29 -42q-53 -29 -140 -29q-122 0 -199 70.5t-99 176.5h-36q-22 0 -31 11.5t-9 24.5q0 7 2.5 14t12 14t25.5 7h27q-2 30 -2 50q0 34 3 57h-25q-22 0 -31 11.5t-9 24.5q0 7 2.5 14t12 14t25.5 7h36q28 115 110.5 181.5t196.5 66.5q69 0 115 -18
q35 -13 35 -41q0 -18 -11 -30.5t-30 -12.5q-13 0 -28 5z" />
    <glyph glyph-name="afii61289" unicode="&#x2113;" horiz-adv-x="500" 
d="M339 579q0 35 -13.5 57t-34.5 22q-23 0 -39 -27.5t-16 -75.5v-203q103 115 103 227zM285 -14q-64 0 -101 35.5t-37 99.5v89l-39 -38q-10 -10 -22 -10q-13 0 -21.5 8t-8.5 21q0 14 13 26l77 70v251q0 82 41 132.5t105 50.5q55 0 89 -37t34 -99q0 -144 -179 -314v-135
q0 -43 21 -62t50 -19q32 0 67 22q15 9 24 9q12 0 20 -8.5t8 -20.5q0 -16 -17 -28q-56 -43 -124 -43z" />
    <glyph glyph-name="trademark" unicode="&#x2122;" horiz-adv-x="1000" 
d="M185 636h-97q-40 0 -40 36t40 36h273q40 0 40 -36t-40 -36h-95v-303q0 -25 -13 -35t-28 -10q-14 0 -27 10t-13 35v303zM476 333v328q0 30 15.5 42t33.5 12q35 0 53 -41l129 -285l128 285q19 41 52 41q10 0 20 -3.5t20 -16.5t10 -34v-328q0 -25 -13 -35t-28 -10t-28 10
t-13 35v211h-1l-103 -221q-17 -36 -45 -36t-45 36l-102 221h-2v-211q0 -25 -13 -35t-28 -10q-14 0 -27 10t-13 35z" />
    <glyph glyph-name="Omega" unicode="&#x2126;" horiz-adv-x="752" 
d="M285 194q31 -13 31 -50v-96q0 -48 -49 -48h-175q-26 0 -36.5 13.5t-10.5 27.5q0 15 10.5 28t36.5 13h146v57q-89 26 -137 100t-48 171q0 134 94.5 222.5t229.5 88.5q136 0 229.5 -87.5t93.5 -221.5q0 -99 -47 -172.5t-138 -100.5v-57h146q26 0 36 -13t10 -28
q0 -14 -10 -27.5t-36 -13.5h-176q-49 0 -49 48v96q0 38 32 50q69 25 104 81t35 131q0 99 -65 165.5t-164 66.5t-164.5 -67t-65.5 -166q0 -160 137 -211z" />
    <glyph glyph-name="estimated" unicode="&#x212e;" horiz-adv-x="605" 
d="M561 259h-404v-181q59 -59 145 -59q122 0 193 120l35 -21q-46 -72 -98 -103.5t-130 -31.5q-115 0 -186.5 79t-71.5 197q0 119 71 197.5t187 78.5q115 0 186.5 -77t72.5 -199zM157 295h291v145q-63 60 -147 60t-144 -60v-145z" />
    <glyph glyph-name="partialdiff" unicode="&#x2202;" horiz-adv-x="523" 
d="M142 620q-19 -11 -30 -11q-15 0 -25.5 10.5t-10.5 26.5q0 18 19 33q52 42 130 42q58 0 103.5 -22t73.5 -57t46.5 -83.5t25.5 -97t7 -101.5t-5 -100t-20.5 -98.5t-41 -88.5t-69 -61t-101.5 -24q-94 0 -151.5 65t-57.5 161q0 93 56 154.5t149 61.5q89 0 156 -69v27
q0 103 -44 181t-122 78q-44 0 -88 -27zM392 283q-64 77 -142 77q-62 0 -97 -44t-35 -107q0 -60 34.5 -104.5t94.5 -44.5q49 0 83.5 36.5t48 85t13.5 101.5z" />
    <glyph glyph-name="Delta" unicode="&#x2206;" horiz-adv-x="678" 
d="M550 83l-217 527l-209 -527h426zM398 669l244 -582q10 -25 10 -40q0 -17 -12 -32t-44 -15h-515q-32 0 -44 15t-12 32q0 15 10 40l236 582q20 51 64 51t63 -51z" />
    <glyph glyph-name="product" unicode="&#x220f;" horiz-adv-x="726" 
d="M660 731v-902q0 -29 -14.5 -40t-30.5 -11t-30.5 11t-14.5 40v874h-413v-874q0 -29 -14.5 -40t-30.5 -11q-17 0 -31.5 11t-14.5 40v902q0 55 56 55h483q55 0 55 -55z" />
    <glyph glyph-name="summation" unicode="&#x2211;" horiz-adv-x="626" 
d="M563 -214h-494q-29 0 -40.5 15t-11.5 32q0 19 21 46l303 412l-290 402q-21 30 -21 47t11.5 31.5t40.5 14.5h469q26 0 36 -13.5t10 -27.5q0 -15 -10 -28.5t-36 -13.5h-398l269 -373q14 -20 14 -38q0 -19 -15 -39l-286 -385h428q18 0 29.5 -8t14 -16t2.5 -16q0 -9 -3 -17.5
t-14 -16.5t-29 -8z" />
    <glyph glyph-name="minus" unicode="&#x2212;" horiz-adv-x="666" 
d="M559 262h-452q-26 0 -35.5 13t-9.5 28t9.5 28t35.5 13h452q26 0 35.5 -13t9.5 -28t-9.5 -28t-35.5 -13z" />
    <glyph glyph-name="uni2215" unicode="&#x2215;" horiz-adv-x="100" 
d="M-191 33l398 678q13 23 34 23q15 0 26 -9.5t11 -25.5q0 -10 -7 -23l-398 -678q-13 -23 -34 -23q-15 0 -26 9.5t-11 25.5q0 10 7 23z" />
    <glyph glyph-name="uni2219" unicode="&#x2219;" horiz-adv-x="260" 
d="M198 303q0 -27 -19.5 -46.5t-47.5 -19.5t-48 19.5t-20 45.5q0 27 19.5 47t48.5 20q28 0 47.5 -19.5t19.5 -46.5z" />
    <glyph glyph-name="radical" unicode="&#x221a;" horiz-adv-x="515" 
d="M136 173l122 -256l172 838q8 39 44 39q19 0 31 -11t12 -31q0 -8 -2 -19l-191 -906q-10 -49 -55 -49q-37 0 -55 38l-143 298l-16 -8q-13 -6 -22 -6q-16 0 -27 11t-11 28q0 25 25 36l47 22q16 8 29 8q25 0 40 -32z" />
    <glyph glyph-name="infinity" unicode="&#x221e;" horiz-adv-x="778" 
d="M736 258q0 -72 -42.5 -119t-112.5 -47q-54 0 -97.5 29t-93.5 81q-60 -59 -100.5 -84t-90.5 -25q-70 0 -113 46t-43 117q0 70 42 116.5t111 46.5q38 0 76 -19t61 -39.5t57 -56.5q28 29 42 42.5t40 34.5t52.5 30t55.5 9q70 0 113 -46t43 -116zM660 255q0 39 -21 65t-59 26
q-55 0 -142 -92q25 -25 42.5 -40.5t46.5 -30.5t56 -15q36 0 56.5 24.5t20.5 62.5zM342 254q-27 27 -44 41.5t-47.5 32t-55.5 17.5q-35 0 -56 -26.5t-21 -63.5q0 -38 22 -62.5t59 -24.5q59 0 143 86z" />
    <glyph glyph-name="integral" unicode="&#x222b;" horiz-adv-x="578" 
d="M442 723q0 -19 -12.5 -30.5t-31.5 -11.5q-16 0 -26.5 8t-14.5 17.5t-9.5 17.5t-12.5 8q-26 0 -26 -82q0 -19 1 -48.5t1 -37.5v-568q0 -209 -132 -209q-32 0 -57.5 14.5t-25.5 45.5q0 17 12.5 29t29.5 12q16 0 26 -8t13.5 -17t9 -17t12.5 -8q25 0 25 85q0 12 -0.5 37.5
t-0.5 39.5v574q0 44 4 75.5t16.5 66t40.5 52.5t70 18q29 0 58.5 -16.5t29.5 -46.5z" />
    <glyph glyph-name="approxequal" unicode="&#x2248;" horiz-adv-x="666" 
d="M201 353q-45 0 -62 -49q-9 -27 -32 -27q-14 0 -24.5 9t-10.5 24q0 10 5 25q32 103 126 103q44 0 136 -34q90 -34 127 -34q44 0 62 49q9 27 32 27q14 0 24.5 -9t10.5 -24q0 -10 -5 -25q-34 -103 -126 -103q-48 0 -137 35q-89 33 -126 33zM466 167q45 0 62 49q9 27 32 27
q14 0 24.5 -9t10.5 -24q0 -10 -5 -25q-32 -103 -126 -103q-44 0 -136 34q-90 34 -127 34q-44 0 -62 -49q-9 -27 -32 -27q-14 0 -24.5 9t-10.5 24q0 10 5 25q34 103 126 103q46 0 137 -35q87 -33 126 -33z" />
    <glyph glyph-name="notequal" unicode="&#x2260;" horiz-adv-x="666" 
d="M486 483l-39 -75h101q25 0 35 -13.5t10 -27.5t-10 -27.5t-35 -13.5h-143l-54 -103h197q25 0 35 -13.5t10 -27.5t-10 -27.5t-35 -13.5h-239l-57 -110q-14 -26 -37 -26q-16 0 -27.5 10.5t-11.5 28.5q0 13 6 25l37 72h-101q-25 0 -35 13.5t-10 27.5t10 27.5t35 13.5h143
l53 103h-196q-25 0 -35 13.5t-10 27.5t10 27.5t35 13.5h239l57 112q14 26 38 26q17 0 28.5 -10.5t11.5 -27.5q0 -13 -6 -25z" />
    <glyph glyph-name="lessequal" unicode="&#x2264;" horiz-adv-x="666" 
d="M546 5h-426q-26 0 -36.5 13.5t-10.5 28.5q0 8 3 16.5t14.5 16.5t29.5 8h426q26 0 36.5 -13t10.5 -28q0 -9 -3 -17t-14.5 -16.5t-29.5 -8.5zM525 147l-412 153q-40 15 -40 49t40 49l412 155q18 7 27 7q18 0 29.5 -11.5t11.5 -29.5q0 -31 -30 -41l-353 -130l353 -125
q30 -10 30 -40q0 -19 -11.5 -30.5t-29.5 -11.5q-11 0 -27 6z" />
    <glyph glyph-name="greaterequal" unicode="&#x2265;" horiz-adv-x="666" 
d="M546 5h-426q-26 0 -36.5 13.5t-10.5 28.5q0 8 3 16.5t14.5 16.5t29.5 8h426q26 0 36.5 -13t10.5 -28q0 -9 -3 -17t-14.5 -16.5t-29.5 -8.5zM553 300l-412 -153q-16 -6 -27 -6q-18 0 -29.5 11.5t-11.5 30.5q0 30 30 40l353 125l-353 130q-30 10 -30 41q0 18 11.5 29.5
t29.5 11.5q9 0 27 -7l412 -155q40 -15 40 -49t-40 -49z" />
    <glyph glyph-name="lozenge" unicode="&#x25ca;" horiz-adv-x="593" 
d="M424 356l-128 303l-127 -303l127 -304zM495 320l-146 -322q-19 -41 -53 -41t-53 41l-145 322q-9 19 -9 36t9 36l145 322q18 41 52 41t53 -41l147 -322q9 -19 9 -36t-9 -36z" />
    <glyph glyph-name="uniF8FF" unicode="&#xf8ff;" horiz-adv-x="512" 
d="M222 146v8q0 18 9 25t19 7t19 -7t9 -25v-8q0 -18 -9 -25t-19 -7t-19 7t-9 25zM50 50h412v617h-412v-617zM0 32v654q0 32 31 32h450q31 0 31 -32v-654q0 -32 -31 -32h-450q-31 0 -31 32zM223 254q0 50 12.5 78t46.5 59q31 29 39.5 47.5t8.5 41.5q0 35 -21.5 57t-52.5 22
q-61 0 -79 -75q-6 -23 -26 -23q-11 0 -18 7.5t-7 17.5q0 5 2 14q24 109 131 109q54 0 89 -34t35 -91q0 -35 -13 -63t-52 -65q-31 -30 -39 -46t-8 -56q0 -27 -24 -27t-24 27z" />
    <glyph glyph-name="grave.cap" 
d="M86 903l75 -76q18 -18 18 -35q0 -14 -10 -25t-25 -11q-19 0 -36 17l-77 73q-21 19 -21 38q0 16 11 27t27 11q19 0 38 -19z" />
    <glyph glyph-name="acute.cap" 
d="M89 827l75 76q19 19 38 19q16 0 27 -11t11 -27q0 -19 -21 -38l-77 -73q-17 -17 -36 -17q-15 0 -25 11t-10 25q0 17 18 35z" />
    <glyph glyph-name="circumflex.cap" 
d="M126 851l-86 -81q-15 -14 -29 -14q-13 0 -22.5 9t-9.5 23q0 15 14 28l81 80q26 26 51 26q24 0 51 -26l81 -79q14 -14 14 -29q0 -13 -9.5 -22.5t-23.5 -9.5q-15 0 -29 14z" />
    <glyph glyph-name="caron.cap" 
d="M124 827l86 81q15 14 29 14q13 0 22.5 -9t9.5 -23q0 -15 -14 -28l-81 -80q-26 -26 -51 -26q-24 0 -51 26l-81 79q-14 14 -14 29q0 13 9.5 22.5t23.5 9.5q15 0 29 -14z" />
    <glyph glyph-name="caron.alt" 
d="M90 571l41 109q14 36 41 36q17 0 28.5 -10t11.5 -27q0 -13 -7 -29l-43 -109q-13 -33 -40 -33q-16 0 -27 9.5t-11 25.5q0 12 6 28z" />
    <glyph glyph-name="tilde.cap" 
d="M194 776q-31 0 -75 23q-42 21 -62 21q-24 0 -38 -31q-10 -23 -30 -23q-31 0 -31 31q0 11 5 23q26 68 93 68q27 0 75 -23q44 -21 62 -21q24 0 38 31q10 23 30 23q30 0 30 -30q0 -12 -5 -24q-26 -68 -92 -68z" />
    <glyph glyph-name="dieresis.cap" 
d="M-34 845q0 25 18 43t44 18t44 -17.5t18 -43.5q0 -25 -18 -42.5t-44 -17.5t-44 18t-18 42zM160 845q0 25 18 43t44 18t44 -17.5t18 -43.5q0 -25 -18 -42.5t-44 -17.5t-44 18t-18 42z" />
    <glyph glyph-name="macron.cap" 
d="M240 796h-230q-21 0 -29.5 11.5t-8.5 23.5t8.5 23t29.5 11h230q21 0 29.5 -11t8.5 -23t-8.5 -23.5t-29.5 -11.5z" />
    <glyph glyph-name="breve.cap" 
d="M125 834q67 0 90 54q12 26 32 26q14 0 22 -9t8 -21q0 -10 -3 -19q-32 -95 -149 -95t-149 95q-3 9 -3 19q0 12 8 21t23 9q20 0 32 -26q24 -54 89 -54z" />
    <glyph glyph-name="ring.cap" 
d="M226 853q0 -42 -29.5 -70.5t-71.5 -28.5t-71 28t-29 70t29 70.5t71 28.5t71.5 -28t29.5 -70zM185 853q0 25 -17.5 41.5t-42.5 16.5t-42 -17t-17 -42q0 -24 17 -40.5t42 -16.5t42.5 16.5t17.5 41.5z" />
    <glyph glyph-name="hungarumlaut.cap" 
d="M180 827l69 77q16 18 37 18q16 -1 26 -11t10 -25q0 -18 -18 -37l-71 -76q-16 -17 -35 -17q-15 0 -25 10.5t-10 24.5q0 18 17 36zM-9 827l69 77q16 18 37 18q16 -1 26 -11t10 -25q0 -18 -18 -37l-71 -76q-16 -17 -35 -17q-15 0 -25 10.5t-10 24.5q0 18 17 36z" />
    <glyph glyph-name="dotaccent.cap" 
d="M188 845q0 -25 -18.5 -42.5t-44.5 -17.5t-44 17.5t-18 42.5t18 43t44 18t44.5 -17.5t18.5 -43.5z" />
    <glyph glyph-name="commaaccent" 
d="M58 -178l49 109q14 32 40 32q17 0 28 -10.5t11 -26.5q0 -15 -8 -31l-50 -105q-15 -33 -42 -33q-15 0 -25.5 10t-10.5 26q0 10 8 29z" />
    <glyph glyph-name="commaaccent.alt" 
d="M208 697l-49 -109q-14 -32 -40 -32q-17 0 -28 10.5t-11 26.5q0 15 8 31l50 105q15 33 42 33q15 0 25.5 -10t10.5 -26q0 -10 -8 -29z" />
    <glyph glyph-name="exclam.sc" horiz-adv-x="320" 
d="M225 59q0 -27 -18.5 -46t-46.5 -19t-47 19t-19 45q0 27 18.5 46t47.5 19q28 0 46.5 -18.5t18.5 -45.5zM208 490v-272q0 -30 -15 -41.5t-33 -11.5q-10 0 -19.5 3t-19 16t-9.5 34v272q0 30 15.5 42t32.5 12q10 0 20 -3.5t19 -16.5t9 -34z" />
    <glyph glyph-name="dollar.sc" horiz-adv-x="504" 
d="M229 536v41q0 16 8 22t16 6t16 -6t8 -22v-41q66 -3 107 -33q22 -14 22 -37q0 -17 -11 -28.5t-28 -11.5q-15 0 -34 14q-25 18 -56 20v-149q157 -45 157 -160q0 -64 -42.5 -106t-114.5 -45v-43q0 -16 -8 -22t-16 -6t-16 6t-8 22v43q-74 3 -131 46q-21 16 -21 39
q0 17 11.5 29t29.5 12q17 0 40 -19q36 -29 71 -31v166q-79 23 -116 57t-37 93q0 62 41.5 100.5t111.5 43.5zM277 229v-153q31 3 49 22t18 49q0 57 -67 82zM229 325v135q-29 -2 -46.5 -19t-17.5 -45t15.5 -44.5t48.5 -26.5z" />
    <glyph glyph-name="percent.sc" horiz-adv-x="706" 
d="M532 498l-291 -498q-13 -24 -36 -24q-15 0 -25.5 9.5t-10.5 24.5q0 13 8 26l291 497q14 25 35 25q15 0 26 -9.5t11 -24.5q0 -12 -8 -26zM45 412q0 60 40 96t100 36q62 0 101.5 -36t39.5 -96q0 -59 -40 -96.5t-101 -37.5q-60 0 -100 37.5t-40 96.5zM126 412
q0 -28 16.5 -45.5t42.5 -17.5q27 0 43.5 17.5t16.5 45.5t-16 45t-44 17q-26 0 -42.5 -17t-16.5 -45zM384 122q0 60 40 96t100 36q62 0 101.5 -36t39.5 -96q0 -59 -40 -96.5t-101 -37.5q-60 0 -100 37.5t-40 96.5zM465 122q0 -28 16.5 -45.5t42.5 -17.5q27 0 43.5 17.5
t16.5 45.5t-16 45t-44 17q-26 0 -42.5 -17t-16.5 -45z" />
    <glyph glyph-name="ampersand.sc" horiz-adv-x="619" 
d="M526 219l-55 -85l63 -60q19 -18 19 -38q0 -18 -12 -31t-31 -13q-20 0 -36 16l-56 55q-62 -77 -167 -77q-76 0 -128.5 40.5t-52.5 114.5q0 99 110 157q-52 55 -52 117q0 61 43.5 98t105.5 37t104 -35t42 -95q0 -84 -106 -140l91 -87l46 73q16 26 41 26q18 0 30 -12t12 -30
q0 -15 -11 -31zM250 64q70 0 107 59l-120 118q-71 -31 -71 -98q0 -35 23.5 -57t60.5 -22zM220 414q0 -36 42 -82q72 35 72 87q0 24 -15.5 38.5t-40.5 14.5t-41.5 -16.5t-16.5 -41.5z" />
    <glyph glyph-name="zero.sc" horiz-adv-x="504" 
d="M252 548q95 0 144.5 -77.5t49.5 -203.5t-49.5 -203.5t-144.5 -77.5q-96 0 -145 77.5t-49 203.5t49 203.5t145 77.5zM252 462q-48 0 -72 -56t-24 -139q0 -84 23.5 -139.5t72.5 -55.5t72.5 55.5t23.5 139.5q0 83 -24 139t-72 56z" />
    <glyph glyph-name="one.sc" horiz-adv-x="504" 
d="M333 485v-440q0 -30 -15 -41.5t-32 -11.5t-32.5 11.5t-15.5 41.5v371l-61 -51q-18 -15 -34 -15q-17 0 -28.5 12t-11.5 29q0 23 22 40l109 91q26 22 48 22q19 0 35 -12.5t16 -46.5z" />
    <glyph glyph-name="two.sc" horiz-adv-x="504" 
d="M424 396q0 -86 -90 -174l-144 -141h200q26 0 36 -13t10 -27t-10 -27.5t-36 -13.5h-265q-35 0 -47.5 15.5t-12.5 33.5q0 24 29 53l175 176q58 59 58 115q0 31 -20.5 53t-55.5 22q-54 0 -78 -53q-17 -35 -46 -35q-18 0 -31 12t-13 31q0 21 16 47q51 80 152 80
q76 0 124.5 -40t48.5 -114z" />
    <glyph glyph-name="three.sc" horiz-adv-x="504" 
d="M432 154q0 -79 -54 -123.5t-130 -44.5q-102 0 -157 71q-17 21 -17 40t13 31t32 12q25 0 44 -28q31 -44 83 -44q38 0 65 22t27 64q0 45 -33 66t-81 21q-24 0 -34 12.5t-10 26.5q0 8 3 16t13.5 15.5t27.5 7.5q42 0 71.5 18.5t29.5 58.5q0 32 -23 52.5t-56 20.5
q-41 0 -72 -38q-16 -21 -39 -21q-18 0 -30 11.5t-12 29.5q0 19 16 37q54 62 140 62q73 0 121.5 -39.5t48.5 -109.5q0 -41 -23 -72.5t-64 -46.5v-1q46 -12 73 -46t27 -81z" />
    <glyph glyph-name="four.sc" horiz-adv-x="504" 
d="M292 194v221h-2l-145 -221h147zM63 209l197 292q28 43 66 43q12 0 23.5 -4.5t23 -22t11.5 -44.5v-279h35q25 0 35.5 -13t10.5 -27t-10.5 -27t-35.5 -13h-35v-70q0 -29 -14.5 -40.5t-30.5 -11.5q-17 0 -32 11t-15 41v70h-190q-32 0 -44 15.5t-12 33.5q0 20 17 46z" />
    <glyph glyph-name="five.sc" horiz-adv-x="504" 
d="M157 110q30 -43 82 -43q44 0 72 28t28 73q0 51 -29 77.5t-80 26.5q-25 0 -55 -9q-26 -8 -35 -8q-8 0 -15.5 2.5t-14.5 12.5t-7 27l5 184q1 55 56 55h210q26 0 35.5 -12.5t9.5 -27.5t-9.5 -27.5t-35.5 -12.5h-176l-4 -116q29 8 56 8q82 0 133 -47t51 -127
q0 -83 -54.5 -135.5t-141.5 -52.5q-101 0 -152 70q-13 17 -13 35t12.5 30.5t31.5 12.5q23 0 40 -24z" />
    <glyph glyph-name="six.sc" horiz-adv-x="504" 
d="M275 338q74 0 121.5 -46t47.5 -123q0 -81 -54 -132t-136 -51q-83 0 -137 50t-54 128q0 79 60 169l121 183q18 28 45 28q19 0 31.5 -12.5t12.5 -30.5q0 -16 -14 -35l-97 -137l1 -2q23 11 52 11zM158 165q0 -44 27.5 -71.5t68.5 -27.5t68 28.5t27 71.5t-26 70.5t-69 27.5
q-42 0 -69 -28t-27 -71z" />
    <glyph glyph-name="seven.sc" horiz-adv-x="504" 
d="M420 442l-197 -416q-17 -34 -46 -34q-21 0 -35 12.5t-14 33.5q0 14 8 29l190 384h-215q-26 0 -36.5 13.5t-10.5 28.5q0 9 3 17.5t14.5 17t29.5 8.5h270q30 0 41.5 -15t11.5 -32q0 -16 -14 -47z" />
    <glyph glyph-name="eight.sc" horiz-adv-x="504" 
d="M419 401q0 -39 -21 -70.5t-59 -46.5v-2q47 -16 73.5 -50.5t26.5 -81.5q0 -76 -53.5 -120t-133.5 -44q-81 0 -134.5 44t-53.5 120q0 47 25.5 81.5t71.5 50.5v2q-35 14 -56 45t-21 70q0 68 48.5 109.5t119.5 41.5t119 -40.5t48 -108.5zM160 153q0 -40 25.5 -64t66.5 -24
q40 0 65.5 24.5t25.5 63.5t-26 65t-65 26q-40 0 -66 -26t-26 -65zM176 394q0 -33 22 -53.5t54 -20.5q31 0 53 20.5t22 53.5q0 34 -22 55.5t-53 21.5q-33 0 -54.5 -21.5t-21.5 -55.5z" />
    <glyph glyph-name="nine.sc" horiz-adv-x="504" 
d="M348 374q0 43 -27.5 69.5t-69.5 26.5q-41 0 -67.5 -27t-26.5 -70t26 -70.5t69 -27.5q42 0 69 28t27 71zM382 203l-121 -183q-18 -28 -45 -28q-19 0 -31.5 12.5t-12.5 30.5q0 15 14 35l99 141l-1 1q-25 -11 -52 -11q-74 0 -122 46t-48 123q0 81 53.5 130.5t135.5 49.5
q83 0 137 -50t54 -128q0 -79 -60 -169z" />
    <glyph glyph-name="question.sc" horiz-adv-x="440" 
d="M286 59q0 -27 -19 -46t-47 -19t-46.5 18.5t-18.5 45.5t18.5 45.5t46.5 18.5t47 -18.5t19 -44.5zM157 426q-19 -32 -46 -32q-19 0 -32 11.5t-13 30.5q0 18 13 40q46 74 148 74q76 0 117.5 -42t41.5 -105q0 -70 -69 -126q-50 -41 -53 -71q-5 -41 -46 -41q-18 0 -32.5 11.5
t-14.5 37.5q0 53 60 103l21 18q36 30 36 67q0 27 -17.5 45.5t-49.5 18.5q-44 0 -64 -40z" />
    <glyph glyph-name="a.sc" horiz-adv-x="550" 
d="M445 27l-42 97h-261l-42 -98q-15 -34 -46 -34q-19 0 -32 12.5t-13 32.5q0 13 7 28l196 429q22 50 64 50q41 0 64 -50l194 -427q6 -14 6 -27q0 -20 -14 -34t-34 -14q-32 0 -47 35zM273 425l-97 -224h194z" />
    <glyph glyph-name="b.sc" horiz-adv-x="539" 
d="M271 0h-129q-58 0 -58 57v421q0 58 58 58h141q73 0 121.5 -33.5t48.5 -104.5q0 -82 -77 -115v-2q47 -12 74 -44t27 -82q0 -78 -58.5 -116.5t-147.5 -38.5zM178 456v-141h89q40 0 65 19t25 55q0 67 -97 67h-82zM178 238v-157h90q112 0 112 80q0 77 -104 77h-98z" />
    <glyph glyph-name="c.sc" horiz-adv-x="566" 
d="M451 117q18 17 36 17q19 0 32 -13t13 -32q0 -23 -25 -44q-67 -59 -174 -59q-126 0 -203.5 78t-77.5 205q0 125 82 203t207 78q98 0 161 -51q23 -17 23 -41q0 -19 -13.5 -32.5t-33.5 -13.5q-16 0 -36 15q-46 38 -104 38q-82 0 -132.5 -56t-50.5 -140q0 -81 51 -139
t129 -58q67 0 116 45z" />
    <glyph glyph-name="d.sc" horiz-adv-x="619" 
d="M275 0h-133q-58 0 -58 57v421q0 58 58 58h135q56 0 106 -15t92.5 -45.5t67 -83.5t24.5 -123q0 -88 -44 -151t-108 -90.5t-140 -27.5zM180 456v-375h80q91 0 148 47.5t57 140.5q0 95 -56.5 141t-148.5 46h-80z" />
    <glyph glyph-name="e.sc" horiz-adv-x="507" 
d="M414 0h-272q-58 0 -58 57v421q0 58 58 58h260q26 0 36 -13t10 -27q0 -15 -10 -27.5t-36 -12.5h-223v-141h210q25 0 35 -12.5t10 -25.5q0 -15 -10 -27t-35 -12h-210v-157h235q18 0 29.5 -8t14 -15.5t2.5 -16.5t-3 -17t-14 -16t-29 -8z" />
    <glyph glyph-name="f.sc" horiz-adv-x="476" 
d="M378 228h-198v-182q0 -30 -15.5 -42t-32.5 -12q-10 0 -20 3.5t-19 16.5t-9 34v432q0 58 58 58h260q26 0 36 -13t10 -27q0 -15 -10 -27.5t-36 -12.5h-222v-150h198q26 0 36 -12.5t10 -26.5q0 -15 -10 -27t-36 -12z" />
    <glyph glyph-name="g.sc" horiz-adv-x="625" 
d="M548 243v-166q0 -48 -49 -64q-73 -27 -157 -27q-128 0 -209 79.5t-81 203.5q0 125 81.5 203t205.5 78q106 0 167 -45q26 -19 26 -42q0 -19 -12.5 -32.5t-32.5 -13.5q-17 0 -34 12q-51 36 -113 36q-84 0 -134.5 -56t-50.5 -139q0 -85 52.5 -142t137.5 -57q63 0 107 21v132
h-77q-24 0 -34 13t-10 27q0 8 3 15.5t13.5 15t27.5 7.5h114q59 0 59 -59z" />
    <glyph glyph-name="h.sc" horiz-adv-x="607" 
d="M523 46q0 -30 -15.5 -42t-32.5 -12q-10 0 -20 3.5t-19 16.5t-9 34v191h-247v-191q0 -30 -15.5 -42t-32.5 -12q-10 0 -20 3.5t-19 16.5t-9 34v444q0 30 15.5 42t32.5 12q10 0 20 -3.5t19 -16.5t9 -34v-174h247v174q0 30 15.5 42t32.5 12q10 0 20 -3.5t19 -16.5t9 -34v-444
z" />
    <glyph glyph-name="i.sc" horiz-adv-x="264" 
d="M180 490v-444q0 -30 -15.5 -42t-32.5 -12q-10 0 -20 3.5t-19 16.5t-9 34v444q0 30 15.5 42t32.5 12q10 0 20 -3.5t19 -16.5t9 -34z" />
    <glyph glyph-name="j.sc" horiz-adv-x="407" 
d="M233 172v318q0 30 15.5 42t32.5 12q10 0 20 -3.5t19 -16.5t9 -34v-322q0 -25 -4 -48.5t-14.5 -48.5t-28 -43t-46.5 -30t-67 -12q-96 0 -137 73q-9 15 -9 30q0 19 13 31.5t33 12.5q24 0 42 -26q24 -35 56 -35q36 0 51 24.5t15 75.5z" />
    <glyph glyph-name="k.sc" horiz-adv-x="543" 
d="M430 12l-248 253h-2v-219q0 -30 -15.5 -42t-32.5 -12q-10 0 -20 3.5t-19 16.5t-9 34v444q0 30 15.5 42t32.5 12q10 0 20 -3.5t19 -16.5t9 -34v-183h2l236 219q18 18 38 18q18 0 31 -12.5t13 -31.5q0 -20 -20 -39l-195 -172l214 -212q18 -17 18 -39q0 -19 -13 -32.5
t-33 -13.5q-22 0 -41 20z" />
    <glyph glyph-name="l.sc" horiz-adv-x="420" 
d="M180 81h192q18 0 29.5 -8t14 -15.5t2.5 -16.5t-3 -17t-14 -16t-29 -8h-230q-58 0 -58 57v433q0 30 15.5 42t32.5 12q10 0 20 -3.5t19 -16.5t9 -34v-409z" />
    <glyph glyph-name="m.sc" horiz-adv-x="737" 
d="M653 479v-435q0 -29 -15 -40.5t-32 -11.5t-32 11.5t-15 40.5v303h-2l-133 -311q-18 -44 -55 -44t-56 44l-133 310h-2v-302q0 -29 -15 -40.5t-32 -11.5t-32 11.5t-15 40.5v435q0 36 18.5 50.5t39.5 14.5q42 0 65 -54l164 -385h2l160 385q21 54 64 54q20 0 38 -14.5
t18 -50.5z" />
    <glyph glyph-name="n.sc" horiz-adv-x="618" 
d="M441 153v338q0 29 15 41t31 12q17 0 32 -11.5t15 -41.5v-429q0 -39 -19 -54.5t-40 -15.5q-37 0 -70 50l-227 345h-1v-342q0 -30 -15 -41.5t-32 -11.5q-9 0 -18.5 3.5t-18.5 16t-9 33.5v429q0 39 19 54.5t40 15.5q35 0 69 -50l227 -341h2z" />
    <glyph glyph-name="o.sc" horiz-adv-x="681" 
d="M629 269q0 -123 -82.5 -203t-207.5 -80q-123 0 -205 80t-82 203q0 125 81.5 203t205.5 78q126 0 208 -78t82 -203zM526 269q0 85 -51.5 140.5t-135.5 55.5q-83 0 -133.5 -55.5t-50.5 -140.5q0 -86 50.5 -142t133.5 -56q84 0 135.5 56t51.5 142z" />
    <glyph glyph-name="p.sc" horiz-adv-x="505" 
d="M143 536h127q93 0 146 -43t53 -121q0 -81 -54.5 -125t-147.5 -44h-87v-157q0 -30 -15.5 -42t-32.5 -12q-10 0 -20 3.5t-19 16.5t-9 34v433q0 57 59 57zM180 456v-175h81q52 0 82 22.5t30 66.5q0 42 -28 64t-80 22h-85z" />
    <glyph glyph-name="q.sc" horiz-adv-x="687" 
d="M614 0h-279q-127 0 -205 74.5t-78 200.5q0 120 80.5 197.5t202.5 77.5q123 0 202.5 -75.5t79.5 -195.5q0 -126 -94 -195v-3h91q26 0 36 -13t10 -27t-10 -27.5t-36 -13.5zM155 275q0 -85 50 -139.5t130 -54.5t130.5 54.5t50.5 139.5q0 81 -51 136t-130 55q-78 0 -129 -55
t-51 -136z" />
    <glyph glyph-name="r.sc" horiz-adv-x="525" 
d="M354 240l111 -167q12 -17 12 -34q0 -19 -13 -33t-33 -14q-29 0 -45 27l-129 207h-77v-180q0 -30 -15.5 -42t-32.5 -12q-10 0 -20 3.5t-19 16.5t-9 34v433q0 57 58 57h133q196 0 196 -149q0 -57 -31.5 -95t-85.5 -52zM180 456v-152h83q111 0 111 80q0 72 -105 72h-89z" />
    <glyph glyph-name="s.sc" horiz-adv-x="465" 
d="M242 468q-37 0 -62 -19.5t-25 -52.5q0 -34 22 -49.5t75 -33.5q34 -11 57 -21.5t49 -28.5t39 -46t13 -64q0 -82 -53.5 -124.5t-135.5 -42.5q-88 0 -150 48q-27 22 -27 45q0 19 13 32t33 13q19 0 35 -15q48 -39 98 -39q40 0 66.5 18.5t26.5 52.5q0 37 -27.5 57.5
t-89.5 39.5q-66 21 -102.5 53t-36.5 98q0 78 55.5 119.5t132.5 41.5q72 0 131 -41q28 -19 28 -43q0 -18 -12 -30.5t-31 -12.5q-18 0 -38 15q-41 30 -84 30z" />
    <glyph glyph-name="t.sc" horiz-adv-x="442" 
d="M172 456h-126q-26 0 -36 12.5t-10 27.5q0 14 10 27t36 13h350q26 0 36 -13t10 -27q0 -15 -10 -27.5t-36 -12.5h-128v-410q0 -30 -15.5 -42t-32.5 -12q-10 0 -20 3.5t-19 16.5t-9 34v410z" />
    <glyph glyph-name="u.sc" horiz-adv-x="595" 
d="M78 200v290q0 30 15.5 42t32.5 12q10 0 20 -3.5t19 -16.5t9 -34v-283q0 -59 30 -97t93 -38t93.5 38t30.5 97v283q0 30 15.5 42t32.5 12q10 0 20 -3.5t19 -16.5t9 -34v-290q0 -94 -59 -154t-161 -60t-160.5 60t-58.5 154z" />
    <glyph glyph-name="v.sc" horiz-adv-x="504" 
d="M491 470l-173 -425q-21 -53 -66 -53q-46 0 -67 53l-172 422q-6 16 -6 30q0 20 13.5 33.5t34.5 13.5q33 0 48 -40l149 -381h3l150 383q15 38 46 38q20 0 33.5 -13t13.5 -33q0 -11 -7 -28z" />
    <glyph glyph-name="w.sc" horiz-adv-x="796" 
d="M776 471l-137 -425q-17 -54 -64 -54q-46 0 -63 54l-113 357h-1l-113 -357q-17 -54 -64 -54t-64 54l-138 425q-4 16 -4 25q0 21 14.5 34.5t35.5 13.5q38 0 51 -46l108 -368h2l108 356q18 58 64 58q47 0 65 -58l110 -356h2l107 369q13 45 50 45q21 0 35 -13t14 -34
q0 -11 -5 -26z" />
    <glyph glyph-name="x.sc" horiz-adv-x="508" 
d="M398 16l-146 194l-144 -194q-18 -24 -41 -24q-20 0 -33 12.5t-13 31.5q0 17 13 35l159 213l-139 180q-14 18 -14 35q0 19 13 32t33 13q24 0 42 -24l127 -169l129 171q16 22 39 22q19 0 32 -12.5t13 -31.5q0 -15 -12 -32l-144 -186l162 -209q13 -17 13 -35q0 -20 -13 -33
t-33 -13q-25 0 -43 24z" />
    <glyph glyph-name="y.sc" horiz-adv-x="473" 
d="M462 466l-178 -241v-179q0 -30 -15.5 -42t-32.5 -12q-10 0 -20 3.5t-19 16.5t-9 34v179l-177 241q-12 16 -12 32q0 19 14 32.5t33 13.5q24 0 43 -26l149 -212l148 212q18 26 42 26q20 0 33 -13t13 -32q0 -16 -12 -33z" />
    <glyph glyph-name="z.sc" horiz-adv-x="496" 
d="M412 0h-319q-31 0 -43 15.5t-12 32.5q0 23 25 53l266 355h-241q-18 0 -29.5 8t-14 15.5t-2.5 16.5t2.5 16.5t14 15.5t29.5 8h314q29 0 40.5 -15.5t11.5 -32.5q0 -21 -23 -52l-267 -355h248q18 0 29.5 -8t14 -16t2.5 -16q0 -9 -2.5 -17t-14 -16t-29.5 -8z" />
    <glyph glyph-name="agrave.sc" horiz-adv-x="550" 
d="M445 27l-42 97h-261l-42 -98q-15 -34 -46 -34q-19 0 -32 12.5t-13 32.5q0 13 7 28l196 429q22 50 64 50q41 0 64 -50l194 -427q6 -14 6 -27q0 -20 -14 -34t-34 -14q-32 0 -47 35zM273 425l-97 -224h194zM212 733l75 -76q18 -18 18 -35q0 -14 -10 -25t-25 -11
q-19 0 -36 17l-77 73q-21 19 -21 38q0 16 11 27t27 11q19 0 38 -19z" />
    <glyph glyph-name="aacute.sc" horiz-adv-x="550" 
d="M445 27l-42 97h-261l-42 -98q-15 -34 -46 -34q-19 0 -32 12.5t-13 32.5q0 13 7 28l196 429q22 50 64 50q41 0 64 -50l194 -427q6 -14 6 -27q0 -20 -14 -34t-34 -14q-32 0 -47 35zM273 425l-97 -224h194zM265 657l75 76q19 19 38 19q16 0 27 -11t11 -27q0 -19 -21 -38
l-77 -73q-17 -17 -36 -17q-15 0 -25 11t-10 25q0 17 18 35z" />
    <glyph glyph-name="acircumflex.sc" horiz-adv-x="550" 
d="M445 27l-42 97h-261l-42 -98q-15 -34 -46 -34q-19 0 -32 12.5t-13 32.5q0 13 7 28l196 429q22 50 64 50q41 0 64 -50l194 -427q6 -14 6 -27q0 -20 -14 -34t-34 -14q-32 0 -47 35zM273 425l-97 -224h194zM275 681l-86 -81q-15 -14 -29 -14t-23 9t-9 23q0 15 14 28l81 80
q26 26 51 26q24 0 51 -26l81 -79q14 -14 14 -29q0 -13 -9.5 -22.5t-23.5 -9.5q-15 0 -29 14z" />
    <glyph glyph-name="atilde.sc" horiz-adv-x="550" 
d="M445 27l-42 97h-261l-42 -98q-15 -34 -46 -34q-19 0 -32 12.5t-13 32.5q0 13 7 28l196 429q22 50 64 50q41 0 64 -50l194 -427q6 -14 6 -27q0 -20 -14 -34t-34 -14q-32 0 -47 35zM273 425l-97 -224h194zM344 606q-31 0 -75 23q-42 21 -62 21q-24 0 -38 -31
q-10 -23 -30 -23q-31 0 -31 31q0 11 5 23q26 68 93 68q27 0 75 -23q44 -21 62 -21q24 0 38 31q10 23 30 23q30 0 30 -30q0 -12 -5 -24q-26 -68 -92 -68z" />
    <glyph glyph-name="adieresis.sc" horiz-adv-x="550" 
d="M445 27l-42 97h-261l-42 -98q-15 -34 -46 -34q-19 0 -32 12.5t-13 32.5q0 13 7 28l196 429q22 50 64 50q41 0 64 -50l194 -427q6 -14 6 -27q0 -20 -14 -34t-34 -14q-32 0 -47 35zM273 425l-97 -224h194zM116 675q0 25 18 43t44 18t44 -17.5t18 -43.5q0 -25 -18 -42.5
t-44 -17.5t-44 18t-18 42zM310 675q0 25 18 43t44 18t44 -17.5t18 -43.5q0 -25 -18 -42.5t-44 -17.5t-44 18t-18 42z" />
    <glyph glyph-name="aring.sc" horiz-adv-x="550" 
d="M445 27l-42 97h-261l-42 -98q-15 -34 -46 -34q-19 0 -32 12.5t-13 32.5q0 13 7 28l196 429q22 50 64 50q41 0 64 -50l194 -427q6 -14 6 -27q0 -20 -14 -34t-34 -14q-32 0 -47 35zM273 425l-97 -224h194zM376 683q0 -42 -29.5 -70.5t-71.5 -28.5t-71 28t-29 70t29 70.5
t71 28.5t71.5 -28t29.5 -70zM335 683q0 25 -17.5 41.5t-42.5 16.5t-42 -17t-17 -42q0 -24 17 -40.5t42 -16.5t42.5 16.5t17.5 41.5z" />
    <glyph glyph-name="amacron.sc" horiz-adv-x="550" 
d="M445 27l-42 97h-261l-42 -98q-15 -34 -46 -34q-19 0 -32 12.5t-13 32.5q0 13 7 28l196 429q22 50 64 50q41 0 64 -50l194 -427q6 -14 6 -27q0 -20 -14 -34t-34 -14q-32 0 -47 35zM273 425l-97 -224h194zM389 626h-230q-21 0 -29.5 11.5t-8.5 23.5t8.5 23t29.5 11h230
q21 0 29.5 -11t8.5 -23t-8.5 -23.5t-29.5 -11.5z" />
    <glyph glyph-name="abreve.sc" horiz-adv-x="550" 
d="M445 27l-42 97h-261l-42 -98q-15 -34 -46 -34q-19 0 -32 12.5t-13 32.5q0 13 7 28l196 429q22 50 64 50q41 0 64 -50l194 -427q6 -14 6 -27q0 -20 -14 -34t-34 -14q-32 0 -47 35zM273 425l-97 -224h194zM274 664q67 0 90 54q12 26 32 26q14 0 22 -9t8 -21q0 -10 -3 -19
q-32 -95 -149 -95t-149 95q-3 9 -3 19q0 12 8 21t23 9q20 0 32 -26q24 -54 89 -54z" />
    <glyph glyph-name="aogonek.sc" horiz-adv-x="550" 
d="M528 -202q-37 -24 -77 -24q-39 0 -68 24t-29 63q0 76 108 142q-10 9 -17 24l-42 97h-261l-42 -98q-15 -34 -46 -34q-19 0 -32 12.5t-13 32.5q0 13 7 28l196 430q22 50 64 50q41 0 64 -50l194 -428q6 -14 6 -27q0 -25 -20 -40q-57 -46 -77 -69t-20 -50q0 -20 13.5 -33
t34.5 -13q12 0 30 8q11 5 19 5q10 0 17 -7t7 -17q0 -15 -16 -26zM273 425l-97 -224h194z" />
    <glyph glyph-name="ae.sc" horiz-adv-x="840" 
d="M387 536h348q26 0 36 -13t10 -27q0 -15 -10 -27.5t-36 -12.5h-222v-141h209q25 0 35 -12.5t10 -25.5q0 -15 -10 -27t-35 -12h-209v-157h234q18 0 29.5 -8t14 -15.5t2.5 -16.5t-3 -17t-14 -16t-29 -8h-272q-58 0 -58 57v77h-226l-75 -114q-19 -28 -46 -28q-19 0 -32.5 13
t-13.5 33q0 17 11 34l294 432q22 32 58 32zM407 462l-166 -251h176v251h-10z" />
    <glyph glyph-name="cacute.sc" horiz-adv-x="566" 
d="M451 117q18 17 36 17q19 0 32 -13t13 -32q0 -23 -25 -44q-67 -59 -174 -59q-126 0 -203.5 78t-77.5 205q0 125 82 203t207 78q98 0 161 -51q23 -17 23 -41q0 -19 -13.5 -32.5t-33.5 -13.5q-16 0 -36 15q-46 38 -104 38q-82 0 -132.5 -56t-50.5 -140q0 -81 51 -139
t129 -58q67 0 116 45zM293 657l75 76q19 19 38 19q16 0 27 -11t11 -27q0 -19 -21 -38l-77 -73q-17 -17 -36 -17q-15 0 -25 11t-10 25q0 17 18 35z" />
    <glyph glyph-name="ccircumflex.sc" horiz-adv-x="566" 
d="M451 117q18 17 36 17q19 0 32 -13t13 -32q0 -23 -25 -44q-67 -59 -174 -59q-126 0 -203.5 78t-77.5 205q0 125 82 203t207 78q98 0 161 -51q23 -17 23 -41q0 -19 -13.5 -32.5t-33.5 -13.5q-16 0 -36 15q-46 38 -104 38q-82 0 -132.5 -56t-50.5 -140q0 -81 51 -139
t129 -58q67 0 116 45zM338 681l-86 -81q-15 -14 -29 -14q-13 0 -22.5 9t-9.5 23q0 15 14 28l81 80q26 26 51 26q24 0 51 -26l81 -79q14 -14 14 -29q0 -13 -9.5 -22.5t-23.5 -9.5q-15 0 -29 14z" />
    <glyph glyph-name="ccaron.sc" horiz-adv-x="566" 
d="M451 117q18 17 36 17q19 0 32 -13t13 -32q0 -23 -25 -44q-67 -59 -174 -59q-126 0 -203.5 78t-77.5 205q0 125 82 203t207 78q98 0 161 -51q23 -17 23 -41q0 -19 -13.5 -32.5t-33.5 -13.5q-16 0 -36 15q-46 38 -104 38q-82 0 -132.5 -56t-50.5 -140q0 -81 51 -139
t129 -58q67 0 116 45zM337 657l86 81q15 14 29 14t23 -9t9 -23q0 -15 -14 -28l-81 -80q-26 -26 -51 -26q-24 0 -51 26l-81 79q-14 14 -14 29q0 13 9.5 22.5t23.5 9.5q15 0 29 -14z" />
    <glyph glyph-name="cdotaccent.sc" horiz-adv-x="566" 
d="M451 117q18 17 36 17q19 0 32 -13t13 -32q0 -23 -25 -44q-67 -59 -174 -59q-126 0 -203.5 78t-77.5 205q0 125 82 203t207 78q98 0 161 -51q23 -17 23 -41q0 -19 -13.5 -32.5t-33.5 -13.5q-16 0 -36 15q-46 38 -104 38q-82 0 -132.5 -56t-50.5 -140q0 -81 51 -139
t129 -58q67 0 116 45zM401 675q0 -25 -18.5 -42.5t-44.5 -17.5t-44 17.5t-18 42.5t18 43t44 18t44.5 -17.5t18.5 -43.5z" />
    <glyph glyph-name="ccedilla.sc" horiz-adv-x="566" 
d="M238 -169q8 0 23 -5q22 -7 49 -7q58 0 58 36q0 35 -44 35q-10 0 -22 -2q-15 -3 -21 -3q-24 0 -24 21q0 8 8 21l39 61q-114 9 -183 85.5t-69 195.5q0 125 82 203t207 78q96 0 161 -52q23 -17 23 -40q0 -19 -13.5 -32.5t-33.5 -13.5q-16 0 -36 15q-46 38 -104 38
q-82 0 -132.5 -56t-50.5 -140q0 -81 51 -139t129 -58q67 0 116 45q18 17 36 17q19 0 32 -13t13 -32q0 -23 -25 -44q-59 -51 -145 -58l-36 -54q16 2 27 2q36 0 61.5 -19.5t25.5 -59.5q0 -47 -37.5 -69t-89.5 -22q-40 0 -76 12q-25 9 -25 28q0 10 7.5 18t18.5 8z" />
    <glyph glyph-name="dcaron.sc" horiz-adv-x="619" 
d="M275 0h-133q-58 0 -58 57v421q0 58 58 58h135q56 0 106 -15t92.5 -45.5t67 -83.5t24.5 -123q0 -88 -44 -151t-108 -90.5t-140 -27.5zM180 456v-375h80q91 0 148 47.5t57 140.5q0 95 -56.5 141t-148.5 46h-80zM291 657l86 81q15 14 29 14t23 -9t9 -23q0 -15 -14 -28
l-81 -80q-26 -26 -51 -26q-24 0 -51 26l-81 79q-14 14 -14 29q0 13 9.5 22.5t23.5 9.5q15 0 29 -14z" />
    <glyph glyph-name="dcroat.sc" horiz-adv-x="619" 
d="M275 0h-133q-58 0 -58 57v187h-37q-22 0 -31 11t-9 24q0 8 2.5 15t12 13.5t25.5 6.5h37v164q0 58 58 58h135q56 0 106 -15t92.5 -45.5t67 -83.5t24.5 -123q0 -88 -44 -151t-108 -90.5t-140 -27.5zM180 456v-142h99q22 0 31 -11t9 -24q0 -8 -2.5 -15t-12 -13.5t-25.5 -6.5
h-99v-163h80q91 0 148 47.5t57 140.5q0 95 -56.5 141t-148.5 46h-80z" />
    <glyph glyph-name="eth.sc" horiz-adv-x="619" 
d="M275 0h-133q-58 0 -58 57v187h-37q-22 0 -31 11t-9 24q0 8 2.5 15t12 13.5t25.5 6.5h37v164q0 58 58 58h135q56 0 106 -15t92.5 -45.5t67 -83.5t24.5 -123q0 -88 -44 -151t-108 -90.5t-140 -27.5zM180 456v-142h99q22 0 31 -11t9 -24q0 -8 -2.5 -15t-12 -13.5t-25.5 -6.5
h-99v-163h80q91 0 148 47.5t57 140.5q0 95 -56.5 141t-148.5 46h-80z" />
    <glyph glyph-name="egrave.sc" horiz-adv-x="507" 
d="M414 0h-272q-58 0 -58 57v421q0 58 58 58h260q26 0 36 -13t10 -27q0 -15 -10 -27.5t-36 -12.5h-223v-141h210q25 0 35 -12.5t10 -25.5q0 -15 -10 -27t-35 -12h-210v-157h235q18 0 29.5 -8t14 -15.5t2.5 -16.5t-3 -17t-14 -16t-29 -8zM233 733l75 -76q18 -18 18 -35
q0 -14 -10 -25t-25 -11q-19 0 -36 17l-77 73q-21 19 -21 38q0 16 10.5 27t27.5 11q19 0 38 -19z" />
    <glyph glyph-name="eacute.sc" horiz-adv-x="507" 
d="M414 0h-272q-58 0 -58 57v421q0 58 58 58h260q26 0 36 -13t10 -27q0 -15 -10 -27.5t-36 -12.5h-223v-141h210q25 0 35 -12.5t10 -25.5q0 -15 -10 -27t-35 -12h-210v-157h235q18 0 29.5 -8t14 -15.5t2.5 -16.5t-3 -17t-14 -16t-29 -8zM236 657l75 76q19 19 38 19
q17 0 27.5 -11t10.5 -27q0 -19 -21 -38l-77 -73q-17 -17 -36 -17q-15 0 -25 11t-10 25q0 17 18 35z" />
    <glyph glyph-name="ecircumflex.sc" horiz-adv-x="507" 
d="M414 0h-272q-58 0 -58 57v421q0 58 58 58h260q26 0 36 -13t10 -27q0 -15 -10 -27.5t-36 -12.5h-223v-141h210q25 0 35 -12.5t10 -25.5q0 -15 -10 -27t-35 -12h-210v-157h235q18 0 29.5 -8t14 -15.5t2.5 -16.5t-3 -17t-14 -16t-29 -8zM266 681l-86 -81q-15 -14 -29 -14
q-13 0 -22.5 9t-9.5 23q0 15 14 28l81 80q26 26 51 26q24 0 51 -26l81 -79q14 -14 14 -29q0 -13 -9.5 -22.5t-23.5 -9.5q-15 0 -29 14z" />
    <glyph glyph-name="ecaron.sc" horiz-adv-x="507" 
d="M414 0h-272q-58 0 -58 57v421q0 58 58 58h260q26 0 36 -13t10 -27q0 -15 -10 -27.5t-36 -12.5h-223v-141h210q25 0 35 -12.5t10 -25.5q0 -15 -10 -27t-35 -12h-210v-157h235q18 0 29.5 -8t14 -15.5t2.5 -16.5t-3 -17t-14 -16t-29 -8zM268 657l86 81q15 14 29 14
q13 0 22.5 -9t9.5 -23q0 -15 -14 -28l-81 -80q-26 -26 -51 -26q-24 0 -51 26l-81 79q-14 14 -14 29q0 13 9.5 22.5t23.5 9.5q15 0 29 -14z" />
    <glyph glyph-name="edieresis.sc" horiz-adv-x="507" 
d="M414 0h-272q-58 0 -58 57v421q0 58 58 58h260q26 0 36 -13t10 -27q0 -15 -10 -27.5t-36 -12.5h-223v-141h210q25 0 35 -12.5t10 -25.5q0 -15 -10 -27t-35 -12h-210v-157h235q18 0 29.5 -8t14 -15.5t2.5 -16.5t-3 -17t-14 -16t-29 -8zM108 675q0 25 18 43t44 18t44 -17.5
t18 -43.5q0 -25 -18 -42.5t-44 -17.5t-44 18t-18 42zM302 675q0 25 18 43t44 18t44 -17.5t18 -43.5q0 -25 -18 -42.5t-44 -17.5t-44 18t-18 42z" />
    <glyph glyph-name="edotaccent.sc" horiz-adv-x="507" 
d="M414 0h-272q-58 0 -58 57v421q0 58 58 58h260q26 0 36 -13t10 -27q0 -15 -10 -27.5t-36 -12.5h-223v-141h210q25 0 35 -12.5t10 -25.5q0 -15 -10 -27t-35 -12h-210v-157h235q18 0 29.5 -8t14 -15.5t2.5 -16.5t-3 -17t-14 -16t-29 -8zM333 675q0 -25 -18.5 -42.5
t-44.5 -17.5t-44 17.5t-18 42.5t18 43t44 18t44.5 -17.5t18.5 -43.5z" />
    <glyph glyph-name="emacron.sc" horiz-adv-x="507" 
d="M414 0h-272q-58 0 -58 57v421q0 58 58 58h260q26 0 36 -13t10 -27q0 -15 -10 -27.5t-36 -12.5h-223v-141h210q25 0 35 -12.5t10 -25.5q0 -15 -10 -27t-35 -12h-210v-157h235q18 0 29.5 -8t14 -15.5t2.5 -16.5t-3 -17t-14 -16t-29 -8zM382 626h-230q-21 0 -29.5 11.5
t-8.5 23.5t8.5 23t29.5 11h230q21 0 29.5 -11t8.5 -23t-8.5 -23.5t-29.5 -11.5z" />
    <glyph glyph-name="ebreve.sc" horiz-adv-x="507" 
d="M414 0h-272q-58 0 -58 57v421q0 58 58 58h260q26 0 36 -13t10 -27q0 -15 -10 -27.5t-36 -12.5h-223v-141h210q25 0 35 -12.5t10 -25.5q0 -15 -10 -27t-35 -12h-210v-157h235q18 0 29.5 -8t14 -15.5t2.5 -16.5t-3 -17t-14 -16t-29 -8zM265 664q67 0 90 54q12 26 32 26
q14 0 22 -9t8 -21q0 -10 -3 -19q-32 -95 -149 -95t-149 95q-3 9 -3 19q0 12 8 21t23 9q20 0 32 -26q24 -54 89 -54z" />
    <glyph glyph-name="eogonek.sc" horiz-adv-x="507" 
d="M444 -202q-37 -24 -77 -24q-39 0 -68 24t-29 63q0 67 86 139h-214q-58 0 -58 57v421q0 58 58 58h260q26 0 36 -13t10 -27q0 -15 -10 -27.5t-36 -12.5h-223v-141h210q25 0 35 -12.5t10 -25.5q0 -15 -10 -27t-35 -12h-210v-157h235q18 0 29.5 -8t14 -15.5t2.5 -16.5
q0 -15 -9.5 -28t-35.5 -13q-76 -74 -76 -119q0 -20 13.5 -33t34.5 -13q12 0 30 8q11 5 19 5q10 0 17 -7t7 -17q0 -15 -16 -26z" />
    <glyph glyph-name="gcircumflex.sc" horiz-adv-x="625" 
d="M548 243v-166q0 -48 -49 -64q-73 -27 -157 -27q-128 0 -209 79.5t-81 203.5q0 125 81.5 203t205.5 78q106 0 167 -45q26 -19 26 -42q0 -19 -12.5 -32.5t-32.5 -13.5q-17 0 -34 12q-51 36 -113 36q-84 0 -134.5 -56t-50.5 -139q0 -85 52.5 -142t137.5 -57q63 0 107 21v132
h-77q-24 0 -34 13t-10 27q0 8 3 15.5t13.5 15t27.5 7.5h114q59 0 59 -59zM338 681l-86 -81q-15 -14 -29 -14q-13 0 -22.5 9t-9.5 23q0 15 14 28l81 80q26 26 51 26q24 0 51 -26l81 -79q14 -14 14 -29q0 -13 -9.5 -22.5t-23.5 -9.5q-15 0 -29 14z" />
    <glyph glyph-name="gdotaccent.sc" horiz-adv-x="625" 
d="M548 243v-166q0 -48 -49 -64q-73 -27 -157 -27q-128 0 -209 79.5t-81 203.5q0 125 81.5 203t205.5 78q106 0 167 -45q26 -19 26 -42q0 -19 -12.5 -32.5t-32.5 -13.5q-17 0 -34 12q-51 36 -113 36q-84 0 -134.5 -56t-50.5 -139q0 -85 52.5 -142t137.5 -57q63 0 107 21v132
h-77q-24 0 -34 13t-10 27q0 8 3 15.5t13.5 15t27.5 7.5h114q59 0 59 -59zM400 675q0 -25 -18.5 -42.5t-44.5 -17.5t-44 17.5t-18 42.5t18 43t44 18t44.5 -17.5t18.5 -43.5z" />
    <glyph glyph-name="gbreve.sc" horiz-adv-x="625" 
d="M548 243v-166q0 -48 -49 -64q-73 -27 -157 -27q-128 0 -209 79.5t-81 203.5q0 125 81.5 203t205.5 78q106 0 167 -45q26 -19 26 -42q0 -19 -12.5 -32.5t-32.5 -13.5q-17 0 -34 12q-51 36 -113 36q-84 0 -134.5 -56t-50.5 -139q0 -85 52.5 -142t137.5 -57q63 0 107 21v132
h-77q-24 0 -34 13t-10 27q0 8 3 15.5t13.5 15t27.5 7.5h114q59 0 59 -59zM339 664q67 0 90 54q12 26 32 26q14 0 22 -9t8 -21q0 -10 -3 -19q-32 -95 -149 -95t-149 95q-3 9 -3 19q0 12 8 21t23 9q20 0 32 -26q24 -54 89 -54z" />
    <glyph glyph-name="gcommaaccent.sc" horiz-adv-x="625" 
d="M548 243v-166q0 -48 -49 -64q-73 -27 -157 -27q-128 0 -209 79.5t-81 203.5q0 125 81.5 203t205.5 78q106 0 167 -45q26 -19 26 -42q0 -19 -12.5 -32.5t-32.5 -13.5q-17 0 -34 12q-51 36 -113 36q-84 0 -134.5 -56t-50.5 -139q0 -85 52.5 -142t137.5 -57q63 0 107 21v132
h-77q-24 0 -34 13t-10 27q0 8 3 15.5t13.5 15t27.5 7.5h114q59 0 59 -59zM253 -178l49 109q14 32 40 32q17 0 28 -10.5t11 -26.5q0 -15 -8 -31l-50 -105q-15 -33 -42 -33q-15 0 -25.5 10t-10.5 26q0 10 8 29z" />
    <glyph glyph-name="hcircumflex.sc" horiz-adv-x="607" 
d="M523 46q0 -30 -15.5 -42t-32.5 -12q-10 0 -20 3.5t-19 16.5t-9 34v191h-247v-191q0 -30 -15.5 -42t-32.5 -12q-10 0 -20 3.5t-19 16.5t-9 34v444q0 30 15.5 42t32.5 12q10 0 20 -3.5t19 -16.5t9 -34v-174h247v174q0 30 15.5 42t32.5 12q10 0 20 -3.5t19 -16.5t9 -34v-444
zM304 681l-86 -81q-15 -14 -29 -14q-13 0 -22.5 9t-9.5 23q0 15 14 28l81 80q26 26 51 26q24 0 51 -26l81 -79q14 -14 14 -29q0 -13 -9.5 -22.5t-23.5 -9.5q-15 0 -29 14z" />
    <glyph glyph-name="hbar.sc" horiz-adv-x="607" 
d="M523 46q0 -30 -15.5 -42t-32.5 -12q-10 0 -20 3.5t-19 16.5t-9 34v191h-247v-191q0 -30 -15.5 -42t-32.5 -12q-10 0 -20 3.5t-19 16.5t-9 34v444q0 30 15.5 42t32.5 12q10 0 20 -3.5t19 -16.5t9 -34v-47h247v47q0 30 15.5 42t32.5 12q10 0 20 -3.5t19 -16.5t9 -34v-444z
M180 310h247v80h-247v-80z" />
    <glyph glyph-name="igrave.sc" horiz-adv-x="264" 
d="M180 490v-444q0 -30 -15.5 -42t-32.5 -12q-10 0 -20 3.5t-19 16.5t-9 34v444q0 30 15.5 42t32.5 12q10 0 20 -3.5t19 -16.5t9 -34zM72 733l75 -76q18 -18 18 -35q0 -14 -10 -25t-25 -11q-19 0 -36 17l-77 73q-21 19 -21 38q0 16 11 27t27 11q19 0 38 -19z" />
    <glyph glyph-name="iacute.sc" horiz-adv-x="264" 
d="M180 490v-444q0 -30 -15.5 -42t-32.5 -12q-10 0 -20 3.5t-19 16.5t-9 34v444q0 30 15.5 42t32.5 12q10 0 20 -3.5t19 -16.5t9 -34zM118 657l75 76q19 19 38 19q17 0 27.5 -11t10.5 -27q0 -19 -21 -38l-77 -73q-17 -17 -36 -17q-15 0 -25 11t-10 25q0 17 18 35z" />
    <glyph glyph-name="icircumflex.sc" horiz-adv-x="264" 
d="M180 490v-444q0 -30 -15.5 -42t-32.5 -12q-10 0 -20 3.5t-19 16.5t-9 34v444q0 30 15.5 42t32.5 12q10 0 20 -3.5t19 -16.5t9 -34zM133 681l-86 -81q-15 -14 -29 -14t-23 9t-9 23q0 15 14 28l81 80q26 26 51 26q24 0 51 -26l81 -79q14 -14 14 -29q0 -13 -9.5 -22.5
t-23.5 -9.5q-15 0 -29 14z" />
    <glyph glyph-name="itilde.sc" horiz-adv-x="264" 
d="M180 490v-444q0 -30 -15.5 -42t-32.5 -12q-10 0 -20 3.5t-19 16.5t-9 34v444q0 30 15.5 42t32.5 12q10 0 20 -3.5t19 -16.5t9 -34zM202 606q-31 0 -75 23q-42 21 -62 21q-24 0 -38 -31q-10 -23 -30 -23q-31 0 -31 31q0 11 5 23q26 68 93 68q27 0 75 -23q44 -21 62 -21
q24 0 38 31q10 23 30 23q30 0 30 -30q0 -12 -5 -24q-26 -68 -92 -68z" />
    <glyph glyph-name="idieresis.sc" horiz-adv-x="264" 
d="M180 490v-444q0 -30 -15.5 -42t-32.5 -12q-10 0 -20 3.5t-19 16.5t-9 34v444q0 30 15.5 42t32.5 12q10 0 20 -3.5t19 -16.5t9 -34zM-27 675q0 25 18 43t44 18t44 -17.5t18 -43.5q0 -25 -18 -42.5t-44 -17.5t-44 18t-18 42zM167 675q0 25 18 43t44 18t44 -17.5t18 -43.5
q0 -25 -18 -42.5t-44 -17.5t-44 18t-18 42z" />
    <glyph glyph-name="imacron.sc" horiz-adv-x="264" 
d="M180 490v-444q0 -30 -15.5 -42t-32.5 -12q-10 0 -20 3.5t-19 16.5t-9 34v444q0 30 15.5 42t32.5 12q10 0 20 -3.5t19 -16.5t9 -34zM249 626h-230q-21 0 -29.5 11.5t-8.5 23.5t8.5 23t29.5 11h230q21 0 29.5 -11t8.5 -23t-8.5 -23.5t-29.5 -11.5z" />
    <glyph glyph-name="idotaccent.sc" horiz-adv-x="264" 
d="M180 490v-444q0 -30 -15.5 -42t-32.5 -12q-10 0 -20 3.5t-19 16.5t-9 34v444q0 30 15.5 42t32.5 12q10 0 20 -3.5t19 -16.5t9 -34zM195 660q0 -25 -18.5 -42.5t-44.5 -17.5t-44 17.5t-18 42.5t18 43t44 18t44.5 -17.5t18.5 -43.5z" />
    <glyph glyph-name="iogonek.sc" horiz-adv-x="264" 
d="M205 -202q-37 -24 -77 -24q-39 0 -68 24t-29 63q0 63 73 139q-20 13 -20 46v444q0 30 15.5 42t32.5 12q10 0 20 -3.5t19 -16.5t9 -34v-444q0 -24 -13 -40q-67 -83 -67 -125q0 -20 13.5 -33t34.5 -13q12 0 30 8q11 5 19 5q10 0 17 -7t7 -17q0 -15 -16 -26z" />
    <glyph glyph-name="jcircumflex.sc" horiz-adv-x="407" 
d="M233 172v318q0 30 15.5 42t32.5 12q10 0 20 -3.5t19 -16.5t9 -34v-322q0 -25 -4 -48.5t-14.5 -48.5t-28 -43t-46.5 -30t-67 -12q-96 0 -137 73q-9 15 -9 30q0 19 13 31.5t33 12.5q24 0 42 -26q24 -35 56 -35q36 0 51 24.5t15 75.5zM282 681l-86 -81q-15 -14 -29 -14
q-13 0 -22.5 9t-9.5 23q0 15 14 28l81 80q26 26 51 26q24 0 51 -26l81 -79q14 -14 14 -29q0 -13 -9.5 -22.5t-23.5 -9.5q-15 0 -29 14z" />
    <glyph glyph-name="kcommaaccent.sc" horiz-adv-x="543" 
d="M430 12l-248 253h-2v-219q0 -30 -15.5 -42t-32.5 -12q-10 0 -20 3.5t-19 16.5t-9 34v444q0 30 15.5 42t32.5 12q10 0 20 -3.5t19 -16.5t9 -34v-183h2l236 219q18 18 38 18q18 0 31 -12.5t13 -31.5q0 -20 -20 -39l-195 -172l214 -212q18 -17 18 -39q0 -19 -13 -32.5
t-33 -13.5q-22 0 -41 20zM203 -178l49 109q14 32 40 32q17 0 28 -10.5t11 -26.5q0 -15 -8 -31l-50 -105q-15 -33 -42 -33q-15 0 -25.5 10t-10.5 26q0 10 8 29z" />
    <glyph glyph-name="lacute.sc" horiz-adv-x="420" 
d="M180 81h192q18 0 29.5 -8t14 -15.5t2.5 -16.5t-3 -17t-14 -16t-29 -8h-230q-58 0 -58 57v433q0 30 15.5 42t32.5 12q10 0 20 -3.5t19 -16.5t9 -34v-409zM122 657l75 76q19 19 38 19q17 0 27.5 -11t10.5 -27q0 -19 -21 -38l-77 -73q-17 -17 -36 -17q-15 0 -25 11t-10 25
q0 17 18 35z" />
    <glyph glyph-name="lcaron.sc" horiz-adv-x="420" 
d="M180 81h192q18 0 29.5 -8t14 -15.5t2.5 -16.5t-3 -17t-14 -16t-29 -8h-230q-58 0 -58 57v433q0 30 15.5 42t32.5 12q10 0 20 -3.5t19 -16.5t9 -34v-409zM253 400l41 109q14 36 41 36q17 0 28.5 -10t11.5 -27q0 -13 -7 -29l-43 -109q-13 -33 -40 -33q-16 0 -27 9.5
t-11 25.5q0 12 6 28z" />
    <glyph glyph-name="lcommaaccent.sc" horiz-adv-x="420" 
d="M180 81h192q18 0 29.5 -8t14 -15.5t2.5 -16.5t-3 -17t-14 -16t-29 -8h-230q-58 0 -58 57v433q0 30 15.5 42t32.5 12q10 0 20 -3.5t19 -16.5t9 -34v-409zM165 -178l49 109q14 32 40 32q17 0 28 -10.5t11 -26.5q0 -15 -8 -31l-50 -105q-15 -33 -42 -33q-15 0 -25.5 10
t-10.5 26q0 10 8 29z" />
    <glyph glyph-name="ldot.sc" horiz-adv-x="420" 
d="M180 81h192q18 0 29.5 -8t14 -15.5t2.5 -16.5t-3 -17t-14 -16t-29 -8h-230q-58 0 -58 57v433q0 30 15.5 42t32.5 12q10 0 20 -3.5t19 -16.5t9 -34v-409zM379 315q0 -25 -18.5 -42.5t-44.5 -17.5t-44 17.5t-18 42.5t18 43t44 18t44.5 -17.5t18.5 -43.5z" />
    <glyph glyph-name="lslash.sc" horiz-adv-x="420" 
d="M16 252l68 57v181q0 30 15.5 42t32.5 12q10 0 20 -3.5t19 -16.5t9 -34v-101l56 48q15 13 29 13t23.5 -9.5t9.5 -23.5q0 -18 -16 -31l-102 -85v-220h192q18 0 29.5 -8t14 -15.5t2.5 -16.5t-3 -17t-14 -16t-29 -8h-230q-58 0 -58 57v163l-23 -19q-15 -13 -28 -13
q-14 0 -23.5 10t-9.5 25q0 17 16 29z" />
    <glyph glyph-name="nacute.sc" horiz-adv-x="618" 
d="M441 153v338q0 29 15 41t31 12q17 0 32 -11.5t15 -41.5v-429q0 -39 -19 -54.5t-40 -15.5q-37 0 -70 50l-227 345h-1v-342q0 -30 -15 -41.5t-32 -11.5q-9 0 -18.5 3.5t-18.5 16t-9 33.5v429q0 39 19 54.5t40 15.5q35 0 69 -50l227 -341h2zM278 657l75 76q19 19 38 19
q17 0 27.5 -11t10.5 -27q0 -19 -21 -38l-77 -73q-17 -17 -36 -17q-15 0 -25 11t-10 25q0 17 18 35z" />
    <glyph glyph-name="ncaron.sc" horiz-adv-x="618" 
d="M441 153v338q0 29 15 41t31 12q17 0 32 -11.5t15 -41.5v-429q0 -39 -19 -54.5t-40 -15.5q-37 0 -70 50l-227 345h-1v-342q0 -30 -15 -41.5t-32 -11.5q-9 0 -18.5 3.5t-18.5 16t-9 33.5v429q0 39 19 54.5t40 15.5q35 0 69 -50l227 -341h2zM311 657l86 81q15 14 29 14
t23 -9t9 -23q0 -15 -14 -28l-81 -80q-26 -26 -51 -26q-24 0 -51 26l-81 79q-14 14 -14 29q0 13 9.5 22.5t23.5 9.5q15 0 29 -14z" />
    <glyph glyph-name="ntilde.sc" horiz-adv-x="618" 
d="M441 153v338q0 29 15 41t31 12q17 0 32 -11.5t15 -41.5v-429q0 -39 -19 -54.5t-40 -15.5q-37 0 -70 50l-227 345h-1v-342q0 -30 -15 -41.5t-32 -11.5q-9 0 -18.5 3.5t-18.5 16t-9 33.5v429q0 39 19 54.5t40 15.5q35 0 69 -50l227 -341h2zM376 606q-31 0 -75 23
q-42 21 -62 21q-24 0 -38 -31q-10 -23 -30 -23q-31 0 -31 31q0 11 5 23q26 68 93 68q27 0 75 -23q44 -21 62 -21q24 0 38 31q10 23 30 23q30 0 30 -30q0 -12 -5 -24q-26 -68 -92 -68z" />
    <glyph glyph-name="ncommaaccent.sc" horiz-adv-x="618" 
d="M441 153v338q0 29 15 41t31 12q17 0 32 -11.5t15 -41.5v-429q0 -39 -19 -54.5t-40 -15.5q-37 0 -70 50l-227 345h-1v-342q0 -30 -15 -41.5t-32 -11.5q-9 0 -18.5 3.5t-18.5 16t-9 33.5v429q0 39 19 54.5t40 15.5q35 0 69 -50l227 -341h2zM227 -178l49 109q14 32 40 32
q17 0 28 -10.5t11 -26.5q0 -15 -8 -31l-50 -105q-15 -33 -42 -33q-15 0 -25.5 10t-10.5 26q0 10 8 29z" />
    <glyph glyph-name="ograve.sc" horiz-adv-x="681" 
d="M629 269q0 -123 -82.5 -203t-207.5 -80q-123 0 -205 80t-82 203q0 125 81.5 203t205.5 78q126 0 208 -78t82 -203zM526 269q0 85 -51.5 140.5t-135.5 55.5q-83 0 -133.5 -55.5t-50.5 -140.5q0 -86 50.5 -142t133.5 -56q84 0 135.5 56t51.5 142zM286 733l75 -76
q18 -18 18 -35q0 -14 -10 -25t-25 -11q-19 0 -36 17l-77 73q-21 19 -21 38q0 16 11 27t27 11q19 0 38 -19z" />
    <glyph glyph-name="oacute.sc" horiz-adv-x="681" 
d="M629 269q0 -123 -82.5 -203t-207.5 -80q-123 0 -205 80t-82 203q0 125 81.5 203t205.5 78q126 0 208 -78t82 -203zM526 269q0 85 -51.5 140.5t-135.5 55.5q-83 0 -133.5 -55.5t-50.5 -140.5q0 -86 50.5 -142t133.5 -56q84 0 135.5 56t51.5 142zM311 657l75 76
q19 19 38 19q16 0 27 -11t11 -27q0 -19 -21 -38l-77 -73q-17 -17 -36 -17q-15 0 -25 11t-10 25q0 17 18 35z" />
    <glyph glyph-name="ocircumflex.sc" horiz-adv-x="681" 
d="M629 269q0 -123 -82.5 -203t-207.5 -80q-123 0 -205 80t-82 203q0 125 81.5 203t205.5 78q126 0 208 -78t82 -203zM526 269q0 85 -51.5 140.5t-135.5 55.5q-83 0 -133.5 -55.5t-50.5 -140.5q0 -86 50.5 -142t133.5 -56q84 0 135.5 56t51.5 142zM340 681l-86 -81
q-15 -14 -29 -14q-13 0 -22.5 9t-9.5 23q0 15 14 28l81 80q26 26 51 26q24 0 51 -26l81 -79q14 -14 14 -29q0 -13 -9.5 -22.5t-23.5 -9.5q-15 0 -29 14z" />
    <glyph glyph-name="otilde.sc" horiz-adv-x="681" 
d="M629 269q0 -123 -82.5 -203t-207.5 -80q-123 0 -205 80t-82 203q0 125 81.5 203t205.5 78q126 0 208 -78t82 -203zM526 269q0 85 -51.5 140.5t-135.5 55.5q-83 0 -133.5 -55.5t-50.5 -140.5q0 -86 50.5 -142t133.5 -56q84 0 135.5 56t51.5 142zM407 606q-31 0 -75 23
q-42 21 -62 21q-24 0 -38 -31q-10 -23 -30 -23q-31 0 -31 31q0 11 5 23q26 68 93 68q27 0 75 -23q44 -21 62 -21q24 0 38 31q10 23 30 23q30 0 30 -30q0 -12 -5 -24q-26 -68 -92 -68z" />
    <glyph glyph-name="odieresis.sc" horiz-adv-x="681" 
d="M629 269q0 -123 -82.5 -203t-207.5 -80q-123 0 -205 80t-82 203q0 125 81.5 203t205.5 78q126 0 208 -78t82 -203zM526 269q0 85 -51.5 140.5t-135.5 55.5q-83 0 -133.5 -55.5t-50.5 -140.5q0 -86 50.5 -142t133.5 -56q84 0 135.5 56t51.5 142zM179 675q0 25 18 43t44 18
t44 -17.5t18 -43.5q0 -25 -18 -42.5t-44 -17.5t-44 18t-18 42zM373 675q0 25 18 43t44 18t44 -17.5t18 -43.5q0 -25 -18 -42.5t-44 -17.5t-44 18t-18 42z" />
    <glyph glyph-name="omacron.sc" horiz-adv-x="681" 
d="M629 269q0 -123 -82.5 -203t-207.5 -80q-123 0 -205 80t-82 203q0 125 81.5 203t205.5 78q126 0 208 -78t82 -203zM526 269q0 85 -51.5 140.5t-135.5 55.5q-83 0 -133.5 -55.5t-50.5 -140.5q0 -86 50.5 -142t133.5 -56q84 0 135.5 56t51.5 142zM455 626h-230
q-21 0 -29.5 11.5t-8.5 23.5t8.5 23t29.5 11h230q21 0 29.5 -11t8.5 -23t-8.5 -23.5t-29.5 -11.5z" />
    <glyph glyph-name="obreve.sc" horiz-adv-x="681" 
d="M629 269q0 -123 -82.5 -203t-207.5 -80q-123 0 -205 80t-82 203q0 125 81.5 203t205.5 78q126 0 208 -78t82 -203zM526 269q0 85 -51.5 140.5t-135.5 55.5q-83 0 -133.5 -55.5t-50.5 -140.5q0 -86 50.5 -142t133.5 -56q84 0 135.5 56t51.5 142zM339 664q67 0 90 54
q12 26 32 26q14 0 22 -9t8 -21q0 -10 -3 -19q-32 -95 -149 -95t-149 95q-3 9 -3 19q0 12 8 21t23 9q20 0 32 -26q24 -54 89 -54z" />
    <glyph glyph-name="ohungarumlaut.sc" horiz-adv-x="681" 
d="M629 269q0 -123 -82.5 -203t-207.5 -80q-123 0 -205 80t-82 203q0 125 81.5 203t205.5 78q126 0 208 -78t82 -203zM526 269q0 85 -51.5 140.5t-135.5 55.5q-83 0 -133.5 -55.5t-50.5 -140.5q0 -86 50.5 -142t133.5 -56q84 0 135.5 56t51.5 142zM422 657l69 77
q16 18 37 18q16 -1 26 -11t10 -25q0 -18 -18 -37l-71 -76q-16 -17 -35 -17q-15 0 -25 10.5t-10 24.5q0 18 17 36zM233 657l69 77q16 18 37 18q16 -1 26 -11t10 -25q0 -18 -18 -37l-71 -76q-16 -17 -35 -17q-15 0 -25 10.5t-10 24.5q0 18 17 36z" />
    <glyph glyph-name="oslash.sc" horiz-adv-x="681" 
d="M525 269q0 67 -34 118l-268 -276q47 -39 116 -39q83 0 134.5 56t51.5 141zM156 269q0 -69 33 -119l267 275q-49 39 -117 39q-82 0 -132.5 -55.5t-50.5 -139.5zM158 44l-57 -59q-10 -10 -21 -10q-10 0 -17.5 7.5t-7.5 17.5q0 11 10 22l56 57q-69 75 -69 190
q0 125 81.5 203t205.5 78q106 0 183 -58l54 56q10 10 21 10t18 -7t7 -18t-10 -22l-52 -53q69 -77 69 -189q0 -124 -82.5 -203.5t-207.5 -79.5q-104 0 -181 58z" />
    <glyph glyph-name="oe.sc" horiz-adv-x="808" 
d="M354 536h349q26 0 36 -13t10 -27q0 -15 -10 -27.5t-36 -12.5h-222v-141h209q25 0 35 -12.5t10 -25.5q0 -15 -10 -27t-35 -12h-209v-157h234q18 0 29.5 -8t14 -15.5t2.5 -16.5t-3 -17t-14 -16t-29 -8h-361q-125 0 -209 73.5t-84 194.5q0 123 83.5 195.5t209.5 72.5z
M165 268q0 -83 52.5 -132.5t136.5 -49.5h31v364h-31q-84 0 -136.5 -50t-52.5 -132z" />
    <glyph glyph-name="racute.sc" horiz-adv-x="525" 
d="M354 240l111 -167q12 -17 12 -34q0 -19 -13 -33t-33 -14q-29 0 -45 27l-129 207h-77v-180q0 -30 -15.5 -42t-32.5 -12q-10 0 -20 3.5t-19 16.5t-9 34v433q0 57 58 57h133q196 0 196 -149q0 -57 -31.5 -95t-85.5 -52zM180 456v-152h83q111 0 111 80q0 72 -105 72h-89z
M218 657l75 76q19 19 38 19q17 0 27.5 -11t10.5 -27q0 -19 -21 -38l-77 -73q-17 -17 -36 -17q-15 0 -25 11t-10 25q0 17 18 35z" />
    <glyph glyph-name="rcaron.sc" horiz-adv-x="525" 
d="M354 240l111 -167q12 -17 12 -34q0 -19 -13 -33t-33 -14q-29 0 -45 27l-129 207h-77v-180q0 -30 -15.5 -42t-32.5 -12q-10 0 -20 3.5t-19 16.5t-9 34v433q0 57 58 57h133q196 0 196 -149q0 -57 -31.5 -95t-85.5 -52zM180 456v-152h83q111 0 111 80q0 72 -105 72h-89z
M261 657l86 81q15 14 29 14t23 -9t9 -23q0 -15 -14 -28l-81 -80q-26 -26 -51 -26q-24 0 -51 26l-81 79q-14 14 -14 29q0 13 9.5 22.5t23.5 9.5q15 0 29 -14z" />
    <glyph glyph-name="rcommaaccent.sc" horiz-adv-x="525" 
d="M354 240l111 -167q12 -17 12 -34q0 -19 -13 -33t-33 -14q-29 0 -45 27l-129 207h-77v-180q0 -30 -15.5 -42t-32.5 -12q-10 0 -20 3.5t-19 16.5t-9 34v433q0 57 58 57h133q196 0 196 -149q0 -57 -31.5 -95t-85.5 -52zM180 456v-152h83q111 0 111 80q0 72 -105 72h-89z
M188 -178l49 109q14 32 40 32q17 0 28 -10.5t11 -26.5q0 -15 -8 -31l-50 -105q-15 -33 -42 -33q-15 0 -25.5 10t-10.5 26q0 10 8 29z" />
    <glyph glyph-name="sacute.sc" horiz-adv-x="465" 
d="M242 468q-37 0 -62 -19.5t-25 -52.5q0 -34 22 -49.5t75 -33.5q34 -11 57 -21.5t49 -28.5t39 -46t13 -64q0 -82 -53.5 -124.5t-135.5 -42.5q-88 0 -150 48q-27 22 -27 45q0 19 13 32t33 13q19 0 35 -15q48 -39 98 -39q40 0 66.5 18.5t26.5 52.5q0 37 -27.5 57.5
t-89.5 39.5q-66 21 -102.5 53t-36.5 98q0 78 55.5 119.5t132.5 41.5q72 0 131 -41q28 -19 28 -43q0 -18 -12 -30.5t-31 -12.5q-18 0 -38 15q-41 30 -84 30zM199 657l75 76q19 19 38 19q16 0 27 -11t11 -27q0 -19 -21 -38l-77 -73q-17 -17 -36 -17q-15 0 -25 11t-10 25
q0 17 18 35z" />
    <glyph glyph-name="scircumflex.sc" horiz-adv-x="465" 
d="M242 468q-37 0 -62 -19.5t-25 -52.5q0 -34 22 -49.5t75 -33.5q34 -11 57 -21.5t49 -28.5t39 -46t13 -64q0 -82 -53.5 -124.5t-135.5 -42.5q-88 0 -150 48q-27 22 -27 45q0 19 13 32t33 13q19 0 35 -15q48 -39 98 -39q40 0 66.5 18.5t26.5 52.5q0 37 -27.5 57.5
t-89.5 39.5q-66 21 -102.5 53t-36.5 98q0 78 55.5 119.5t132.5 41.5q72 0 131 -41q28 -19 28 -43q0 -18 -12 -30.5t-31 -12.5q-18 0 -38 15q-41 30 -84 30zM247 681l-86 -81q-15 -14 -29 -14t-23 9t-9 23q0 15 14 28l81 80q26 26 51 26q24 0 51 -26l81 -79q14 -14 14 -29
q0 -13 -9.5 -22.5t-23.5 -9.5q-15 0 -29 14z" />
    <glyph glyph-name="scaron.sc" horiz-adv-x="465" 
d="M242 468q-37 0 -62 -19.5t-25 -52.5q0 -34 22 -49.5t75 -33.5q34 -11 57 -21.5t49 -28.5t39 -46t13 -64q0 -82 -53.5 -124.5t-135.5 -42.5q-88 0 -150 48q-27 22 -27 45q0 19 13 32t33 13q19 0 35 -15q48 -39 98 -39q40 0 66.5 18.5t26.5 52.5q0 37 -27.5 57.5
t-89.5 39.5q-66 21 -102.5 53t-36.5 98q0 78 55.5 119.5t132.5 41.5q72 0 131 -41q28 -19 28 -43q0 -18 -12 -30.5t-31 -12.5q-18 0 -38 15q-41 30 -84 30zM245 657l86 81q15 14 29 14t23 -9t9 -23q0 -15 -14 -28l-81 -80q-26 -26 -51 -26q-24 0 -51 26l-81 79
q-14 14 -14 29q0 13 9.5 22.5t23.5 9.5q15 0 29 -14z" />
    <glyph glyph-name="scedilla.sc" horiz-adv-x="465" 
d="M139 -169q8 0 23 -5q22 -7 49 -7q58 0 58 36q0 35 -44 35q-10 0 -22 -2q-15 -3 -21 -3q-24 0 -24 21q0 8 8 21l38 60q-79 5 -133 47q-27 22 -27 45q0 19 13 32t33 13q19 0 35 -15q48 -39 98 -39q40 0 66.5 18.5t26.5 52.5q0 37 -27.5 57.5t-89.5 39.5q-66 21 -102.5 53
t-36.5 98q0 78 55.5 119.5t132.5 41.5q72 0 131 -41q28 -19 28 -43q0 -18 -12 -30.5t-31 -12.5q-18 0 -38 15q-41 30 -84 30q-37 0 -62 -19.5t-25 -52.5q0 -34 22 -49.5t75 -33.5q34 -11 57 -21.5t49 -28.5t39 -46t13 -64q0 -70 -40 -111.5t-105 -51.5l-38 -57q16 2 27 2
q36 0 61.5 -19.5t25.5 -59.5q0 -47 -37.5 -69t-89.5 -22q-40 0 -76 12q-25 9 -25 28q0 10 7.5 18t18.5 8z" />
    <glyph glyph-name="scommaaccent.sc" horiz-adv-x="465" 
d="M242 468q-37 0 -62 -19.5t-25 -52.5q0 -34 22 -49.5t75 -33.5q34 -11 57 -21.5t49 -28.5t39 -46t13 -64q0 -82 -53.5 -124.5t-135.5 -42.5q-88 0 -150 48q-27 22 -27 45q0 19 13 32t33 13q19 0 35 -15q48 -39 98 -39q40 0 66.5 18.5t26.5 52.5q0 37 -27.5 57.5
t-89.5 39.5q-66 21 -102.5 53t-36.5 98q0 78 55.5 119.5t132.5 41.5q72 0 131 -41q28 -19 28 -43q0 -18 -12 -30.5t-31 -12.5q-18 0 -38 15q-41 30 -84 30zM140 -178l49 109q14 32 40 32q17 0 28 -10.5t11 -26.5q0 -15 -8 -31l-50 -105q-15 -33 -42 -33q-15 0 -25.5 10
t-10.5 26q0 10 8 29z" />
    <glyph glyph-name="germandbls.sc" horiz-adv-x="930" 
d="M242 468q-37 0 -62 -19.5t-25 -52.5q0 -34 22 -49.5t75 -33.5q34 -11 57 -21.5t49 -28.5t39 -46t13 -64q0 -82 -53.5 -124.5t-135.5 -42.5q-88 0 -150 48q-27 22 -27 45q0 19 13 32t33 13q19 0 35 -15q48 -39 98 -39q40 0 66.5 18.5t26.5 52.5q0 37 -27.5 57.5
t-89.5 39.5q-66 21 -102.5 53t-36.5 98q0 78 55.5 119.5t132.5 41.5q72 0 131 -41q28 -19 28 -43q0 -18 -12 -30.5t-31 -12.5q-18 0 -38 15q-41 30 -84 30zM707 468q-37 0 -62 -19.5t-25 -52.5q0 -34 22 -49.5t75 -33.5q34 -11 57 -21.5t49 -28.5t39 -46t13 -64
q0 -82 -53.5 -124.5t-135.5 -42.5q-88 0 -150 48q-27 22 -27 45q0 19 13 32t33 13q19 0 35 -15q48 -39 98 -39q40 0 66.5 18.5t26.5 52.5q0 37 -27.5 57.5t-89.5 39.5q-66 21 -102.5 53t-36.5 98q0 78 55.5 119.5t132.5 41.5q72 0 131 -41q28 -19 28 -43q0 -18 -12 -30.5
t-31 -12.5q-18 0 -38 15q-41 30 -84 30z" />
    <glyph glyph-name="tcaron.sc" horiz-adv-x="442" 
d="M172 456h-126q-26 0 -36 12.5t-10 27.5q0 14 10 27t36 13h350q26 0 36 -13t10 -27q0 -15 -10 -27.5t-36 -12.5h-128v-410q0 -30 -15.5 -42t-32.5 -12q-10 0 -20 3.5t-19 16.5t-9 34v410zM220 657l86 81q15 14 29 14q13 0 22.5 -9t9.5 -23q0 -15 -14 -28l-81 -80
q-26 -26 -51 -26q-24 0 -51 26l-81 79q-14 14 -14 29q0 13 9.5 22.5t23.5 9.5q15 0 29 -14z" />
    <glyph glyph-name="tcommaaccent.sc" horiz-adv-x="442" 
d="M172 456h-126q-26 0 -36 12.5t-10 27.5q0 14 10 27t36 13h350q26 0 36 -13t10 -27q0 -15 -10 -27.5t-36 -12.5h-128v-410q0 -30 -15.5 -42t-32.5 -12q-10 0 -20 3.5t-19 16.5t-9 34v410zM131 -178l49 109q14 32 40 32q17 0 28 -10.5t11 -26.5q0 -15 -8 -31l-50 -105
q-15 -33 -42 -33q-15 0 -25.5 10t-10.5 26q0 10 8 29z" />
    <glyph glyph-name="tbar.sc" horiz-adv-x="442" 
d="M172 456h-126q-26 0 -36 12.5t-10 27.5q0 14 10 27t36 13h350q26 0 36 -13t10 -27q0 -15 -10 -27.5t-36 -12.5h-128v-103h79q20 0 27.5 -10t7.5 -20q0 -11 -7.5 -22t-27.5 -11h-79v-244q0 -30 -15.5 -42t-32.5 -12q-10 0 -20 3.5t-19 16.5t-9 34v244h-78q-20 0 -27.5 11
t-7.5 22q0 10 7.5 20t27.5 10h78v103z" />
    <glyph glyph-name="thorn.sc" horiz-adv-x="505" 
d="M180 361v-152h80q111 0 111 80q0 37 -24.5 54.5t-83.5 17.5h-83zM84 46v444q0 30 15.5 42t32.5 12q10 0 20 -3.5t19 -16.5t9 -34v-49h92q197 0 197 -152q0 -73 -53.5 -115.5t-149.5 -42.5h-86v-85q0 -30 -15.5 -42t-32.5 -12q-10 0 -20 3.5t-19 16.5t-9 34z" />
    <glyph glyph-name="ugrave.sc" horiz-adv-x="595" 
d="M78 200v290q0 30 15.5 42t32.5 12q10 0 20 -3.5t19 -16.5t9 -34v-283q0 -59 30 -97t93 -38t93.5 38t30.5 97v283q0 30 15.5 42t32.5 12q10 0 20 -3.5t19 -16.5t9 -34v-290q0 -94 -59 -154t-161 -60t-160.5 60t-58.5 154zM246 733l75 -76q18 -18 18 -35q0 -14 -10 -25
t-25 -11q-19 0 -36 17l-77 73q-21 19 -21 38q0 16 11 27t27 11q19 0 38 -19z" />
    <glyph glyph-name="uacute.sc" horiz-adv-x="595" 
d="M78 200v290q0 30 15.5 42t32.5 12q10 0 20 -3.5t19 -16.5t9 -34v-283q0 -59 30 -97t93 -38t93.5 38t30.5 97v283q0 30 15.5 42t32.5 12q10 0 20 -3.5t19 -16.5t9 -34v-290q0 -94 -59 -154t-161 -60t-160.5 60t-58.5 154zM276 657l75 76q19 19 38 19q17 0 27.5 -11
t10.5 -27q0 -19 -21 -38l-77 -73q-17 -17 -36 -17q-15 0 -25 11t-10 25q0 17 18 35z" />
    <glyph glyph-name="ucircumflex.sc" horiz-adv-x="595" 
d="M78 200v290q0 30 15.5 42t32.5 12q10 0 20 -3.5t19 -16.5t9 -34v-283q0 -59 30 -97t93 -38t93.5 38t30.5 97v283q0 30 15.5 42t32.5 12q10 0 20 -3.5t19 -16.5t9 -34v-290q0 -94 -59 -154t-161 -60t-160.5 60t-58.5 154zM301 681l-86 -81q-15 -14 -29 -14t-23 9t-9 23
q0 15 14 28l81 80q26 26 51 26q24 0 51 -26l81 -79q14 -14 14 -29q0 -13 -9.5 -22.5t-23.5 -9.5q-15 0 -29 14z" />
    <glyph glyph-name="utilde.sc" horiz-adv-x="595" 
d="M78 200v290q0 30 15.5 42t32.5 12q10 0 20 -3.5t19 -16.5t9 -34v-283q0 -59 30 -97t93 -38t93.5 38t30.5 97v283q0 30 15.5 42t32.5 12q10 0 20 -3.5t19 -16.5t9 -34v-290q0 -94 -59 -154t-161 -60t-160.5 60t-58.5 154zM368 606q-31 0 -75 23q-42 21 -62 21
q-24 0 -38 -31q-10 -23 -30 -23q-31 0 -31 31q0 11 5 23q26 68 93 68q27 0 75 -23q44 -21 62 -21q24 0 38 31q10 23 30 23q30 0 30 -30q0 -12 -5 -24q-26 -68 -92 -68z" />
    <glyph glyph-name="udieresis.sc" horiz-adv-x="595" 
d="M78 200v290q0 30 15.5 42t32.5 12q10 0 20 -3.5t19 -16.5t9 -34v-283q0 -59 30 -97t93 -38t93.5 38t30.5 97v283q0 30 15.5 42t32.5 12q10 0 20 -3.5t19 -16.5t9 -34v-290q0 -94 -59 -154t-161 -60t-160.5 60t-58.5 154zM141 675q0 25 18 43t44 18t44 -17.5t18 -43.5
q0 -25 -18 -42.5t-44 -17.5t-44 18t-18 42zM335 675q0 25 18 43t44 18t44 -17.5t18 -43.5q0 -25 -18 -42.5t-44 -17.5t-44 18t-18 42z" />
    <glyph glyph-name="umacron.sc" horiz-adv-x="595" 
d="M78 200v290q0 30 15.5 42t32.5 12q10 0 20 -3.5t19 -16.5t9 -34v-283q0 -59 30 -97t93 -38t93.5 38t30.5 97v283q0 30 15.5 42t32.5 12q10 0 20 -3.5t19 -16.5t9 -34v-290q0 -94 -59 -154t-161 -60t-160.5 60t-58.5 154zM413 626h-230q-21 0 -29.5 11.5t-8.5 23.5t8.5 23
t29.5 11h230q21 0 29.5 -11t8.5 -23t-8.5 -23.5t-29.5 -11.5z" />
    <glyph glyph-name="ubreve.sc" horiz-adv-x="595" 
d="M78 200v290q0 30 15.5 42t32.5 12q10 0 20 -3.5t19 -16.5t9 -34v-283q0 -59 30 -97t93 -38t93.5 38t30.5 97v283q0 30 15.5 42t32.5 12q10 0 20 -3.5t19 -16.5t9 -34v-290q0 -94 -59 -154t-161 -60t-160.5 60t-58.5 154zM298 664q67 0 90 54q12 26 32 26q14 0 22 -9
t8 -21q0 -10 -3 -19q-32 -95 -149 -95t-149 95q-3 9 -3 19q0 12 8 21t23 9q20 0 32 -26q24 -54 89 -54z" />
    <glyph glyph-name="uring.sc" horiz-adv-x="595" 
d="M78 200v290q0 30 15.5 42t32.5 12q10 0 20 -3.5t19 -16.5t9 -34v-283q0 -59 30 -97t93 -38t93.5 38t30.5 97v283q0 30 15.5 42t32.5 12q10 0 20 -3.5t19 -16.5t9 -34v-290q0 -94 -59 -154t-161 -60t-160.5 60t-58.5 154zM399 683q0 -42 -29.5 -70.5t-71.5 -28.5t-71 28
t-29 70t29 70.5t71 28.5t71.5 -28t29.5 -70zM358 683q0 25 -17.5 41.5t-42.5 16.5t-42 -17t-17 -42q0 -24 17 -40.5t42 -16.5t42.5 16.5t17.5 41.5z" />
    </font>
</defs>
</svg>
